<?xml version="1.0" encoding="utf-8"?>
<!-- Generator: Adobe Illustrator 19.0.0, SVG Export Plug-In . SVG Version: 6.00 Build 0)  -->
<svg version="1.1" id="Layer_1" xmlns="http://www.w3.org/2000/svg" xmlns:xlink="http://www.w3.org/1999/xlink" x="0px" y="0px"
	 viewBox="0 0 151.5 117" style="enable-background:new 0 0 151.5 117;" xml:space="preserve">
<style type="text/css">
	.st0{fill:none;stroke:#02A05B;stroke-width:2;stroke-miterlimit:10;}
</style>
<g>
	<g>
		<polyline class="st0" points="64.8,98.1 64.8,41.7 45.1,29.8 25.3,41.7 25.3,98.1 		"/>
		<polyline class="st0" points="64.8,98.1 64.8,70.6 84.6,58.6 104.4,70.6 104.4,98.1 		"/>
		<g>
			<line class="st0" x1="45.1" y1="49.1" x2="45.1" y2="58.6"/>
			<g>
				<line class="st0" x1="35.9" y1="49.1" x2="35.9" y2="58.6"/>
				<line class="st0" x1="54.2" y1="49.1" x2="54.2" y2="58.6"/>
			</g>
		</g>
		<g>
			<line class="st0" x1="84.6" y1="88.6" x2="84.6" y2="98.1"/>
			<g>
				<line class="st0" x1="75.5" y1="88.6" x2="75.5" y2="98.1"/>
			</g>
		</g>
		<g>
			<line class="st0" x1="94.4" y1="39.6" x2="94.4" y2="49.1"/>
			<g>
				<line class="st0" x1="85.2" y1="39.6" x2="85.2" y2="49.1"/>
			</g>
		</g>
		<polyline class="st0" points="106.1,20.2 75.5,20.2 75.5,64.2 		"/>
	</g>
	<line class="st0" x1="14.6" y1="98.1" x2="136.2" y2="98.1"/>
	<g>
		<line class="st0" x1="117.3" y1="62.1" x2="117.3" y2="98.6"/>
		<circle class="st0" cx="116.6" cy="57.2" r="17.6"/>
	</g>
</g>
</svg>
