<?xml version="1.0" encoding="utf-8"?>
<!-- Generator: Adobe Illustrator 19.0.0, SVG Export Plug-In . SVG Version: 6.00 Build 0)  -->
<svg version="1.1" id="Layer_1" xmlns="http://www.w3.org/2000/svg" xmlns:xlink="http://www.w3.org/1999/xlink" x="0px" y="0px"
	 viewBox="0 0 229.5 198" style="enable-background:new 0 0 229.5 198;" xml:space="preserve">
<style type="text/css">
	.st0{fill:none;stroke:#FDC20F;stroke-width:2;stroke-miterlimit:10;}
</style>
<g>
	<g>
		<g>
			<line class="st0" x1="132.1" y1="130.5" x2="132.1" y2="138.4"/>
			<g>
				<line class="st0" x1="139.8" y1="130.5" x2="139.8" y2="138.4"/>
				<line class="st0" x1="124.4" y1="130.5" x2="124.4" y2="138.4"/>
			</g>
		</g>
		<g>
			<line class="st0" x1="88.8" y1="136.4" x2="88.8" y2="144.3"/>
		</g>
		<g>
			<line class="st0" x1="103.2" y1="118" x2="103.2" y2="126"/>
			<g>
				<line class="st0" x1="95.6" y1="118" x2="95.6" y2="126"/>
			</g>
		</g>
		<polyline class="st0" points="114,122.7 150.5,122.7 150.5,153.9 		"/>
		<path class="st0" d="M114,144.3c0-0.9,0-34.1,0-34.1H81.3v50.3"/>
	</g>
	<g>
		<g>
			<line class="st0" x1="134.2" y1="48.5" x2="134.2" y2="56.5"/>
			<g>
				<line class="st0" x1="144.5" y1="48.5" x2="144.5" y2="56.5"/>
			</g>
		</g>
		<g>
			<line class="st0" x1="144.5" y1="89.6" x2="144.5" y2="97.6"/>
			<g>
				<line class="st0" x1="154.7" y1="89.6" x2="154.7" y2="97.6"/>
			</g>
		</g>
		<line class="st0" x1="186.9" y1="69.1" x2="186.9" y2="77.1"/>
		<line class="st0" x1="123.9" y1="48.4" x2="123.9" y2="56.4"/>
		<polyline class="st0" points="154.2,77.2 154.2,36.6 112.4,36.6 82.3,66.6 29.2,119.7 		"/>
		<polyline class="st0" points="39.2,109.7 39.2,36.6 81.7,36.6 81.7,66.6 		"/>
		<polyline class="st0" points="197.3,56.7 175.1,56.7 175.1,78.1 133.1,78.1 133.1,119.7 		"/>
		<line class="st0" x1="39.2" y1="68.2" x2="82.3" y2="68.2"/>
		<line class="st0" x1="39.2" y1="78.1" x2="70.8" y2="78.1"/>
		<line class="st0" x1="39.2" y1="88.2" x2="60.7" y2="88.2"/>
		<line class="st0" x1="70.8" y1="36.6" x2="70.8" y2="68.2"/>
	</g>
</g>
</svg>
