<?xml version="1.0" encoding="utf-8"?>
<!-- Generator: Adobe Illustrator 19.0.0, SVG Export Plug-In . SVG Version: 6.00 Build 0)  -->
<svg version="1.1" id="Layer_1" xmlns="http://www.w3.org/2000/svg" xmlns:xlink="http://www.w3.org/1999/xlink" x="0px" y="0px"
	 viewBox="0 0 235.5 192" style="enable-background:new 0 0 235.5 192;" xml:space="preserve">
<style type="text/css">
	.st0{fill:none;stroke:#5A7FC0;stroke-width:2;stroke-miterlimit:10;}
</style>
<g>
	<g>
		<g>
			<line class="st0" x1="196.5" y1="113" x2="196.5" y2="121.9"/>
			<g>
				<line class="st0" x1="187.9" y1="113" x2="187.9" y2="121.9"/>
				<line class="st0" x1="205.1" y1="113" x2="205.1" y2="121.9"/>
			</g>
		</g>
		<g>
			<line class="st0" x1="166.3" y1="168.5" x2="166.3" y2="177.4"/>
			<g>
				<line class="st0" x1="157.7" y1="168.5" x2="157.7" y2="177.4"/>
			</g>
		</g>
		<g>
			<line class="st0" x1="146" y1="130.3" x2="146" y2="139.2"/>
		</g>
		<g>
			<line class="st0" x1="182.5" y1="147.9" x2="182.5" y2="156.8"/>
			<g>
				<line class="st0" x1="173.9" y1="147.9" x2="173.9" y2="156.8"/>
			</g>
		</g>
		<polyline class="st0" points="213.2,104.3 175.9,104.3 175.9,139.2 		"/>
		<path class="st0" d="M194.5,177.4c0-1,0-38.1,0-38.1h-36.6v-17.3h-19.8"/>
	</g>
	<g>
		<g>
			<line class="st0" x1="88.2" y1="42.5" x2="88.2" y2="51.4"/>
			<g>
				<line class="st0" x1="79.6" y1="42.5" x2="79.6" y2="51.4"/>
				<line class="st0" x1="96.8" y1="42.5" x2="96.8" y2="51.4"/>
			</g>
		</g>
		<g>
			<line class="st0" x1="58" y1="98" x2="58" y2="106.9"/>
			<g>
				<line class="st0" x1="49.4" y1="98" x2="49.4" y2="106.9"/>
			</g>
		</g>
		<g>
			<line class="st0" x1="37.7" y1="59.8" x2="37.7" y2="68.7"/>
		</g>
		<g>
			<line class="st0" x1="74.2" y1="77.4" x2="74.2" y2="86.3"/>
			<g>
				<line class="st0" x1="65.6" y1="77.4" x2="65.6" y2="86.3"/>
			</g>
		</g>
		<polyline class="st0" points="104.8,33.8 67.6,33.8 67.6,68.7 		"/>
		<path class="st0" d="M86.2,106.9c0-1,0-38.1,0-38.1H49.6V51.4H29.8"/>
	</g>
	<g>
		<g>
			<line class="st0" x1="164.7" y1="43.4" x2="164.7" y2="52.3"/>
			<g>
				<line class="st0" x1="173.3" y1="43.4" x2="173.3" y2="52.3"/>
				<line class="st0" x1="156.1" y1="43.4" x2="156.1" y2="52.3"/>
			</g>
		</g>
		<g>
			<line class="st0" x1="116.2" y1="50" x2="116.2" y2="58.9"/>
		</g>
		<g>
			<line class="st0" x1="132.4" y1="29.4" x2="132.4" y2="38.3"/>
			<g>
				<line class="st0" x1="123.8" y1="29.4" x2="123.8" y2="38.3"/>
			</g>
		</g>
		<polyline class="st0" points="144.4,34.6 185.3,34.6 185.3,69.6 		"/>
		<path class="st0" d="M144.4,58.9c0-1,0-38.1,0-38.1h-36.6V77"/>
	</g>
	<g>
		<g>
			<line class="st0" x1="94.1" y1="96.4" x2="94.1" y2="105.3"/>
			<g>
				<line class="st0" x1="102.6" y1="96.4" x2="102.6" y2="105.3"/>
			</g>
		</g>
		<g>
			<line class="st0" x1="94.1" y1="115.2" x2="94.1" y2="124.1"/>
			<g>
				<line class="st0" x1="102.6" y1="115.2" x2="102.6" y2="124.1"/>
			</g>
		</g>
		<g>
			<line class="st0" x1="147.9" y1="79.5" x2="147.9" y2="88.4"/>
			<g>
				<line class="st0" x1="156.5" y1="79.5" x2="156.5" y2="88.4"/>
			</g>
		</g>
		<g>
			<line class="st0" x1="147.9" y1="98.3" x2="147.9" y2="107.2"/>
			<g>
				<line class="st0" x1="156.5" y1="98.3" x2="156.5" y2="107.2"/>
			</g>
		</g>
		<line class="st0" x1="125" y1="115.2" x2="125" y2="124.1"/>
		<line class="st0" x1="125" y1="134" x2="125" y2="142.9"/>
		<polyline class="st0" points="163.7,69.6 135.5,69.6 135.5,142.9 		"/>
		<polyline class="st0" points="86.2,87.4 114.5,87.4 114.5,142.9 		"/>
		<line class="st0" x1="114.5" y1="106.2" x2="135.5" y2="106.2"/>
	</g>
</g>
</svg>
