<?xml version="1.0" encoding="utf-8"?>
<!-- Generator: Adobe Illustrator 19.0.0, SVG Export Plug-In . SVG Version: 6.00 Build 0)  -->
<svg version="1.1" id="Layer_1" xmlns="http://www.w3.org/2000/svg" xmlns:xlink="http://www.w3.org/1999/xlink" x="0px" y="0px"
	 viewBox="0 0 172.5 132" style="enable-background:new 0 0 172.5 132;" xml:space="preserve">
<style type="text/css">
	.st0{fill:none;stroke:#DE4B39;stroke-width:2;stroke-miterlimit:10;}
</style>
<g>
	<g>
		<g>
			<line class="st0" x1="146.7" y1="60.1" x2="146.7" y2="68.2"/>
			<g>
				<line class="st0" x1="139" y1="60.1" x2="139" y2="68.2"/>
				<line class="st0" x1="154.5" y1="60.1" x2="154.5" y2="68.2"/>
			</g>
		</g>
		<g>
			<line class="st0" x1="101.2" y1="75.8" x2="101.2" y2="83.8"/>
		</g>
		<g>
			<line class="st0" x1="134.1" y1="91.6" x2="134.1" y2="99.7"/>
			<g>
				<line class="st0" x1="126.4" y1="91.6" x2="126.4" y2="99.7"/>
			</g>
		</g>
		<polyline class="st0" points="161.8,52.3 128.1,52.3 128.1,83.8 		"/>
		<path class="st0" d="M145,118.2c0-0.9,0-34.4,0-34.4h-33.1V68.2H94"/>
	</g>
	<g>
		<g>
			<line class="st0" x1="26.4" y1="43.2" x2="26.4" y2="51.3"/>
			<g>
				<line class="st0" x1="34.2" y1="43.2" x2="34.2" y2="51.3"/>
			</g>
		</g>
		<g>
			<line class="st0" x1="26.4" y1="60.2" x2="26.4" y2="68.3"/>
			<g>
				<line class="st0" x1="34.2" y1="60.2" x2="34.2" y2="68.3"/>
			</g>
		</g>
		<g>
			<line class="st0" x1="75" y1="28" x2="75" y2="36.1"/>
			<g>
				<line class="st0" x1="82.7" y1="28" x2="82.7" y2="36.1"/>
			</g>
		</g>
		<g>
			<line class="st0" x1="75" y1="45" x2="75" y2="53.1"/>
			<g>
				<line class="st0" x1="82.7" y1="45" x2="82.7" y2="53.1"/>
			</g>
		</g>
		<line class="st0" x1="54.3" y1="60.2" x2="54.3" y2="68.3"/>
		<line class="st0" x1="54.3" y1="77.2" x2="54.3" y2="85.3"/>
		<polyline class="st0" points="89.3,19.1 63.8,19.1 63.8,85.3 		"/>
		<polyline class="st0" points="19.3,35.2 44.8,35.2 44.8,85.3 		"/>
		<line class="st0" x1="44.8" y1="52.2" x2="63.8" y2="52.2"/>
	</g>
</g>
</svg>
