<?xml version="1.0" encoding="utf-8"?>
<!-- Generator: Adobe Illustrator 21.1.0, SVG Export Plug-In . SVG Version: 6.00 Build 0)  -->
<svg version="1.1" id="Layer_1" xmlns="http://www.w3.org/2000/svg" xmlns:xlink="http://www.w3.org/1999/xlink" x="0px" y="0px"
	 viewBox="0 0 841.9 500" style="enable-background:new 0 0 841.9 500;" xml:space="preserve">
<style type="text/css">
	.st0{fill:none;stroke:#DE4B39;stroke-width:2;stroke-miterlimit:10;}
	.st1{fill:none;stroke:#FDC20F;stroke-width:2;stroke-miterlimit:10;}
	.st2{fill:none;stroke:#5A7FC0;stroke-width:2;stroke-miterlimit:10;}
	.st3{fill:#DE4B39;}
	.st4{fill:none;stroke:#02A05B;stroke-width:2;stroke-miterlimit:10;}
	.st5{fill:#02A05B;}
	.st6{fill:#FFFFFF;}
	.st7{fill:#5A7FC0;}
	.st8{fill:#FDC20F;}
	.st9{clip-path:url(#SVGID_2_);}
	.st10{clip-path:url(#SVGID_4_);}
	.st11{fill:none;stroke:#FDC20F;stroke-width:2;stroke-linecap:round;stroke-miterlimit:10;}
	.st12{clip-path:url(#SVGID_6_);}
	.st13{clip-path:url(#SVGID_8_);}
	.st14{clip-path:url(#SVGID_10_);}
	.st15{clip-path:url(#SVGID_12_);}
	.st16{clip-path:url(#SVGID_14_);}
	.st17{clip-path:url(#SVGID_16_);}
	.st18{clip-path:url(#SVGID_18_);}

	@keyframes wave {
	    from {
	      transform: translateX(0px)
	    }
	    to {
	      transform: translateX(21px);
	    }
	}

	@keyframes rotate {
	    from {
	      transform: rotate(0deg);
	    }
	    to {
	      transform: rotate(360deg);
	    }
	}

	@keyframes boat {
	    0% {
	      transform: rotate(-2deg) translateY(-3px);
	    }

			25% {
	      transform: rotate(0deg) translateY(0px);
	    }

	    50% {
	      transform: rotate(2deg) translateY(3px);
	    }

			75% {
	      transform: rotate(0deg) translateY(0px);
	    }

			100% {
	      transform: rotate(-2deg) translateY(-3px);
	    }
	}

	.wave * {
	  animation: wave 2s linear infinite;
	}

	.wave.slow *{
		animation-duration: 4s;
	}

	.sun {
		animation: rotate 15s linear infinite;
		transform-origin: center;
	}

	.sun.middle{
		animation-duration: 10s;
	}

	.sun.inside{
		animation-duration: 4s;
	}

	.boat {
		animation: boat 3s linear infinite;
		transform-origin: right;
	}

</style>
<g id="stadium">
	<g>
		<g>
			<line class="st0" x1="465.7" y1="226.9" x2="465.7" y2="231"/>
			<g>
				<line class="st0" x1="461.7" y1="226.9" x2="461.7" y2="231"/>
				<line class="st0" x1="469.7" y1="226.9" x2="469.7" y2="231"/>
			</g>
		</g>
		<g>
			<line class="st0" x1="442.1" y1="235" x2="442.1" y2="239.1"/>
		</g>
		<g>
			<line class="st0" x1="459.2" y1="243.2" x2="459.2" y2="247.4"/>
			<g>
				<line class="st0" x1="455.2" y1="243.2" x2="455.2" y2="247.4"/>
			</g>
		</g>
		<polyline class="st0" points="473.5,222.3 456.1,222.3 456.1,239.1 		"/>
		<path class="st0" d="M464.8,257c0-0.5,0-17.8,0-17.8h-17.1V231h-9.3"/>
	</g>
	<line class="st0" x1="511.2" y1="222.3" x2="289.5" y2="222.3"/>
	<g>
		<path class="st0" d="M473.3,222.3c0.9-2.9,1.8-5.8,2.7-8.7c1.7-5.5,3.6-11,5.2-16.5c0.8-2.8-5.2-3.6-7.4-4.1
			c-3.1-0.7-6.2-1.2-9.3-1.7c-4.7-0.7-9.4-1.3-14.2-1.8c-6.2-0.6-12.4-1-18.6-1.2c-3.9-0.1-7.8-0.2-11.8-0.2
			c-3.9,0-7.8,0.1-11.8,0.2c-6.2,0.2-12.4,0.6-18.6,1.2c-4.7,0.5-9.5,1-14.2,1.8c-3.1,0.5-6.2,1-9.3,1.7c-2.2,0.5-8.2,1.3-7.4,4.1
			c1.5,5.5,3.5,11,5.2,16.5c0.9,2.9,1.8,5.8,2.7,8.7"/>
		<path class="st0" d="M460.7,190.7c1.2-2.9,0,0,1.1-2.9c0.5-1.5-3.6-1.9-5.1-2.2c-2.1-0.4-4.2-0.6-6.3-0.9
			c-3.2-0.4-6.4-0.7-9.7-0.9c-4.2-0.3-8.5-0.5-12.7-0.6c-2.7-0.1-5.4-0.1-8.1-0.1s-5.4,0-8.1,0.1c-4.3,0.1-8.5,0.3-12.7,0.6
			c-3.2,0.2-6.5,0.5-9.7,0.9c-2.1,0.3-4.2,0.5-6.3,0.9c-1.5,0.3-5.6,0.7-5.1,2.2c1.1,2.9-0.1,0,1.1,2.9"/>
		<g>
			<path class="st0" d="M356.6,200.1c2.2-0.6,11.6-3.5,63.3-3.5"/>
			<path class="st0" d="M357.9,204.8c3.9-1,17.4-3.2,62-3.2"/>
			<path class="st0" d="M359,209.6c5.2-1.1,19.9-2.9,60.9-2.9"/>
			<path class="st0" d="M360.4,214.4c6.2-1.1,21.7-2.6,59.5-2.6"/>
			<path class="st0" d="M483.2,200.1c-2.2-0.6-11.6-3.5-63.3-3.5"/>
			<path class="st0" d="M482,204.8c-3.9-1-17.4-3.2-62-3.2"/>
			<path class="st0" d="M480.8,209.6c-5.2-1.1-19.9-2.9-60.9-2.9"/>
			<path class="st0" d="M479.4,214.4c-6.2-1.1-21.7-2.6-59.5-2.6"/>
		</g>
		<line class="st0" x1="356.3" y1="222.3" x2="483.8" y2="222.3"/>
		<line class="st0" x1="417.6" y1="188.1" x2="417.6" y2="222.3"/>
		<line class="st0" x1="390.2" y1="222.3" x2="387.1" y2="189.5"/>
		<line class="st0" x1="446.6" y1="222.3" x2="449.7" y2="189.5"/>
	</g>
	<g>
		<g>
			<polyline class="st0" points="316.2,222.1 316.2,197.3 307.5,192.1 298.8,197.3 298.8,222.1 			"/>
			<polyline class="st0" points="316.2,222.1 316.2,210 324.9,204.7 333.5,210 333.5,222.1 			"/>
			<g>
				<line class="st0" x1="307.5" y1="200.6" x2="307.5" y2="204.7"/>
				<g>
					<line class="st0" x1="303.5" y1="200.6" x2="303.5" y2="204.7"/>
					<line class="st0" x1="311.5" y1="200.6" x2="311.5" y2="204.7"/>
				</g>
			</g>
			<g>
				<line class="st0" x1="324.9" y1="217.9" x2="324.9" y2="222.1"/>
				<g>
					<line class="st0" x1="320.8" y1="217.9" x2="320.8" y2="222.1"/>
				</g>
			</g>
			<g>
				<line class="st0" x1="329.1" y1="196.4" x2="329.1" y2="200.6"/>
				<g>
					<line class="st0" x1="325.1" y1="196.4" x2="325.1" y2="200.6"/>
				</g>
			</g>
			<polyline class="st0" points="334.3,187.9 320.8,187.9 320.8,207.2 			"/>
		</g>
		<g>
			<line class="st0" x1="339.2" y1="206.3" x2="339.2" y2="222.3"/>
			<circle class="st0" cx="338.9" cy="204.1" r="7.7"/>
		</g>
	</g>
</g>
<g id="land_1_">
	<path class="st1" d="M669.8,263.5c0,0-137.8,0-221.5,0"/>
	<path id="land" class="st1" d="M145.3,223.5c39.5,0.1,68.4,25.3,94.3,51.9c15.4,15.8,36.5,24.2,58.2,27"/>
	<path class="st1" d="M500.3,302.3h15c44.3,0,75.7,16.9,108,31.9c25.9,12,60.3,18.2,93.3,17.9"/>
	<path class="st1" d="M387.5,263.5c-1.3,0-1.9,0-2,0c-44.3,0-75.7,29.3-108,55.3c-2,1.6-4.1,3.2-6.2,4.7"/>
	<path class="st1" d="M221.5,345.7c-12.2,2.9-24.8,4.3-37.2,4.1H74.6"/>
</g>
<g id="houses_1_">
	<g>
		<polyline class="st2" points="199.7,306.7 199.7,281.9 191.1,276.7 182.4,281.9 182.4,306.7 		"/>
		<polyline class="st2" points="199.7,306.7 199.7,294.6 208.4,289.4 217.1,294.6 217.1,306.7 		"/>
		<g>
			<line class="st2" x1="191.1" y1="285.2" x2="191.1" y2="289.4"/>
			<g>
				<line class="st2" x1="187.1" y1="285.2" x2="187.1" y2="289.4"/>
				<line class="st2" x1="195.1" y1="285.2" x2="195.1" y2="289.4"/>
			</g>
		</g>
		<g>
			<line class="st2" x1="208.4" y1="302.5" x2="208.4" y2="306.7"/>
			<g>
				<line class="st2" x1="204.4" y1="302.5" x2="204.4" y2="306.7"/>
			</g>
		</g>
		<g>
			<line class="st2" x1="212.7" y1="281" x2="212.7" y2="285.2"/>
			<g>
				<line class="st2" x1="208.7" y1="281" x2="208.7" y2="285.2"/>
			</g>
		</g>
		<polyline class="st2" points="217.8,272.5 204.4,272.5 204.4,291.8 		"/>
	</g>
	<g id="tree-6">
		<line class="st2" x1="222.8" y1="290.9" x2="222.8" y2="306.9"/>
		<circle class="st2" cx="222.5" cy="288.7" r="7.7"/>
	</g>
	<line class="st2" x1="177.7" y1="306.7" x2="231" y2="306.7"/>
	<g>
		<g>
			<line class="st0" x1="103.2" y1="339.6" x2="103.2" y2="279.2"/>
			<line class="st0" x1="87.1" y1="339.6" x2="87.1" y2="279.2"/>
			<line class="st0" x1="107.2" y1="303.2" x2="82.8" y2="303.2"/>
			<line class="st0" x1="162.9" y1="318.8" x2="82.8" y2="318.8"/>
			<line class="st0" x1="107.2" y1="296" x2="82.8" y2="296"/>
			<line class="st0" x1="107.2" y1="279.2" x2="82.8" y2="279.2"/>
			<path class="st0" d="M92.6,339.6V330c0-1.7,1.2-3.2,2.7-3.2l0,0c1.5,0,2.7,1.4,2.7,3.2v9.7"/>
			<path class="st0" d="M114.2,339.6v-8.7c0-3,6-5.5,8.6-5.5l0,0c2.6,0,8.6,2.5,8.6,5.5v8.7"/>
			<path class="st3" d="M95,306.3L95,306.3c-1.3,0-2.4,1.1-2.4,2.4v5.7h4.8v-5.7C97.4,307.4,96.3,306.3,95,306.3z"/>
			<path class="st3" d="M122.8,302.2L122.8,302.2c-1.3,0-2.4,1.1-2.4,2.4v5.7h4.8v-5.7C125.2,303.3,124.2,302.2,122.8,302.2z"/>
			<path class="st3" d="M95,284.5L95,284.5c-1.1,0-1.9,0.9-1.9,1.9v3.6h3.8v-3.6C96.9,285.4,96.1,284.5,95,284.5z"/>
			<path class="st0" d="M103.2,278.5c0-5.7-3.6-9-8-9s-8,3.3-8,9"/>
			<line class="st0" x1="95.1" y1="261.5" x2="95.1" y2="269.5"/>
			<line class="st0" x1="122.8" y1="285.6" x2="122.8" y2="293.6"/>
			<line class="st0" x1="158.8" y1="339.6" x2="158.8" y2="279.2"/>
			<line class="st0" x1="142.8" y1="339.6" x2="142.8" y2="279.2"/>
			<line class="st0" x1="162.9" y1="303.2" x2="138.4" y2="303.2"/>
			<line class="st0" x1="162.9" y1="296" x2="138.4" y2="296"/>
			<line class="st0" x1="162.9" y1="279.2" x2="138.4" y2="279.2"/>
			<path class="st0" d="M148.3,339.6V330c0-1.7,1.2-3.2,2.7-3.2l0,0c1.5,0,2.7,1.4,2.7,3.2v9.7"/>
			<path class="st3" d="M150.7,306.3L150.7,306.3c-1.3,0-2.4,1.1-2.4,2.4v5.7h4.8v-5.7C153.1,307.4,152,306.3,150.7,306.3z"/>
			<path class="st3" d="M150.7,284.5L150.7,284.5c-1.1,0-1.9,0.9-1.9,1.9v3.6h3.8v-3.6C152.6,285.4,151.7,284.5,150.7,284.5z"/>
			<path class="st0" d="M158.8,278.5c0-5.7-3.6-9-8-9s-8,3.3-8,9"/>
			<line class="st0" x1="150.8" y1="261.5" x2="150.8" y2="269.5"/>
			<path class="st0" d="M103.2,310.3"/>
			<path class="st0" d="M122.8,293.6l11.1,5.6c0,3.3-0.3,6.2,1.7,8.9c1.8,2.5,4.4,3.7,7.2,3.9"/>
			<path class="st0" d="M123.1,293.6l-11.1,5.6c0,3.3,0.3,6.2-1.7,8.9c-1.8,2.5-4.4,3.7-7.2,3.9"/>
		</g>
		<line class="st0" x1="82.8" y1="339.6" x2="162.9" y2="339.6"/>
	</g>
	<g>
		<polyline class="st0" points="482.9,303.9 482.9,279.1 491.6,273.9 500.3,279.1 500.3,303.9 		"/>
		<polyline class="st0" points="482.9,303.9 482.9,291.8 474.3,286.6 465.6,291.8 465.6,303.9 		"/>
		<g>
			<line class="st0" x1="491.6" y1="282.4" x2="491.6" y2="286.6"/>
			<g>
				<line class="st0" x1="495.6" y1="282.4" x2="495.6" y2="286.6"/>
				<line class="st0" x1="487.6" y1="282.4" x2="487.6" y2="286.6"/>
			</g>
		</g>
		<g>
			<line class="st0" x1="474.3" y1="299.7" x2="474.3" y2="303.9"/>
			<g>
				<line class="st0" x1="478.3" y1="299.7" x2="478.3" y2="303.9"/>
			</g>
		</g>
		<g>
			<line class="st0" x1="470" y1="278.2" x2="470" y2="282.4"/>
			<g>
				<line class="st0" x1="474" y1="278.2" x2="474" y2="282.4"/>
			</g>
		</g>
		<polyline class="st0" points="464.8,269.7 478.3,269.7 478.3,289 		"/>
	</g>
	<g>
		<g>
			<line class="st2" x1="366.8" y1="282.5" x2="366.8" y2="286.6"/>
			<g>
				<line class="st2" x1="370.8" y1="282.5" x2="370.8" y2="286.6"/>
				<line class="st2" x1="362.8" y1="282.5" x2="362.8" y2="286.6"/>
			</g>
		</g>
		<g>
			<line class="st2" x1="380.9" y1="308.4" x2="380.9" y2="312.6"/>
			<g>
				<line class="st2" x1="384.9" y1="308.4" x2="384.9" y2="312.6"/>
			</g>
		</g>
		<g>
			<line class="st2" x1="390.4" y1="290.6" x2="390.4" y2="294.7"/>
		</g>
		<g>
			<line class="st2" x1="373.3" y1="298.8" x2="373.3" y2="303"/>
			<g>
				<line class="st2" x1="377.4" y1="298.8" x2="377.4" y2="303"/>
			</g>
		</g>
		<polyline class="st2" points="359,278.4 376.4,278.4 376.4,294.7 		"/>
		<path class="st2" d="M367.7,312.6c0-0.5,0-17.8,0-17.8h17.1v-8.1h9.3"/>
	</g>
	<g>
		<g>
			<line class="st2" x1="432.8" y1="282.5" x2="432.8" y2="286.6"/>
			<g>
				<line class="st2" x1="428.8" y1="282.5" x2="428.8" y2="286.6"/>
				<line class="st2" x1="436.8" y1="282.5" x2="436.8" y2="286.6"/>
			</g>
		</g>
		<g>
			<line class="st2" x1="418.7" y1="308.4" x2="418.7" y2="312.6"/>
			<g>
				<line class="st2" x1="414.7" y1="308.4" x2="414.7" y2="312.6"/>
			</g>
		</g>
		<g>
			<line class="st2" x1="409.2" y1="290.6" x2="409.2" y2="294.7"/>
		</g>
		<g>
			<line class="st2" x1="426.3" y1="298.8" x2="426.3" y2="303"/>
			<g>
				<line class="st2" x1="422.2" y1="298.8" x2="422.2" y2="303"/>
			</g>
		</g>
		<polyline class="st2" points="440.6,278.4 423.2,278.4 423.2,294.7 		"/>
		<path class="st2" d="M431.9,312.6c0-0.5,0-17.8,0-17.8h-17.1v-8.1h-9.3"/>
	</g>
	<g>
		<g>
			<line class="st1" x1="635.6" y1="295" x2="635.6" y2="299.2"/>
			<g>
				<line class="st1" x1="631.6" y1="295" x2="631.6" y2="299.2"/>
				<line class="st1" x1="639.7" y1="295" x2="639.7" y2="299.2"/>
			</g>
		</g>
		<g>
			<line class="st1" x1="612" y1="303.1" x2="612" y2="307.3"/>
		</g>
		<g>
			<line class="st1" x1="629.1" y1="311.3" x2="629.1" y2="315.5"/>
			<g>
				<line class="st1" x1="625.1" y1="311.3" x2="625.1" y2="315.5"/>
			</g>
		</g>
		<polyline class="st1" points="643.4,290.9 626,290.9 626,307.3 		"/>
		<path class="st1" d="M634.7,325.1c0-0.5,0-17.8,0-17.8h-17.1v-8.1h-9.3"/>
	</g>
</g>
<g id="tree-5_1_">
	<line class="st2" x1="181.7" y1="258.5" x2="181.7" y2="270.2"/>
	<circle class="st2" cx="181.5" cy="255.3" r="7.7"/>
	<line class="st2" x1="177.8" y1="270.2" x2="185.2" y2="270.2"/>
</g>
<g id="tree-4">
	<line class="st2" x1="338.5" y1="300.3" x2="338.5" y2="311.9"/>
	<circle class="st2" cx="338.3" cy="297" r="7.7"/>
	<line class="st2" x1="334.6" y1="311.9" x2="342.1" y2="311.9"/>
</g>
<g id="tree-3">
	<line class="st4" x1="65.7" y1="302.4" x2="65.7" y2="314.1"/>
	<circle class="st4" cx="65.5" cy="299.2" r="7.7"/>
	<line class="st4" x1="61.8" y1="314.1" x2="69.3" y2="314.1"/>
</g>
<g id="building-2">
	<g>
		<line class="st1" x1="573.3" y1="286.2" x2="573.3" y2="290.4"/>
		<g>
			<line class="st1" x1="577.3" y1="286.2" x2="577.3" y2="290.4"/>
		</g>
	</g>
	<g>
		<line class="st1" x1="573.3" y1="295" x2="573.3" y2="299.2"/>
		<g>
			<line class="st1" x1="577.3" y1="295" x2="577.3" y2="299.2"/>
		</g>
	</g>
	<g>
		<line class="st1" x1="598.5" y1="278.4" x2="598.5" y2="282.5"/>
		<g>
			<line class="st1" x1="602.5" y1="278.4" x2="602.5" y2="282.5"/>
		</g>
	</g>
	<g>
		<line class="st1" x1="598.5" y1="287.2" x2="598.5" y2="291.3"/>
		<g>
			<line class="st1" x1="602.5" y1="287.2" x2="602.5" y2="291.3"/>
		</g>
	</g>
	<line class="st1" x1="587.7" y1="295" x2="587.7" y2="299.2"/>
	<line class="st1" x1="587.7" y1="303.8" x2="587.7" y2="308"/>
	<polyline class="st1" points="605.9,273.7 592.7,273.7 592.7,308 	"/>
	<polyline class="st1" points="569.6,282.1 582.8,282.1 582.8,308 	"/>
	<line class="st1" x1="582.8" y1="290.9" x2="592.7" y2="290.9"/>
</g>
<g id="buildings_1_">
	<g>
		<g>
			<line class="st1" x1="285.3" y1="242.5" x2="285.3" y2="246.7"/>
			<g>
				<line class="st1" x1="281.3" y1="242.5" x2="281.3" y2="246.7"/>
				<line class="st1" x1="289.3" y1="242.5" x2="289.3" y2="246.7"/>
			</g>
		</g>
		<g>
			<line class="st1" x1="271.2" y1="268.5" x2="271.2" y2="272.6"/>
			<g>
				<line class="st1" x1="267.1" y1="268.5" x2="267.1" y2="272.6"/>
			</g>
		</g>
		<g>
			<line class="st1" x1="261.7" y1="250.6" x2="261.7" y2="254.8"/>
		</g>
		<g>
			<line class="st1" x1="278.7" y1="258.8" x2="278.7" y2="263"/>
			<g>
				<line class="st1" x1="274.7" y1="258.8" x2="274.7" y2="263"/>
			</g>
		</g>
		<polyline class="st1" points="293.1,238.4 275.6,238.4 275.6,254.8 		"/>
		<path class="st1" d="M284.4,272.6c0-0.5,0-17.8,0-17.8h-17.1v-8.1H258"/>
	</g>
	<g>
		<g>
			<line class="st1" x1="234.6" y1="209.5" x2="234.6" y2="213.7"/>
			<g>
				<line class="st1" x1="230.6" y1="209.5" x2="230.6" y2="213.7"/>
				<line class="st1" x1="238.6" y1="209.5" x2="238.6" y2="213.7"/>
			</g>
		</g>
		<g>
			<line class="st1" x1="220.5" y1="235.5" x2="220.5" y2="239.6"/>
			<g>
				<line class="st1" x1="216.4" y1="235.5" x2="216.4" y2="239.6"/>
			</g>
		</g>
		<g>
			<line class="st1" x1="211" y1="217.6" x2="211" y2="221.8"/>
		</g>
		<g>
			<line class="st1" x1="228" y1="225.8" x2="228" y2="230"/>
			<g>
				<line class="st1" x1="224" y1="225.8" x2="224" y2="230"/>
			</g>
		</g>
		<polyline class="st1" points="242.4,205.4 225,205.4 225,221.8 		"/>
		<path class="st1" d="M233.7,239.6c0-0.5,0-17.8,0-17.8h-17.1v-8.1h-9.3"/>
	</g>
	<g>
		<g>
			<line class="st1" x1="270.4" y1="209.9" x2="270.4" y2="214.1"/>
			<g>
				<line class="st1" x1="274.4" y1="209.9" x2="274.4" y2="214.1"/>
				<line class="st1" x1="266.4" y1="209.9" x2="266.4" y2="214.1"/>
			</g>
		</g>
		<g>
			<line class="st1" x1="247.7" y1="213" x2="247.7" y2="217.2"/>
		</g>
		<g>
			<line class="st1" x1="255.3" y1="203.4" x2="255.3" y2="207.6"/>
			<g>
				<line class="st1" x1="251.3" y1="203.4" x2="251.3" y2="207.6"/>
			</g>
		</g>
		<polyline class="st1" points="260.9,205.8 280.1,205.8 280.1,222.2 		"/>
		<path class="st1" d="M260.9,217.2c0-0.5,0-17.8,0-17.8h-17.1v26.3"/>
	</g>
	<g>
		<g>
			<line class="st1" x1="237.3" y1="234.7" x2="237.3" y2="238.9"/>
			<g>
				<line class="st1" x1="241.4" y1="234.7" x2="241.4" y2="238.9"/>
			</g>
		</g>
		<g>
			<line class="st1" x1="237.3" y1="243.5" x2="237.3" y2="247.7"/>
			<g>
				<line class="st1" x1="241.4" y1="243.5" x2="241.4" y2="247.7"/>
			</g>
		</g>
		<g>
			<line class="st1" x1="262.5" y1="226.8" x2="262.5" y2="231"/>
			<g>
				<line class="st1" x1="266.5" y1="226.8" x2="266.5" y2="231"/>
			</g>
		</g>
		<g>
			<line class="st1" x1="262.5" y1="235.6" x2="262.5" y2="239.8"/>
			<g>
				<line class="st1" x1="266.5" y1="235.6" x2="266.5" y2="239.8"/>
			</g>
		</g>
		<line class="st1" x1="251.8" y1="243.5" x2="251.8" y2="247.7"/>
		<line class="st1" x1="251.8" y1="252.3" x2="251.8" y2="256.5"/>
		<polyline class="st1" points="269.9,222.2 256.7,222.2 256.7,256.5 		"/>
		<polyline class="st1" points="233.7,230.5 246.9,230.5 246.9,256.5 		"/>
		<line class="st1" x1="246.9" y1="239.3" x2="256.7" y2="239.3"/>
	</g>
</g>
<g id="port">
	<g>
		<polyline class="st1" points="358.6,349.5 358.6,333.4 349,324.3 339.4,333.4 286.3,333.4 		"/>
		<polyline class="st1" points="286.3,349.5 286.3,333.4 295.9,323.8 349,323.8 		"/>
		<path class="st1" d="M345.6,349.5v-6.1c0-1.7,1.4-3.2,3.2-3.2l0,0c1.7,0,3.2,1.4,3.2,3.2v6.1"/>
		<line class="st1" x1="298" y1="339" x2="298" y2="344.7"/>
		<line class="st1" x1="307.2" y1="339" x2="307.2" y2="344.7"/>
		<line class="st1" x1="316.7" y1="339" x2="316.7" y2="344.7"/>
		<line class="st1" x1="325.9" y1="339" x2="325.9" y2="344.7"/>
		<line class="st1" x1="335.2" y1="339" x2="335.2" y2="344.7"/>
		<polyline class="st1" points="197,349.5 365.6,349.5 365.6,365.5 		"/>
	</g>
	<g>
		<polyline class="st1" points="289.9,329.8 284.1,324.3 274.5,333.4 221.4,333.4 		"/>
		<polyline class="st1" points="221.4,349.5 221.4,333.4 231,323.8 284.1,323.8 		"/>
		<line class="st1" x1="233.1" y1="339" x2="233.1" y2="344.7"/>
		<line class="st1" x1="242.2" y1="339" x2="242.2" y2="344.7"/>
		<line class="st1" x1="251.8" y1="339" x2="251.8" y2="344.7"/>
		<line class="st1" x1="261" y1="339" x2="261" y2="344.7"/>
		<line class="st1" x1="270.3" y1="339" x2="270.3" y2="344.7"/>
	</g>
</g>
<g id="wind-5">
	<line class="st0" x1="522.2" y1="324.6" x2="564.9" y2="324.6"/>
	<line class="st0" x1="540.5" y1="331.4" x2="577.3" y2="331.4"/>
	<line class="st0" x1="509.4" y1="324.6" x2="516" y2="324.6"/>
</g>
<g id="wind-4">
	<line class="st4" x1="649.6" y1="318" x2="692.3" y2="318"/>
	<line class="st4" x1="667.9" y1="327" x2="704.7" y2="327"/>
	<line class="st4" x1="701.5" y1="318" x2="708.1" y2="318"/>
</g>
<g id="wind-3">
	<line class="st0" x1="201.7" y1="325.9" x2="174.9" y2="325.9"/>
	<line class="st0" x1="210.2" y1="325.9" x2="205.4" y2="325.9"/>
</g>
<g id="wind-2">
	<line class="st2" x1="95.6" y1="238.7" x2="132.4" y2="238.7"/>
	<line class="st2" x1="113.3" y1="245.5" x2="150.1" y2="245.5"/>
	<line class="st2" x1="84" y1="238.7" x2="90.6" y2="238.7"/>
</g>
<g id="wind">
	<line class="st4" x1="300.1" y1="264.7" x2="314.9" y2="264.7"/>
	<line class="st4" x1="307.3" y1="271.5" x2="322" y2="271.5"/>
	<line class="st4" x1="294.1" y1="264.7" x2="296.8" y2="264.7"/>
</g>
<g id="market">
	<g>
		<polyline class="st4" points="491.9,326.2 491.9,316.3 458.7,300.8 425.5,316.3 425.5,325.6 		"/>
		<rect x="420.1" y="325.9" class="st4" width="77" height="4.2"/>
		<polyline class="st4" points="486.1,325.9 486.1,318.5 458.7,305.7 431.3,318.5 431.3,325.9 		"/>
		<g>
			<rect x="425.5" y="330.1" class="st4" width="22.1" height="13.9"/>
			<rect x="447.6" y="330.1" class="st4" width="22.1" height="13.9"/>
			<rect x="469.8" y="330.1" class="st4" width="22.1" height="13.9"/>
		</g>
		<g>
			<line class="st4" x1="437.2" y1="322.8" x2="437.2" y2="320.1"/>
			<line class="st4" x1="442" y1="322.8" x2="442" y2="320.1"/>
			<line class="st4" x1="446.8" y1="322.8" x2="446.8" y2="320.1"/>
			<line class="st4" x1="451.5" y1="322.8" x2="451.5" y2="320.1"/>
			<line class="st4" x1="456.3" y1="322.8" x2="456.3" y2="320.1"/>
			<line class="st4" x1="461.1" y1="322.8" x2="461.1" y2="320.1"/>
			<line class="st4" x1="465.8" y1="322.8" x2="465.8" y2="320.1"/>
			<line class="st4" x1="470.6" y1="322.8" x2="470.6" y2="320.1"/>
			<line class="st4" x1="475.4" y1="322.8" x2="475.4" y2="320.1"/>
			<line class="st4" x1="480.2" y1="322.8" x2="480.2" y2="320.1"/>
		</g>
		<line class="st4" x1="436.5" y1="344" x2="436.5" y2="337"/>
		<line class="st4" x1="458.5" y1="344" x2="458.5" y2="337"/>
		<line class="st4" x1="480.8" y1="344" x2="480.8" y2="337"/>
		<line class="st4" x1="431.3" y1="318.5" x2="425.5" y2="318.5"/>
		<line class="st4" x1="486.1" y1="318.5" x2="491.9" y2="318.5"/>
	</g>
	<line class="st4" x1="417.7" y1="344" x2="499.3" y2="344"/>
</g>
<line id="line" class="st2" x1="724.9" y1="352.1" x2="731.8" y2="352.1"/>
<g id="fort_1_">
	<g>
		<g>
			<g>
				<line class="st4" x1="743.9" y1="323.9" x2="743.9" y2="328.1"/>
				<g>
					<g>
						<line class="st4" x1="766.6" y1="313.1" x2="766.6" y2="314.9"/>
						<g>
							<line class="st4" x1="756" y1="313.1" x2="756" y2="314.9"/>
							<line class="st4" x1="777.2" y1="313.1" x2="777.2" y2="314.9"/>
						</g>
					</g>
					<g>
						<line class="st4" x1="744.1" y1="313.1" x2="744.1" y2="314.9"/>
						<line class="st4" x1="789.1" y1="313.1" x2="789.1" y2="314.9"/>
					</g>
				</g>
				<line class="st4" x1="789.3" y1="323.9" x2="789.3" y2="328.1"/>
				<rect x="722.7" y="310.3" class="st4" width="88" height="7.1"/>
				<polyline class="st4" points="771,305.9 804.2,305.9 804.2,310.3 744,310.3 744,305.9 762.3,305.9 				"/>
				<polygon class="st4" points="813.1,335.2 720.1,335.2 726,317.4 807.4,317.4 				"/>
				<rect x="762.3" y="290.8" class="st4" width="8.8" height="19.5"/>
				<rect x="762.3" y="297.3" class="st4" width="8.8" height="6.5"/>
				<path class="st4" d="M766.6,275.1L766.6,275.1c-2.4,0-4.4,2-4.4,4.4v5.5h8.8v-5.5C771,277,769.1,275.1,766.6,275.1z"/>
				<rect x="758.8" y="285" class="st4" width="15.7" height="5.8"/>
				<path class="st4" d="M766.6,323.9L766.6,323.9c-2.1,0-3.7,1.7-3.7,3.7v7.5h7.4v-7.5C770.3,325.6,768.7,323.9,766.6,323.9z"/>
			</g>
		</g>
		<line class="st4" x1="710.4" y1="335.2" x2="822.9" y2="335.2"/>
	</g>
	<line class="st4" x1="762.3" y1="279.4" x2="771" y2="279.4"/>
</g>
<g id="church">
	<path class="st5" d="M110,161.7L110,161.7c1.2,0,2.1,0.9,2.1,2v5H108v-5C108,162.6,108.9,161.7,110,161.7z"/>
	<line class="st4" x1="110" y1="142.9" x2="110" y2="154.2"/>
	<path class="st4" d="M110,154.2l-9.7,4.8c0,2.9,0.2,5.4-1.4,7.8c-1.5,2.2-3.9,3.2-6.2,3.4"/>
	<path class="st4" d="M109.8,154.2l9.7,4.8c0,2.9-0.2,5.4,1.4,7.8c1.5,2.2,3.9,3.2,6.2,3.4"/>
	<g>
		<g>
			<polyline class="st4" points="194.6,213.7 194.6,197.6 185.1,188.5 175.5,197.6 144.1,197.6 			"/>
			<polyline class="st4" points="144.1,213.7 144.1,197.6 153.7,188 185.1,188 			"/>
			<path class="st4" d="M181.7,213.7v-6.1c0-1.7,1.4-3.2,3.2-3.2l0,0c1.7,0,3.2,1.4,3.2,3.2v6.1"/>
			<line class="st4" x1="152.4" y1="203.2" x2="152.4" y2="208.9"/>
			<line class="st4" x1="161.6" y1="203.2" x2="161.6" y2="208.9"/>
			<line class="st4" x1="171.2" y1="203.2" x2="171.2" y2="208.9"/>
		</g>
	</g>
	<g>
		<g>
			<polyline class="st4" points="148,193.7 142.5,188.5 132.9,197.6 101.5,197.6 			"/>
			<polyline class="st4" points="101.5,213.7 101.5,197.6 111.1,188 142.5,188 			"/>
			<line class="st4" x1="109.8" y1="203.2" x2="109.8" y2="208.9"/>
			<line class="st4" x1="119.1" y1="203.2" x2="119.1" y2="208.9"/>
			<line class="st4" x1="128.7" y1="203.2" x2="128.7" y2="208.9"/>
		</g>
	</g>
	<rect x="76.3" y="139.8" class="st4" width="16.5" height="52.1"/>
	<line class="st4" x1="96.5" y1="155.4" x2="72.5" y2="155.4"/>
	<line class="st4" x1="96.5" y1="162" x2="72.5" y2="162"/>
	<rect x="82.2" y="183.6" class="st4" width="4.5" height="8.3"/>
	<path class="st5" d="M83.9,166.3L83.9,166.3c1.2,0,2.2,1,2.2,2.2v4.1h-4.5v-4.1C81.6,167.3,82.6,166.3,83.9,166.3z"/>
	<path class="st5" d="M83.9,145.6L83.9,145.6c0.8,0,1.5,0.7,1.5,1.5v2.9h-3v-2.9C82.4,146.3,83,145.6,83.9,145.6z"/>
	<polyline class="st4" points="76.3,139.8 84.5,109.4 92.7,139.8 	"/>
	<line class="st4" x1="92.7" y1="174.4" x2="126.8" y2="174.4"/>
	<path class="st4" d="M113.2,188v-4.9c0-1.7-1.4-3.2-3.2-3.2l0,0c-1.7,0-3.2,1.4-3.2,3.2v9.3"/>
	<line class="st4" x1="114" y1="147.2" x2="106.1" y2="147.2"/>
	<g>
		<g>
			<polyline class="st4" points="177.3,187.3 177.3,156 167.7,146.9 158.2,156 126.8,156 			"/>
			<polyline class="st4" points="126.8,187.3 126.8,156 136.4,146.4 167.7,146.4 			"/>
			<line class="st4" x1="135.1" y1="161.6" x2="135.1" y2="167.3"/>
			<line class="st4" x1="144.3" y1="161.6" x2="144.3" y2="167.3"/>
			<line class="st4" x1="153.9" y1="161.6" x2="153.9" y2="167.3"/>
			<line class="st4" x1="135.1" y1="173" x2="135.1" y2="178.7"/>
			<line class="st4" x1="144.3" y1="173" x2="144.3" y2="178.7"/>
			<line class="st4" x1="153.9" y1="173" x2="153.9" y2="178.7"/>
		</g>
	</g>
	<line class="st4" x1="201.7" y1="213.7" x2="95.4" y2="213.7"/>
	<line class="st4" x1="69.7" y1="192.5" x2="106.9" y2="192.5"/>
</g>
<g id="sun">
	<circle class="st1 sun outside" cx="802.2" cy="242.2" r="19.7"/>
	<g class="sun middle">
		<path class="st1" d="M830.6,232.5c1.1,3.1,1.7,6.6,1.7,10.1c0,14.4-10,26.3-23.4,29.4"/>
		<path class="st1" d="M786,217.2c4.7-2.9,10.2-4.7,16.2-4.7c12,0,22.5,7.1,27.3,17.3"/>
		<path class="st1" d="M780.6,221.5c0.8-0.8,1.6-1.5,2.5-2.2"/>
		<path class="st1" d="M790.3,270.3c-10.7-4.7-18.2-15.3-18.2-27.7c0-6.9,2.3-13.3,6.3-18.4"/>
		<path class="st1" d="M805.3,271.9c-1,0.1-2.1,0.2-3.1,0.2c-2.4,0-4.8-0.3-7.1-0.8"/>
	</g>
	<g class="sun inside">
		<path class="st1" d="M777.3,242.2c0-13.8,11.2-24.9,24.9-24.9c3.8,0,7.4,0.9,10.7,2.4"/>
		<path class="st1" d="M779,251.4c-0.5-1.3-0.9-2.7-1.2-4.1"/>
		<path class="st1" d="M816.6,221.9c6.4,4.5,10.5,11.9,10.5,20.3c0,13.8-11.2,24.9-24.9,24.9c-8.6,0-16.2-4.4-20.7-11"/>
	</g>
</g>
<g id="clouds">
	<g>
		<path class="st2" d="M736.5,196.6H758c2,0,3.6-1.6,3.6-3.6s-1.6-3.6-3.6-3.6c-0.4,0-0.8,0.1-1.1,0.2c0.1-0.4,0.2-0.9,0.2-1.4
			c0-2.9-2.4-5.3-5.3-5.3c-1.5,0-2.9,0.6-3.9,1.7c-0.5-4-3.8-7-7.9-7c-4.2,0-7.7,3.3-7.9,7.5c-0.8-0.8-2-1.4-3.2-1.4
			c-2.2,0-4.1,1.6-4.4,3.7c-0.6-0.6-1.5-1-2.5-1c-0.6,0-1.1,0.1-1.6,0.4c0-0.3,0.1-0.6,0.1-0.9c0-3-2.5-5.5-5.5-5.5
			c-1.8,0-3.4,0.9-4.4,2.2c-0.7-1.9-2.5-3.3-4.7-3.3c-2.8,0-5,2.2-5,5c0,0.4,0.1,0.8,0.1,1.2c-0.3-0.1-0.5-0.1-0.8-0.1
			c-2,0-3.6,1.6-3.6,3.6s1.6,3.6,3.6,3.6h-11.5"/>
		<path class="st2" d="M746.7,195.3"/>
		<line class="st2" x1="737.2" y1="205" x2="723" y2="205"/>
		<line class="st2" x1="721.1" y1="205" x2="719" y2="205"/>
		<polyline class="st2" points="716.5,205 716,205 711.1,205 		"/>
	</g>
	<line class="st2" x1="794.5" y1="188.9" x2="780.3" y2="188.9"/>
	<line class="st2" x1="778.4" y1="188.9" x2="776.2" y2="188.9"/>
	<polyline class="st2" points="774.2,188.9 773.7,188.9 768.8,188.9 	"/>
</g>
<g id="buildings">
	<g>
		<polyline class="st4" points="545.9,254.4 545.9,191.8 596.7,191.8 596.7,254.4 		"/>
		<line class="st4" x1="541.1" y1="202.7" x2="602.7" y2="202.7"/>
		<line class="st4" x1="541.1" y1="254.4" x2="602.7" y2="254.4"/>
		<line class="st4" x1="555.2" y1="217.5" x2="555.2" y2="254.4"/>
		<line class="st4" x1="555.2" y1="207.7" x2="555.2" y2="213.3"/>
		<line class="st4" x1="555.2" y1="195.9" x2="555.2" y2="199.4"/>
		<line class="st4" x1="563" y1="217.5" x2="563" y2="254.4"/>
		<line class="st4" x1="563" y1="207.7" x2="563" y2="213.3"/>
		<line class="st4" x1="563" y1="195.9" x2="563" y2="199.4"/>
		<line class="st4" x1="571.3" y1="217.5" x2="571.3" y2="254.4"/>
		<line class="st4" x1="571.3" y1="207.7" x2="571.3" y2="213.3"/>
		<line class="st4" x1="571.3" y1="195.9" x2="571.3" y2="199.4"/>
		<line class="st4" x1="587.7" y1="217.5" x2="587.7" y2="254.4"/>
		<line class="st4" x1="587.7" y1="207.7" x2="587.7" y2="213.3"/>
		<line class="st4" x1="587.7" y1="195.9" x2="587.7" y2="199.4"/>
		<line class="st4" x1="579.6" y1="217.5" x2="579.6" y2="254.4"/>
		<line class="st4" x1="579.6" y1="207.7" x2="579.6" y2="213.3"/>
		<line class="st4" x1="579.6" y1="195.9" x2="579.6" y2="199.4"/>
	</g>
	<g>
		<polyline class="st4" points="511.2,254.4 511.2,95.4 545.8,95.4 545.8,254.4 		"/>
		<rect x="515.4" y="90" class="st4" width="26.2" height="5.4"/>
		<g>
			<line class="st4" x1="520.3" y1="108.4" x2="520.3" y2="245.9"/>
			<line class="st4" x1="528.8" y1="108.4" x2="528.8" y2="245.9"/>
			<line class="st4" x1="536.7" y1="108.4" x2="536.7" y2="245.9"/>
		</g>
		<line class="st4" x1="528.8" y1="90" x2="528.8" y2="80.2"/>
		<line class="st4" x1="488.9" y1="254.4" x2="560" y2="254.4"/>
		<line class="st4" x1="497.9" y1="212.6" x2="497.9" y2="228.6"/>
		<circle class="st4" cx="497.6" cy="210.4" r="7.7"/>
	</g>
	<g>
		<line class="st4" x1="602.7" y1="254.4" x2="669.7" y2="254.4"/>
		<polyline class="st4" points="609.2,254.2 609.2,127.8 663.3,127.8 663.3,254.2 		"/>
		<rect x="614" y="122.2" class="st4" width="44.5" height="5.6"/>
		<line class="st4" x1="609.2" y1="136.8" x2="663.3" y2="136.8"/>
		<line class="st4" x1="614.9" y1="148.2" x2="657.5" y2="148.2"/>
		<line class="st4" x1="614.9" y1="155.9" x2="657.5" y2="155.9"/>
		<line class="st4" x1="614.9" y1="163.1" x2="657.5" y2="163.1"/>
		<line class="st4" x1="614.9" y1="170.7" x2="657.5" y2="170.7"/>
		<line class="st4" x1="614.9" y1="177.4" x2="657.5" y2="177.4"/>
		<line class="st4" x1="614.9" y1="185.1" x2="657.5" y2="185.1"/>
		<line class="st4" x1="614.9" y1="192.3" x2="657.5" y2="192.3"/>
		<line class="st4" x1="614.9" y1="199.9" x2="657.5" y2="199.9"/>
		<line class="st4" x1="614.9" y1="206.4" x2="657.5" y2="206.4"/>
		<line class="st4" x1="614.9" y1="214.1" x2="657.5" y2="214.1"/>
		<line class="st4" x1="614.9" y1="221.3" x2="657.5" y2="221.3"/>
		<line class="st4" x1="614.9" y1="228.9" x2="657.5" y2="228.9"/>
		<line class="st4" x1="614.9" y1="235.6" x2="657.5" y2="235.6"/>
		<line class="st4" x1="614.9" y1="243.3" x2="657.5" y2="243.3"/>
		<line class="st4" x1="625.9" y1="136.8" x2="625.9" y2="254.2"/>
		<line class="st4" x1="646.3" y1="136.8" x2="646.3" y2="254.2"/>
	</g>
</g>
<g id="houses">
	<g>
		<g>
			<line class="st0" x1="719.1" y1="286.9" x2="719.1" y2="291.1"/>
			<g>
				<line class="st0" x1="723.1" y1="286.9" x2="723.1" y2="291.1"/>
				<line class="st0" x1="715.1" y1="286.9" x2="715.1" y2="291.1"/>
			</g>
		</g>
		<g>
			<line class="st0" x1="696.4" y1="290" x2="696.4" y2="294.2"/>
		</g>
		<g>
			<line class="st0" x1="704" y1="280.4" x2="704" y2="284.6"/>
			<g>
				<line class="st0" x1="700" y1="280.4" x2="700" y2="284.6"/>
			</g>
		</g>
		<polyline class="st0" points="709.6,282.9 728.8,282.9 728.8,299.2 		"/>
		<path class="st0" d="M709.6,294.2c0-0.5,0-17.8,0-17.8h-17.1v26.3"/>
	</g>
	<g>
		<g>
			<line class="st0" x1="720.2" y1="244" x2="720.2" y2="248.1"/>
			<g>
				<line class="st0" x1="725.6" y1="244" x2="725.6" y2="248.1"/>
			</g>
		</g>
		<g>
			<line class="st0" x1="725.6" y1="265.5" x2="725.6" y2="269.7"/>
			<g>
				<line class="st0" x1="731" y1="265.5" x2="731" y2="269.7"/>
			</g>
		</g>
		<line class="st0" x1="747.8" y1="254.8" x2="747.8" y2="259"/>
		<line class="st0" x1="714.8" y1="243.9" x2="714.8" y2="248.1"/>
		<polyline class="st0" points="730.7,259 730.7,237.7 708.8,237.7 693,253.5 665.2,281.3 		"/>
		<polyline class="st0" points="670.5,276 670.5,237.7 692.7,237.7 692.7,253.5 		"/>
		<polyline class="st0" points="753.3,248.3 741.7,248.3 741.7,259.5 719.7,259.5 719.7,281.3 		"/>
		<line class="st0" x1="670.5" y1="254.3" x2="693" y2="254.3"/>
		<line class="st0" x1="670.5" y1="259.5" x2="687" y2="259.5"/>
		<line class="st0" x1="670.5" y1="264.8" x2="681.7" y2="264.8"/>
		<line class="st0" x1="687" y1="237.7" x2="687" y2="254.3"/>
	</g>
</g>
<g id="tree-1">
	<g>
		<g>
			<line class="st2" x1="525.4" y1="282.5" x2="525.4" y2="294.1"/>
			<circle class="st2" cx="525.2" cy="279.3" r="7.7"/>
			<line class="st2" x1="521.5" y1="294.1" x2="529.3" y2="294.1"/>
		</g>
	</g>
	<g>
		<g>
			<line class="st2" x1="548.4" y1="282.5" x2="548.4" y2="294.1"/>
			<circle class="st2" cx="548.2" cy="279.3" r="7.7"/>
			<line class="st2" x1="544.4" y1="294.1" x2="552.2" y2="294.1"/>
		</g>
	</g>
</g>
<g id="fort">
	<line class="st0" x1="375.9" y1="419.5" x2="395.7" y2="419.5"/>
	<line class="st0" x1="409.6" y1="412" x2="409.6" y2="416.3"/>
	<line class="st0" x1="423.3" y1="413" x2="423.3" y2="417.3"/>
	<line class="st0" x1="454.4" y1="413" x2="454.4" y2="417.3"/>
	<line class="st0" x1="471.4" y1="411.6" x2="471.4" y2="415.9"/>
	<line class="st0" x1="437.6" y1="413.4" x2="437.6" y2="417.7"/>
	<path class="st0" d="M395.7,409.8h1.1c2.4,0,4.4,2.5,4.4,5.5v5.2"/>
	<path class="st0" d="M462.4,400.6c17.1,0.9,17.1,2.7,17.1,2.7v21.6"/>
	<path class="st0" d="M395.7,424.9v-21.6c0,0,0-1.8,17.7-2.7"/>
	<path class="st0" d="M395.7,403.3c0,0,0,3.7,41.9,3.7c41.7,0,41.9-3.7,41.9-3.7"/>
	<g>
		<path class="st0" d="M413.3,405.2v-4.4c0,0,0-1.9,24.3-1.9s24.3,1.9,24.3,1.9v4.4"/>
		<path class="st0" d="M413.3,400.7c0,0,0,2.2,24.3,2.2c24.2,0,24.3-2.2,24.3-2.2"/>
	</g>
	<path class="st0" d="M395.7,419.5c0,0,0,3.7,41.9,3.7c41.7,0,41.9-3.7,41.9-3.7"/>
</g>
<g id="elevator">
	<polyline class="st2" points="405.5,252.3 405.5,242.2 394.3,242.2 394.3,252.3 	"/>
	<polyline class="st2" points="394.3,263.4 394.3,322.3 405.5,322.3 405.5,263.4 	"/>
	<polygon class="st2" points="412.3,252.3 387.5,252.3 387.5,263.5 412.3,263.5 412.3,257.9 	"/>
	<polygon class="st2" points="448.1,252.3 437.7,252.3 437.7,263.5 448.1,263.5 448.1,257.9 	"/>
	<polygon class="st2" points="412.3,255.4 437.7,255.4 437.7,260.8 412.3,260.8 412.3,258.1 	"/>
	<line class="st2" x1="399.9" y1="242.2" x2="399.9" y2="234.9"/>
	<g>
		<g>
			<line class="st2" x1="398" y1="272.2" x2="398" y2="268.1"/>
			<line class="st2" x1="401.8" y1="272.2" x2="401.8" y2="268.1"/>
		</g>
		<g>
			<line class="st2" x1="398" y1="279.8" x2="398" y2="275.7"/>
			<line class="st2" x1="401.8" y1="279.8" x2="401.8" y2="275.7"/>
		</g>
		<g>
			<line class="st2" x1="398" y1="287.8" x2="398" y2="283.7"/>
			<line class="st2" x1="401.8" y1="287.8" x2="401.8" y2="283.7"/>
		</g>
		<g>
			<line class="st2" x1="398" y1="295.5" x2="398" y2="291.4"/>
			<line class="st2" x1="401.8" y1="295.5" x2="401.8" y2="291.4"/>
		</g>
		<g>
			<line class="st2" x1="398" y1="302.7" x2="398" y2="298.6"/>
			<line class="st2" x1="401.8" y1="302.7" x2="401.8" y2="298.6"/>
		</g>
		<g>
			<line class="st2" x1="398" y1="310.3" x2="398" y2="306.2"/>
			<line class="st2" x1="401.8" y1="310.3" x2="401.8" y2="306.2"/>
		</g>
	</g>
	<line class="st2" x1="389.6" y1="322.3" x2="410.2" y2="322.3"/>
</g>
<g id="cloud-1">
	<path class="st2" d="M307.7,168.7c0.3-2.1-1.1-4.1-3.2-4.5c-1.1-0.2-2.2,0.1-3,0.8c-0.3-1.9-1.5-3.6-3.4-4.4
		c-2.9-1.2-6.2,0.1-7.5,3c-0.4,1-0.5,2-0.4,3c-0.5-0.4-1.1-0.7-1.8-0.8c-2.1-0.3-4.1,1.1-4.5,3.2c-0.1,0.4-0.1,0.7,0,1
		c-0.5-0.3-1.1-0.5-1.7-0.5c-1.7,0-3.1,1.3-3.3,2.9c-0.6-0.6-1.4-1-2.4-1c-1.8,0-3.3,1.5-3.3,3.3s1.5,3.3,3.3,3.3h-8.7"/>
	<path class="st2" d="M285.5,174.7L285.5,174.7"/>
	<line class="st2" x1="301.7" y1="177" x2="313.3" y2="177"/>
	<line class="st2" x1="314.1" y1="177" x2="315.8" y2="177"/>
	<polyline class="st2" points="318.2,177 318.6,177 322.6,177 	"/>
	<line class="st2" x1="299.2" y1="182.6" x2="263.3" y2="182.6"/>
	<line class="st2" x1="254.9" y1="182.6" x2="251" y2="182.6"/>
	<line class="st2" x1="262.1" y1="182.6" x2="258.2" y2="182.6"/>
</g>
<g id="cloud-2">
	<line class="st2" x1="584.8" y1="176.4" x2="566" y2="176.4"/>
	<line class="st2" x1="564.7" y1="176.4" x2="561.8" y2="176.4"/>
	<line class="st2" x1="559.6" y1="176.4" x2="553.5" y2="176.4"/>
	<path class="st2" d="M586.6,176.4h12c2.3,0,4.2-1.9,4.2-4.2s-1.9-4.2-4.2-4.2c-1.1,0-2.2,0.5-2.9,1.2c-0.1-2.7-2.3-4.9-5-4.9
		c-0.2,0-0.4,0-0.7,0c-0.3-3.7-3.4-6.6-7.2-6.6c-4,0-7.3,3.3-7.3,7.3h-9.2"/>
	<path class="st2" d="M590.6,174.4"/>
</g>
<g>
	<path class="st6" d="M260.9,60.5c0,4.1-1.2,7.4-3.6,9.8c-2.7,2.9-6.3,4.3-10.8,4.3c-4.3,0-7.9-1.5-10.8-4.4
		c-2.9-2.9-4.4-6.6-4.4-10.9s1.5-7.9,4.4-10.9c2.9-2.9,6.5-4.4,10.8-4.4c2.2,0,4.2,0.4,6.1,1.1c1.9,0.8,3.5,1.8,4.7,3.2l-2.7,2.7
		c-0.9-1.1-2.1-1.9-3.5-2.6c-1.4-0.6-3-0.9-4.6-0.9c-3.2,0-5.9,1.1-8.1,3.3c-2.2,2.2-3.3,5-3.3,8.4s1.1,6.2,3.3,8.4
		c2.2,2.2,4.9,3.3,8.1,3.3c2.9,0,5.3-0.8,7.3-2.5c1.9-1.6,3.1-3.9,3.4-6.8h-10.6v-3.5h14.2C260.9,59,260.9,59.8,260.9,60.5z"/>
	<path class="st6" d="M262.8,73.9V44.7h9c4.5,0,8.1,1.4,10.8,4.1c2.7,2.7,4.1,6.2,4.1,10.6s-1.4,7.9-4.1,10.6s-6.3,4-10.8,4
		L262.8,73.9L262.8,73.9z M266.6,48.3v22.1h5.2c3.4,0,6.1-1,8.1-2.9s2.9-4.7,2.9-8.1s-1-6.1-2.9-8.1c-2-2-4.7-2.9-8.1-2.9
		L266.6,48.3L266.6,48.3z"/>
	<path class="st6" d="M318.1,60.5c0,4.1-1.2,7.4-3.6,9.8c-2.7,2.9-6.3,4.3-10.8,4.3c-4.3,0-7.9-1.5-10.8-4.4s-4.4-6.6-4.4-10.9
		s1.5-7.9,4.4-10.9c2.9-2.9,6.5-4.4,10.8-4.4c2.2,0,4.2,0.4,6.1,1.1c1.9,0.8,3.5,1.8,4.7,3.2l-2.7,2.7c-0.9-1.1-2.1-1.9-3.5-2.6
		s-3-0.9-4.6-0.9c-3.2,0-5.9,1.1-8.1,3.3s-3.3,5-3.3,8.4s1.1,6.2,3.3,8.4c2.2,2.2,4.9,3.3,8.1,3.3c2.9,0,5.3-0.8,7.3-2.5
		c1.9-1.6,3.1-3.9,3.4-6.8h-10.6v-3.5H318C318,59,318.1,59.8,318.1,60.5z"/>
	<path class="st6" d="M329.3,73.9V44.7h9c4.5,0,8.1,1.4,10.8,4.1c2.7,2.7,4.1,6.2,4.1,10.6s-1.4,7.9-4.1,10.6s-6.3,4-10.8,4
		L329.3,73.9L329.3,73.9z M333.1,48.3v22.1h5.2c3.4,0,6.1-1,8.1-2.9s2.9-4.7,2.9-8.1s-1-6.1-2.9-8.1c-2-2-4.7-2.9-8.1-2.9
		L333.1,48.3L333.1,48.3z"/>
	<path class="st6" d="M365.2,74.6c-2.9,0-5.4-1-7.3-3S355,67,355,63.9s0.9-5.6,2.8-7.6s4.2-3,7.1-3c3,0,5.3,1,7.1,2.9
		c1.8,1.9,2.6,4.6,2.6,8.1v0.4h-15.8c0.1,2,0.7,3.5,2,4.7s2.8,1.8,4.5,1.8c2.4,0,4.3-1.2,5.6-3.6l3.4,1.6c-0.9,1.7-2.1,3-3.7,4
		C369,74.1,367.2,74.6,365.2,74.6z M359.1,61.5h11.5c-0.1-1.4-0.7-2.5-1.7-3.5c-1-0.9-2.4-1.4-4.1-1.4c-1.4,0-2.6,0.4-3.7,1.3
		C360.2,58.9,359.5,60,359.1,61.5z"/>
	<path class="st6" d="M386.7,73.9h-3.8l-8.1-20h4.1l5.9,15.5h0.1l6-15.5h4L386.7,73.9z"/>
	<path class="st6" d="M407.2,44.3c1.4,0,2.5,0.2,3.4,0.7l-1,3.3c-0.7-0.3-1.4-0.5-2.2-0.5c-0.9,0-1.7,0.3-2.3,1
		c-0.6,0.6-0.9,1.5-0.9,2.6v2.5h5.2v3.4h-5.2v16.6h-3.8V57.3h-3.8v-3.4h3.8V51c0-2,0.6-3.6,1.9-4.8
		C403.6,44.9,405.2,44.3,407.2,44.3z"/>
	<path class="st6" d="M421.1,74.6c-2.9,0-5.4-1-7.3-3s-2.9-4.6-2.9-7.7s0.9-5.6,2.8-7.6s4.2-3,7.1-3c3,0,5.3,1,7.1,2.9
		c1.8,1.9,2.6,4.6,2.6,8.1v0.4h-15.8c0.1,2,0.7,3.5,2,4.7s2.8,1.8,4.5,1.8c2.4,0,4.3-1.2,5.6-3.6l3.4,1.6c-0.9,1.7-2.1,3-3.7,4
		C425,74.1,423.1,74.6,421.1,74.6z M415.1,61.5h11.5c-0.1-1.4-0.7-2.5-1.7-3.5c-1-0.9-2.4-1.4-4.1-1.4c-1.4,0-2.6,0.4-3.7,1.3
		C416.1,58.9,415.4,60,415.1,61.5z"/>
	<path class="st6" d="M449.2,68.4c0,1.7-0.8,3.2-2.3,4.4c-1.5,1.2-3.5,1.8-5.8,1.8c-2,0-3.8-0.5-5.3-1.6c-1.5-1-2.6-2.4-3.3-4.2
		l3.4-1.4c0.5,1.2,1.2,2.1,2.1,2.8c0.9,0.7,2,1,3.1,1c1.2,0,2.2-0.3,3-0.8s1.2-1.1,1.2-1.8c0-1.3-1-2.2-2.9-2.8l-3.4-0.9
		c-3.9-1-5.9-2.9-5.9-5.6c0-1.8,0.7-3.3,2.2-4.4s3.4-1.7,5.7-1.7c1.8,0,3.4,0.4,4.8,1.3c1.4,0.8,2.4,2,3,3.4l-3.4,1.4
		c-0.4-0.8-1-1.5-1.9-2s-1.8-0.7-2.9-0.7c-1,0-1.9,0.2-2.6,0.7c-0.8,0.5-1.2,1.1-1.2,1.8c0,1.1,1.1,2,3.2,2.5l3,0.8
		C447.2,63.4,449.2,65.4,449.2,68.4z"/>
	<path class="st6" d="M460.3,74.3c-1.6,0-3-0.5-4.1-1.5s-1.6-2.4-1.7-4.2V57.4H451V54h3.5v-6.1h3.8V54h4.9v3.4h-4.9v10
		c0,1.3,0.3,2.2,0.8,2.7s1.1,0.7,1.8,0.7c0.3,0,0.6,0,0.9-0.1s0.6-0.2,0.8-0.3l1.2,3.4C462.8,74.1,461.7,74.3,460.3,74.3z"/>
	<path class="st6" d="M414.2,107.5v3.6h-17.8v-3.8l7.2-7.3c2.4-2.5,4.1-4.3,5-5.6c0.9-1.2,1.4-2.5,1.4-3.9c0-1.2-0.5-2.3-1.4-3.2
		c-1-0.9-2.2-1.3-3.7-1.3c-1.3,0-2.4,0.4-3.3,1.1c-0.9,0.8-1.5,1.7-1.8,2.8l-3.4-1.4c0.5-1.7,1.6-3.2,3.2-4.4s3.4-1.8,5.5-1.8
		c2.5,0,4.7,0.8,6.3,2.3c1.7,1.6,2.5,3.5,2.5,5.7c0,2.7-1.5,5.6-4.5,8.8l-8.2,8.2h13L414.2,107.5L414.2,107.5z"/>
	<path class="st6" d="M416.4,97.1c0-4.3,1-7.8,3.2-10.5c2.1-2.8,4.8-4.1,8.1-4.1c3.3,0,6,1.4,8.1,4.2s3.2,6.2,3.2,10.5
		c0,4.2-1.1,7.7-3.2,10.5s-4.8,4.1-8.1,4.1c-3.3,0-6-1.4-8.1-4.1C417.5,104.8,416.4,101.3,416.4,97.1z M435.1,97.1
		c0-3.2-0.7-5.9-2-7.9c-1.3-2.1-3.1-3.1-5.4-3.1c-2.2,0-4,1-5.4,3.1s-2,4.7-2,7.9s0.7,5.9,2,8c1.3,2,3.1,3.1,5.4,3.1
		c2.2,0,4-1,5.4-3.1C434.4,102.9,435.1,100.3,435.1,97.1z"/>
	<path class="st6" d="M450.5,83.1v28h-3.8V87.8l-5.4,2.4l-1.4-3.2l8.2-3.8L450.5,83.1L450.5,83.1z"/>
	<path class="st6" d="M472.2,87l-13.6,24.8l-3.4-1.7l13-23.3H454l0.1-3.6h18V87H472.2z"/>
	<g>
		<polygon class="st5" points="192.6,77.9 172.8,111.7 185.2,111.7 198.7,88.1 		"/>
		<polygon class="st7" points="184.8,44 172.8,44 192.6,77.9 192.6,77.9 198.7,88.1 204.7,98.1 210.4,88 210.4,88 		"/>
		<path class="st3" d="M214.5,74.9L196.8,44h-12l25.6,44l0,0l4.1-7.2C215.6,79,215.6,76.7,214.5,74.9z"/>
		<polygon class="st8" points="185.2,111.7 196.8,111.7 204.7,98.1 198.7,88.1 		"/>
	</g>
	<g>
		<path class="st6" d="M235,110.9h-3.7v-29h4.5l14.1,22.6h0.2l-0.2-5.6v-17h3.7v29h-3.9L235,87.2h-0.2l0.2,5.6V110.9z"/>
		<path class="st6" d="M257.7,101c0-3,1-5.6,2.9-7.6s4.4-3,7.3-3s5.4,1,7.3,3s2.9,4.5,2.9,7.6s-1,5.6-2.9,7.6s-4.3,3-7.3,3
			c-2.9,0-5.4-1-7.3-3C258.7,106.5,257.7,104,257.7,101z M261.4,101c0,2.1,0.6,3.9,1.9,5.2c1.2,1.3,2.8,2,4.6,2c1.8,0,3.4-0.7,4.6-2
			s1.9-3,1.9-5.2c0-2.1-0.6-3.8-1.9-5.1s-2.8-2-4.6-2c-1.8,0-3.3,0.7-4.6,2C262.1,97.2,261.4,98.9,261.4,101z"/>
		<path class="st6" d="M284.8,110.9h-3.7V91.1h3.6v3.2h0.2c0.4-1.1,1.2-1.9,2.3-2.7c1.2-0.7,2.3-1.1,3.5-1.1c1.1,0,2,0.2,2.8,0.5
			l-1.1,3.6c-0.5-0.2-1.2-0.3-2.2-0.3c-1.4,0-2.6,0.6-3.7,1.7c-1,1.1-1.6,2.5-1.6,4L284.8,110.9L284.8,110.9z"/>
		<path class="st6" d="M302.9,111.5c-2.6,0-4.8-1-6.7-3.1c-1.8-2.1-2.8-4.6-2.8-7.5s0.9-5.4,2.8-7.5s4.1-3.1,6.7-3.1
			c1.5,0,2.8,0.3,4,0.9s2.1,1.4,2.8,2.5h0.2l-0.2-2.8v-9.2h3.7v29h-3.6v-2.8h-0.2c-0.6,1-1.6,1.8-2.8,2.5
			C305.7,111.2,304.4,111.5,302.9,111.5z M303.5,108.1c1.8,0,3.3-0.7,4.5-2s1.8-3,1.8-5.2c0-2.1-0.6-3.8-1.8-5.1
			c-1.2-1.3-2.7-2-4.5-2s-3.3,0.7-4.5,2c-1.2,1.4-1.8,3.1-1.8,5.1c0,2.1,0.6,3.8,1.8,5.1C300.2,107.5,301.7,108.1,303.5,108.1z"/>
		<path class="st6" d="M326.6,111.5c-2.9,0-5.3-1-7.2-3c-1.9-2-2.8-4.5-2.8-7.6c0-3,0.9-5.5,2.8-7.6c1.8-2,4.2-3,7-3
			c2.9,0,5.3,1,7,2.9s2.6,4.6,2.6,8v0.4h-15.6c0.1,1.9,0.7,3.5,1.9,4.7c1.2,1.2,2.7,1.8,4.5,1.8c2.4,0,4.2-1.2,5.6-3.6l3.3,1.6
			c-0.9,1.7-2.1,3-3.7,3.9C330.4,111.1,328.6,111.5,326.6,111.5z M320.7,98.6H332c-0.1-1.4-0.7-2.5-1.7-3.4s-2.4-1.4-4.1-1.4
			c-1.4,0-2.6,0.4-3.6,1.3C321.7,96,321,97.1,320.7,98.6z"/>
		<path class="st6" d="M354.8,105.4c0,1.7-0.8,3.2-2.3,4.4s-3.4,1.8-5.7,1.8c-2,0-3.8-0.5-5.3-1.6c-1.5-1-2.6-2.4-3.2-4.1l3.3-1.4
			c0.5,1.2,1.2,2.1,2.1,2.8s1.9,1,3.1,1s2.2-0.3,3-0.8s1.2-1.1,1.2-1.8c0-1.3-1-2.2-2.9-2.8l-3.4-0.9c-3.9-1-5.8-2.8-5.8-5.6
			c0-1.8,0.7-3.3,2.2-4.4s3.4-1.6,5.6-1.6c1.8,0,3.3,0.4,4.8,1.3c1.4,0.8,2.4,2,3,3.4l-3.3,1.4c-0.4-0.8-1-1.5-1.8-2
			c-0.9-0.5-1.8-0.7-2.9-0.7c-1,0-1.8,0.2-2.6,0.7c-0.8,0.5-1.2,1.1-1.2,1.8c0,1.1,1.1,1.9,3.2,2.4l3,0.8
			C352.8,100.4,354.8,102.4,354.8,105.4z"/>
		<path class="st6" d="M365.7,111.2c-1.6,0-3-0.5-4-1.5c-1.1-1-1.6-2.4-1.6-4.2V94.4h-3.5V91h3.5v-6h3.7v6.1h4.9v3.4h-4.9v9.9
			c0,1.3,0.3,2.2,0.8,2.7s1.1,0.7,1.7,0.7c0.3,0,0.6,0,0.9-0.1s0.5-0.2,0.8-0.3l1.2,3.3C368.1,111,367,111.2,365.7,111.2z"/>
		<path class="st6" d="M380.9,111.5c-2.9,0-5.3-1-7.2-3c-1.9-2-2.8-4.5-2.8-7.6c0-3,0.9-5.5,2.8-7.6c1.8-2,4.2-3,7-3
			c2.9,0,5.3,1,7,2.9s2.6,4.6,2.6,8v0.4h-15.6c0.1,1.9,0.7,3.5,1.9,4.7c1.2,1.2,2.7,1.8,4.5,1.8c2.4,0,4.2-1.2,5.6-3.6l3.3,1.6
			c-0.9,1.7-2.1,3-3.7,3.9C384.7,111.1,382.9,111.5,380.9,111.5z M374.9,98.6h11.4c-0.1-1.4-0.7-2.5-1.7-3.4s-2.4-1.4-4.1-1.4
			c-1.4,0-2.6,0.4-3.6,1.3C375.9,96,375.2,97.1,374.9,98.6z"/>
	</g>
</g>
<g id="wave">
	<defs>
		<rect id="SVGID_1_" x="637.2" y="377.4" width="103.4" height="9"/>
	</defs>
	<clipPath id="SVGID_2_">
		<use xlink:href="#SVGID_1_"  style="overflow:visible;"/>
	</clipPath>
	<g class="st9 wave">
		<g>
			<path class="st2" d="M716.1,381.5"/>
			<path class="st2" d="M657.9,384c1.7,0,3.4-0.7,4.7-2l1.1-1.1c2.5-2.5,6.6-2.5,9.1,0l1,1c2.6,2.6,6.9,2.6,9.5,0l1.1-1.1
				c2.5-2.5,6.6-2.5,9.1,0l1.1,1.1c1.3,1.3,3,2,4.7,2"/>
			<path class="st2" d="M699.2,384c1.7,0,3.4-0.7,4.7-2l1.1-1.1c2.5-2.5,6.6-2.5,9.1,0l1,1c2.6,2.6,6.9,2.6,9.5,0l1.1-1.1
				c2.5-2.5,6.6-2.5,9.1,0l1.1,1.1c1.3,1.3,3,2,4.7,2"/>
		</g>
		<g>
			<path class="st2" d="M633.4,381.6"/>
			<path class="st2" d="M575.2,384.1c1.7,0,3.4-0.7,4.7-2l1.1-1.1c2.5-2.5,6.6-2.5,9.1,0l1,1c2.6,2.6,6.9,2.6,9.5,0l1.1-1.1
				c2.5-2.5,6.6-2.5,9.1,0l1.1,1.1c1.3,1.3,3,2,4.7,2"/>
			<path class="st2" d="M616.5,384.1c1.7,0,3.4-0.7,4.7-2l1.1-1.1c2.5-2.5,6.6-2.5,9.1,0l1,1c2.6,2.6,6.9,2.6,9.5,0l1.1-1.1
				c2.5-2.5,6.6-2.5,9.1,0l1.1,1.1c1.3,1.3,3,2,4.7,2"/>
		</g>
	</g>
</g>
<g id="wave_1_">
	<defs>
		<polygon id="SVGID_3_" points="514.9,387.4 160.8,387.4 160.8,375.8 506.8,375.8 		"/>
	</defs>
	<clipPath id="SVGID_4_">
		<use xlink:href="#SVGID_3_"  style="overflow:visible;"/>
	</clipPath>
	<g class="st10 wave">
		<g>
			<path class="st2" d="M219,381.5"/>
			<path class="st2" d="M160.8,384c1.7,0,3.4-0.7,4.7-2l1.1-1.1c2.5-2.5,6.6-2.5,9.1,0l1,1c2.6,2.6,6.9,2.6,9.5,0l1.1-1.1
				c2.5-2.5,6.6-2.5,9.1,0l1.1,1.1c1.3,1.3,3,2,4.7,2"/>
			<path class="st2" d="M202.2,384c1.7,0,3.4-0.7,4.7-2l1.1-1.1c2.5-2.5,6.6-2.5,9.1,0l1,1c2.6,2.6,6.9,2.6,9.5,0l1.1-1.1
				c2.5-2.5,6.6-2.5,9.1,0l1.1,1.1c1.3,1.3,3,2,4.7,2"/>
		</g>
		<g>
			<path class="st2" d="M301.8,381.5"/>
			<path class="st2" d="M243.6,384c1.7,0,3.4-0.7,4.7-2l1.1-1.1c2.5-2.5,6.6-2.5,9.1,0l1,1c2.6,2.6,6.9,2.6,9.5,0l1.1-1.1
				c2.5-2.5,6.6-2.5,9.1,0l1.1,1.1c1.3,1.3,3,2,4.7,2"/>
			<path class="st2" d="M284.9,384c1.7,0,3.4-0.7,4.7-2l1.1-1.1c2.5-2.5,6.6-2.5,9.1,0l1,1c2.6,2.6,6.9,2.6,9.5,0l1.1-1.1
				c2.5-2.5,6.6-2.5,9.1,0l1.1,1.1c1.3,1.3,3,2,4.7,2"/>
		</g>
		<g>
			<path class="st2" d="M384.5,381.5"/>
			<path class="st2" d="M326.3,384c1.7,0,3.4-0.7,4.7-2l1.1-1.1c2.5-2.5,6.6-2.5,9.1,0l1,1c2.6,2.6,6.9,2.6,9.5,0l1.1-1.1
				c2.5-2.5,6.6-2.5,9.1,0l1.1,1.1c1.3,1.3,3,2,4.7,2"/>
			<path class="st2" d="M367.7,384c1.7,0,3.4-0.7,4.7-2l1.1-1.1c2.5-2.5,6.6-2.5,9.1,0l1,1c2.6,2.6,6.9,2.6,9.5,0l1.1-1.1
				c2.5-2.5,6.6-2.5,9.1,0l1.1,1.1c1.3,1.3,3,2,4.7,2"/>
		</g>
		<g>
			<path class="st2" d="M467.3,381.5"/>
			<path class="st2" d="M409.1,384c1.7,0,3.4-0.7,4.7-2l1.1-1.1c2.5-2.5,6.6-2.5,9.1,0l1,1c2.6,2.6,6.9,2.6,9.5,0l1.1-1.1
				c2.5-2.5,6.6-2.5,9.1,0l1.1,1.1c1.3,1.3,3,2,4.7,2"/>
			<path class="st2" d="M450.5,384c1.7,0,3.4-0.7,4.7-2l1.1-1.1c2.5-2.5,6.6-2.5,9.1,0l1,1c2.6,2.6,6.9,2.6,9.5,0l1.1-1.1
				c2.5-2.5,6.6-2.5,9.1,0l1.1,1.1c1.3,1.3,3,2,4.7,2"/>
		</g>
		<g>
			<path class="st2" d="M550.1,381.5"/>
			<path class="st2" d="M491.8,384c1.7,0,3.4-0.7,4.7-2l1.1-1.1c2.5-2.5,6.6-2.5,9.1,0l1,1c2.7,3,3.4,1.3,4.3,1.7"/>
		</g>
		<g>
			<path class="st2" d="M136.2,381.6"/>
			<path class="st2" d="M78,384.1c1.7,0,3.4-0.7,4.7-2l1.1-1.1c2.5-2.5,6.6-2.5,9.1,0l1,1c2.6,2.6,6.9,2.6,9.5,0l1.1-1.1
				c2.5-2.5,6.6-2.5,9.1,0l1.1,1.1c1.3,1.3,3,2,4.7,2"/>
			<path class="st2" d="M119.4,384.1c1.7,0,3.4-0.7,4.7-2l1.1-1.1c2.5-2.5,6.6-2.5,9.1,0l1,1c2.6,2.6,6.9,2.6,9.5,0l1.1-1.1
				c2.5-2.5,6.6-2.5,9.1,0l1.1,1.1c1.3,1.3,3,2,4.7,2"/>
		</g>
	</g>
</g>
<g id="boat" class="boat">
	<g>
		<polyline class="st1" points="524.9,401.8 506,374.7 565.4,374.7 571.9,381.8 637.4,381.8 628.1,401.8 		"/>
		<rect x="542.2" y="361.6" class="st1" width="22.6" height="13.1"/>
		<rect x="579.4" y="363.1" class="st1" width="26.5" height="18.8"/>
		<rect x="542.2" y="350.5" class="st1" width="22.6" height="11.1"/>
		<rect x="519.6" y="361.6" class="st1" width="22.6" height="13.1"/>
		<line class="st1" x1="592.7" y1="352.8" x2="592.7" y2="363.1"/>
		<line class="st1" x1="597.4" y1="352" x2="582.8" y2="353.5"/>
	</g>
	<line class="st1" x1="517.7" y1="391.4" x2="632.9" y2="391.4"/>
	<line class="st11" x1="524.9" y1="401.8" x2="628.1" y2="401.8"/>
</g>
<g id="wave_2_">
	<defs>
		<polygon id="SVGID_5_" points="479.4,398.9 464.7,399.7 476.2,401.1 479.4,402 479.4,407 635.7,407 635.7,398.9 		"/>
	</defs>
	<clipPath id="SVGID_6_">
		<use xlink:href="#SVGID_5_"  style="overflow:visible;"/>
	</clipPath>
	<g class="st12 wave">
		<g>
			<path class="st2" d="M445.6,403.3"/>
			<path class="st2" d="M387.4,405.7c1.7,0,3.4-0.7,4.7-2l1.1-1.1c2.1-2.1,5.4-2.5,7.9-0.9"/>
		</g>
		<g>
			<path class="st2" d="M611.1,403.3"/>
			<path class="st2" d="M552.9,405.7c1.7,0,3.4-0.7,4.7-2l1.1-1.1c2.5-2.5,6.6-2.5,9.1,0l1,1c2.6,2.6,6.9,2.6,9.5,0l1.1-1.1
				c2.5-2.5,6.6-2.5,9.1,0l1.1,1.1c1.3,1.3,3,2,4.7,2"/>
			<path class="st2" d="M594.3,405.7c1.7,0,3.4-0.7,4.7-2l1.1-1.1c2.5-2.5,6.6-2.5,9.1,0l1,1c2.6,2.6,6.9,2.6,9.5,0l1.1-1.1
				c2.5-2.5,6.6-2.5,9.1,0l1.1,1.1c1.3,1.3,3,2,4.7,2"/>
		</g>
		<g>
			<path class="st2" d="M528.3,403.4"/>
			<path class="st2" d="M470.1,405.8c1.7,0,3.4-0.7,4.7-2l1.1-1.1c2.5-2.5,6.6-2.5,9.1,0l1,1c2.6,2.6,6.9,2.6,9.5,0l1.1-1.1
				c2.5-2.5,6.6-2.5,9.1,0l1.1,1.1c1.3,1.3,3,2,4.7,2"/>
			<path class="st2" d="M511.5,405.8c1.7,0,3.4-0.7,4.7-2l1.1-1.1c2.5-2.5,6.6-2.5,9.1,0l1,1c2.6,2.6,6.9,2.6,9.5,0l1.1-1.1
				c2.5-2.5,6.6-2.5,9.1,0l1.1,1.1c1.3,1.3,3,2,4.7,2"/>
		</g>
		<g>
			<path class="st2" d="M445.6,403.5"/>
			<path class="st2" d="M387.4,405.9c1.7,0,3.4-0.7,4.7-2l1.1-1.1c2.5-2.5,6.6-2.5,9.1,0l1,1c2.6,2.6,6.9,2.6,9.5,0l1.1-1.1
				c2.5-2.5,6.6-2.5,9.1,0l1.1,1.1c1.3,1.3,3,2,4.7,2"/>
			<path class="st2" d="M428.8,405.9c1.7,0,3.4-0.7,4.7-2l1.1-1.1c2.5-2.5,6.6-2.5,9.1,0l1,1c2.6,2.6,6.9,2.6,9.5,0l1.1-1.1
				c2.5-2.5,6.6-2.5,9.1,0l1.1,1.1c1.3,1.3,3,2,4.7,2"/>
		</g>
	</g>
</g>
<g>
	<defs>
		<path id="SVGID_7_" d="M395.7,399.8H221.9v7.2h173.8v-4.6c0.2-1.1,5.9-1.8,5.9-1.8l1.8-0.9H395.7z"/>
	</defs>
	<clipPath id="SVGID_8_">
		<use xlink:href="#SVGID_7_"  style="overflow:visible;"/>
	</clipPath>
	<g class="st13 wave">
		<g>
			<path class="st2" d="M208,403.5"/>
			<path class="st2" d="M149.8,405.9c1.7,0,3.4-0.7,4.7-2l1.1-1.1c2.5-2.5,6.6-2.5,9.1,0l1,1c2.6,2.6,6.9,2.6,9.5,0l1.1-1.1
				c2.5-2.5,6.6-2.5,9.1,0l1.1,1.1c1.3,1.3,3,2,4.7,2"/>
			<path class="st2" d="M191.2,405.9c1.7,0,3.4-0.7,4.7-2l1.1-1.1c2.5-2.5,6.6-2.5,9.1,0l1,1c2.6,2.6,6.9,2.6,9.5,0l1.1-1.1
				c2.5-2.5,6.6-2.5,9.1,0l1.1,1.1c1.3,1.3,3,2,4.7,2"/>
		</g>
		<g>
			<path class="st2" d="M290.8,403.5"/>
			<path class="st2" d="M232.6,405.9c1.7,0,3.4-0.7,4.7-2l1.1-1.1c2.5-2.5,6.6-2.5,9.1,0l1,1c2.6,2.6,6.9,2.6,9.5,0l1.1-1.1
				c2.5-2.5,6.6-2.5,9.1,0l1.1,1.1c1.3,1.3,3,2,4.7,2"/>
			<path class="st2" d="M273.9,405.9c1.7,0,3.4-0.7,4.7-2l1.1-1.1c2.5-2.5,6.6-2.5,9.1,0l1,1c2.6,2.6,6.9,2.6,9.5,0l1.1-1.1
				c2.5-2.5,6.6-2.5,9.1,0l1.1,1.1c1.3,1.3,3,2,4.7,2"/>
		</g>
		<g>
			<path class="st2" d="M373.5,403.4"/>
			<path class="st2" d="M315.3,405.8c1.7,0,3.4-0.7,4.7-2l1.1-1.1c2.5-2.5,6.6-2.5,9.1,0l1,1c2.6,2.6,6.9,2.6,9.5,0l1.1-1.1
				c2.5-2.5,6.6-2.5,9.1,0l1.1,1.1c1.3,1.3,3,2,4.7,2"/>
			<path class="st2" d="M356.6,405.8c1.7,0,3.4-0.7,4.7-2l1.1-1.1c2.5-2.5,6.6-2.5,9.1,0l1,1c2.6,2.6,6.9,2.6,9.5,0l1.1-1.1
				c2.5-2.5,6.6-2.5,9.1,0l1.1,1.1c1.3,1.3,3,2,4.7,2"/>
		</g>
	</g>
</g>
<g id="wave_7_">
	<defs>
		<rect id="SVGID_9_" x="304.7" y="422.4" width="248.2" height="7.2"/>
	</defs>
	<clipPath id="SVGID_10_">
		<use xlink:href="#SVGID_9_"  style="overflow:visible;"/>
	</clipPath>
	<g id="wave-3" class="st14 wave">
		<g>
			<path class="st2" d="M362.9,426.1"/>
			<path class="st2" d="M304.7,428.5c1.7,0,3.4-0.7,4.7-2l1.1-1.1c2.5-2.5,6.6-2.5,9.1,0l1,1c2.6,2.6,6.9,2.6,9.5,0l1.1-1.1
				c2.5-2.5,6.6-2.5,9.1,0l1.1,1.1c1.3,1.3,3,2,4.7,2"/>
			<path class="st2" d="M346,428.5c1.7,0,3.4-0.7,4.7-2l1.1-1.1c2.5-2.5,6.6-2.5,9.1,0l1,1c2.6,2.6,6.9,2.6,9.5,0l1.1-1.1
				c2.5-2.5,6.6-2.5,9.1,0l1.1,1.1c1.3,1.3,3,2,4.7,2"/>
		</g>
		<g>
			<path class="st2" d="M445.6,426.1"/>
			<path class="st2" d="M387.4,428.5c1.7,0,3.4-0.7,4.7-2l1.1-1.1c2.5-2.5,6.6-2.5,9.1,0l1,1c2.6,2.6,6.9,2.6,9.5,0l1.1-1.1
				c2.5-2.5,6.6-2.5,9.1,0l1.1,1.1c1.3,1.3,3,2,4.7,2"/>
			<path class="st2" d="M428.8,428.5c1.7,0,3.4-0.7,4.7-2l1.1-1.1c2.5-2.5,6.6-2.5,9.1,0l1,1c2.6,2.6,6.9,2.6,9.5,0l1.1-1.1
				c2.5-2.5,6.6-2.5,9.1,0l1.1,1.1c1.3,1.3,3,2,4.7,2"/>
		</g>
		<g>
			<path class="st2" d="M528.4,426.1"/>
			<path class="st2" d="M470.2,428.5c1.7,0,3.4-0.7,4.7-2l1.1-1.1c2.5-2.5,6.6-2.5,9.1,0l1,1c2.6,2.6,6.9,2.6,9.5,0l1.1-1.1
				c2.5-2.5,6.6-2.5,9.1,0l1.1,1.1c1.3,1.3,3,2,4.7,2"/>
			<path class="st2" d="M511.5,428.5c1.7,0,3.4-0.7,4.7-2l1.1-1.1c2.5-2.5,6.6-2.5,9.1,0l1,1c2.6,2.6,6.9,2.6,9.5,0l1.1-1.1
				c2.5-2.5,6.6-2.5,9.1,0l1.1,1.1c1.3,1.3,3,2,4.7,2"/>
		</g>
		<g>
			<path class="st2" d="M280.2,426.2"/>
			<path class="st2" d="M222,428.6c1.7,0,3.4-0.7,4.7-2l1.1-1.1c2.5-2.5,6.6-2.5,9.1,0l1,1c2.6,2.6,6.9,2.6,9.5,0l1.1-1.1
				c2.5-2.5,6.6-2.5,9.1,0l1.1,1.1c1.3,1.3,3,2,4.7,2"/>
			<path class="st2" d="M263.3,428.6c1.7,0,3.4-0.7,4.7-2l1.1-1.1c2.5-2.5,6.6-2.5,9.1,0l1,1c2.6,2.6,6.9,2.6,9.5,0l1.1-1.1
				c2.5-2.5,6.6-2.5,9.1,0l1.1,1.1c1.3,1.3,3,2,4.7,2"/>
		</g>
	</g>
</g>
<g id="wave_6_">
	<defs>
		<rect id="SVGID_11_" x="348.1" y="444.9" width="165.5" height="8"/>
	</defs>
	<clipPath id="SVGID_12_">
		<use xlink:href="#SVGID_11_"  style="overflow:visible;"/>
	</clipPath>
	<g id="wave-4" class="st15 wave">
		<g>
			<path class="st2" d="M406.3,449"/>
			<path class="st2" d="M348.1,451.4c1.7,0,3.4-0.7,4.7-2l1.1-1.1c2.5-2.5,6.6-2.5,9.1,0l1,1c2.6,2.6,6.9,2.6,9.5,0l1.1-1.1
				c2.5-2.5,6.6-2.5,9.1,0l1.1,1.1c1.3,1.3,3,2,4.7,2"/>
			<path class="st2" d="M389.5,451.4c1.7,0,3.4-0.7,4.7-2l1.1-1.1c2.5-2.5,6.6-2.5,9.1,0l1,1c2.6,2.6,6.9,2.6,9.5,0l1.1-1.1
				c2.5-2.5,6.6-2.5,9.1,0l1.1,1.1c1.3,1.3,3,2,4.7,2"/>
		</g>
		<g>
			<path class="st2" d="M489,449"/>
			<path class="st2" d="M430.8,451.4c1.7,0,3.4-0.7,4.7-2l1.1-1.1c2.5-2.5,6.6-2.5,9.1,0l1,1c2.6,2.6,6.9,2.6,9.5,0l1.1-1.1
				c2.5-2.5,6.6-2.5,9.1,0l1.1,1.1c1.3,1.3,3,2,4.7,2"/>
			<path class="st2" d="M472.2,451.4c1.7,0,3.4-0.7,4.7-2l1.1-1.1c2.5-2.5,6.6-2.5,9.1,0l1,1c2.6,2.6,6.9,2.6,9.5,0l1.1-1.1
				c2.5-2.5,6.6-2.5,9.1,0l1.1,1.1c1.3,1.3,3,2,4.7,2"/>
		</g>
		<g>
			<path class="st2" d="M323.5,449.1"/>
			<path class="st2" d="M265.3,451.5c1.7,0,3.4-0.7,4.7-2l1.1-1.1c2.5-2.5,6.6-2.5,9.1,0l1,1c2.6,2.6,6.9,2.6,9.5,0l1.1-1.1
				c2.5-2.5,6.6-2.5,9.1,0l1.1,1.1c1.3,1.3,3,2,4.7,2"/>
			<path class="st2" d="M306.7,451.5c1.7,0,3.4-0.7,4.7-2l1.1-1.1c2.5-2.5,6.6-2.5,9.1,0l1,1c2.6,2.6,6.9,2.6,9.5,0l1.1-1.1
				c2.5-2.5,6.6-2.5,9.1,0l1.1,1.1c1.3,1.3,3,2,4.7,2"/>
		</g>
	</g>
</g>
<g id="wave_8_">
	<defs>
		<polygon id="SVGID_13_" points="814.9,345.2 733.6,345.2 733.6,354.2 815.7,354.2 		"/>
	</defs>
	<clipPath id="SVGID_14_">
		<use xlink:href="#SVGID_13_"  style="overflow:visible;"/>
	</clipPath>
	<g class="st16 wave">
		<g>
			<path class="st2" d="M812.5,349.4"/>
			<path class="st2" d="M754.3,351.9c1.7,0,3.4-0.7,4.7-2l1.1-1.1c2.5-2.5,6.6-2.5,9.1,0l1,1c2.6,2.6,6.9,2.6,9.5,0l1.1-1.1
				c2.5-2.5,6.6-2.5,9.1,0l1.1,1.1c1.3,1.3,3,2,4.7,2"/>
			<path class="st2" d="M795.6,351.9c1.7,0,3.4-0.7,4.7-2l1.1-1.1c2.5-2.5,6.6-2.5,9.1,0l1,1c2.6,2.6,6.9,2.6,9.5,0l1.1-1.1
				c2.5-2.5,6.6-2.5,9.1,0l1.1,1.1c1.3,1.3,3,2,4.7,2"/>
		</g>
		<g>
			<path class="st2" d="M729.8,349.5"/>
			<path class="st2" d="M671.6,352c1.7,0,3.4-0.7,4.7-2l1.1-1.1c2.5-2.5,6.6-2.5,9.1,0l1,1c2.6,2.6,6.9,2.6,9.5,0l1.1-1.1
				c2.5-2.5,6.6-2.5,9.1,0l1.1,1.1c1.3,1.3,3,2,4.7,2"/>
			<path class="st2" d="M712.9,352c1.7,0,3.4-0.7,4.7-2l1.1-1.1c2.5-2.5,6.6-2.5,9.1,0l1,1c2.6,2.6,6.9,2.6,9.5,0l1.1-1.1
				c2.5-2.5,6.6-2.5,9.1,0l1.1,1.1c1.3,1.3,3,2,4.7,2"/>
		</g>
	</g>
</g>
<g id="wave_5_">
	<defs>
		<polygon id="SVGID_15_" points="303,240 384.4,240 384.4,231.1 302.2,231.1 		"/>
	</defs>
	<clipPath id="SVGID_16_">
		<use xlink:href="#SVGID_15_"  style="overflow:visible;"/>
	</clipPath>
	<g class="st17 wave slow">
		<g>
			<path class="st2" d="M285.1,235.9"/>
			<path class="st2" d="M343.3,233.4c-1.7,0-3.4,0.7-4.7,2l-1.1,1.1c-2.5,2.5-6.6,2.5-9.1,0l-1-1c-2.6-2.6-6.9-2.6-9.5,0l-1.1,1.1
				c-2.5,2.5-6.6,2.5-9.1,0l-1.1-1.1c-1.3-1.3-3-2-4.7-2"/>
			<path class="st2" d="M302,233.4c-1.7,0-3.4,0.7-4.7,2l-1.1,1.1c-2.5,2.5-6.6,2.5-9.1,0l-1-1c-2.6-2.6-6.9-2.6-9.5,0l-1.1,1.1
				c-2.5,2.5-6.6,2.5-9.1,0l-1.1-1.1c-1.3-1.3-3-2-4.7-2"/>
		</g>
		<g>
			<path class="st2" d="M367.8,235.8"/>
			<path class="st2" d="M426,233.3c-1.7,0-3.4,0.7-4.7,2l-1.1,1.1c-2.5,2.5-6.6,2.5-9.1,0l-1-1c-2.6-2.6-6.9-2.6-9.5,0l-1.1,1.1
				c-2.5,2.5-6.6,2.5-9.1,0l-1.1-1.1c-1.3-1.3-3-2-4.7-2"/>
			<path class="st2" d="M384.7,233.3c-1.7,0-3.4,0.7-4.7,2l-1.1,1.1c-2.5,2.5-6.6,2.5-9.1,0l-1-1c-2.6-2.6-6.9-2.6-9.5,0l-1.1,1.1
				c-2.5,2.5-6.6,2.5-9.1,0l-1.1-1.1c-1.3-1.3-3-2-4.7-2"/>
		</g>
	</g>
</g>
<g id="wave_4_">
	<defs>
		<rect id="SVGID_17_" x="322.9" y="243.4" width="41.4" height="9.1"/>
	</defs>
	<clipPath id="SVGID_18_">
		<use xlink:href="#SVGID_17_"  style="overflow:visible;"/>
	</clipPath>
	<g class="st18 wave slow">
		<g>
			<path class="st2" d="M306.5,248.3"/>
			<path class="st2" d="M364.7,245.8c-1.7,0-3.4,0.7-4.7,2l-1.1,1.1c-2.5,2.5-6.6,2.5-9.1,0l-1-1c-2.6-2.6-6.9-2.6-9.5,0l-1.1,1.1
				c-2.5,2.5-6.6,2.5-9.1,0l-1.1-1.1c-1.3-1.3-3-2-4.7-2"/>
			<path class="st2" d="M323.4,245.8c-1.7,0-3.4,0.7-4.7,2l-1.1,1.1c-2.5,2.5-6.6,2.5-9.1,0l-1-1c-2.6-2.6-6.9-2.6-9.5,0l-1.1,1.1
				c-2.5,2.5-6.6,2.5-9.1,0l-1.1-1.1c-1.3-1.3-3-2-4.7-2"/>
		</g>
		<g>
			<path class="st2" d="M389.2,248.2"/>
			<path class="st2" d="M447.4,245.7c-1.7,0-3.4,0.7-4.7,2l-1.1,1.1c-2.5,2.5-6.6,2.5-9.1,0l-1-1c-2.6-2.6-6.9-2.6-9.5,0l-1.1,1.1
				c-2.5,2.5-6.6,2.5-9.1,0l-1.1-1.1c-1.3-1.3-3-2-4.7-2"/>
			<path class="st2" d="M406.1,245.7c-1.7,0-3.4,0.7-4.7,2l-1.1,1.1c-2.5,2.5-6.6,2.5-9.1,0l-1-1c-2.6-2.6-6.9-2.6-9.5,0l-1.1,1.1
				c-2.5,2.5-6.6,2.5-9.1,0l-1.1-1.1c-1.3-1.3-3-2-4.7-2"/>
		</g>
	</g>
</g>
</svg>
