<?xml version="1.0" encoding="utf-8"?>
<!-- Generator: Adobe Illustrator 21.0.2, SVG Export Plug-In . SVG Version: 6.00 Build 0)  -->
<svg version="1.1" id="Camada_1" xmlns="http://www.w3.org/2000/svg" xmlns:xlink="http://www.w3.org/1999/xlink" x="0px" y="0px"
	 viewBox="0 0 380 352" style="enable-background:new 0 0 380 352;" xml:space="preserve">
<style type="text/css">
	.st0{clip-path:url(#XMLID_2_);}
	.st1{fill:none;stroke:#FFC300;stroke-width:2;stroke-miterlimit:10;}
	.st2{fill:none;stroke:#4888F8;stroke-width:2;stroke-miterlimit:10;}
	.st3{fill:none;stroke:#DF4B3A;stroke-width:2;stroke-miterlimit:10;}
	.st4{fill:#DF4B3A;}
	.st5{fill:none;stroke:#00A15B;stroke-width:2;stroke-miterlimit:10;}
	.st6{fill:#FFFFFF;}
	.st7{fill:#00A05B;}
	.st8{fill:#4887F7;}
	.st9{fill:#DE4B3A;}
	.st10{fill:#FFC200;}
</style>
<g id="XMLID_262_">
	<g id="XMLID_7_">
		<defs>
			<path id="XMLID_8_" d="M349.5,174.1c0,87.5-70.9,158.5-158.5,158.5S32.5,261.6,32.5,174.1S103.5,15.6,191,15.6
				S349.5,86.6,349.5,174.1z"/>
		</defs>
		<clipPath id="XMLID_2_">
			<use xlink:href="#XMLID_8_"  style="overflow:visible;"/>
		</clipPath>
		<g id="XMLID_13_" class="st0">
			<path id="XMLID_627_" class="st1" d="M93.4,204.9c-3.2,2.5-6.4,5-9.5,7.6"/>
			<path id="XMLID_626_" class="st1" d="M157,179.2c-1,0-1.5,0-1.5,0c-19,0-35,7-49.6,16.7"/>
			<path id="XMLID_625_" class="st1" d="M373.6,179.2c0,0-105.9,0-170.1,0"/>
			<path id="XMLID_624_" class="st1" d="M284.6,212.4c19.7,4.6,36.3,13.2,53.3,21.1c19.9,9.2,46.2,13.9,71.6,13.7"/>
			<path id="XMLID_623_" class="st1" d="M243.5,208.9c0,0,11.5,0,11.5,0c8.6,0,16.5,0.8,23.9,2.2"/>
			<path id="XMLID_622_" class="st1" d="M63.4,202.2c7.8,3.5,16.2,5.8,24.7,6.9"/>
			<path id="XMLID_621_" class="st1" d="M-28.9,148.5c30.3,0.1,52.5,19.4,72.4,39.8c2.5,2.6,5.2,4.9,8.1,7"/>
			<g id="XMLID_600_">
				<polyline id="XMLID_620_" class="st2" points="170.7,170.5 170.7,162.9 162.2,162.9 162.2,170.5 				"/>
				<polyline id="XMLID_619_" class="st2" points="162.2,179.1 162.2,224.3 170.7,224.3 170.7,179.1 				"/>
				<polygon id="XMLID_618_" class="st2" points="176,170.5 157,170.5 157,179.2 176,179.2 176,174.9 				"/>
				<polygon id="XMLID_617_" class="st2" points="203.5,170.5 195.4,170.5 195.4,179.2 203.5,179.2 203.5,174.9 				"/>
				<polygon id="XMLID_616_" class="st2" points="176,172.9 195.4,172.9 195.4,177.1 176,177.1 176,175 				"/>
				<line id="XMLID_615_" class="st2" x1="166.5" y1="162.9" x2="166.5" y2="157.2"/>
				<g id="XMLID_602_">
					<line id="XMLID_614_" class="st2" x1="165" y1="185.8" x2="165" y2="182.7"/>
					<line id="XMLID_613_" class="st2" x1="167.9" y1="185.8" x2="167.9" y2="182.7"/>
					<line id="XMLID_612_" class="st2" x1="165" y1="191.7" x2="165" y2="188.6"/>
					<line id="XMLID_611_" class="st2" x1="167.9" y1="191.7" x2="167.9" y2="188.6"/>
					<line id="XMLID_610_" class="st2" x1="165" y1="197.8" x2="165" y2="194.7"/>
					<line id="XMLID_609_" class="st2" x1="167.9" y1="197.8" x2="167.9" y2="194.7"/>
					<line id="XMLID_608_" class="st2" x1="165" y1="203.7" x2="165" y2="200.6"/>
					<line id="XMLID_607_" class="st2" x1="167.9" y1="203.7" x2="167.9" y2="200.6"/>
					<line id="XMLID_606_" class="st2" x1="165" y1="209.2" x2="165" y2="206.1"/>
					<line id="XMLID_605_" class="st2" x1="167.9" y1="209.2" x2="167.9" y2="206.1"/>
					<line id="XMLID_604_" class="st2" x1="165" y1="215.1" x2="165" y2="211.9"/>
					<line id="XMLID_603_" class="st2" x1="167.9" y1="215.1" x2="167.9" y2="211.9"/>
				</g>
				<line id="XMLID_601_" class="st2" x1="158.5" y1="224.3" x2="174.4" y2="224.3"/>
			</g>
			<g id="XMLID_571_">
				<g id="XMLID_573_">
					<line id="XMLID_599_" class="st3" x1="63.4" y1="245.1" x2="63.4" y2="198.7"/>
					<line id="XMLID_598_" class="st3" x1="51.1" y1="245.1" x2="51.1" y2="198.7"/>
					<line id="XMLID_597_" class="st3" x1="66.5" y1="217.1" x2="47.7" y2="217.1"/>
					<line id="XMLID_596_" class="st3" x1="83.2" y1="229" x2="47.7" y2="229"/>
					<line id="XMLID_595_" class="st3" x1="66.5" y1="211.6" x2="47.7" y2="211.6"/>
					<line id="XMLID_594_" class="st3" x1="66.5" y1="198.7" x2="47.7" y2="198.7"/>
					<path id="XMLID_593_" class="st3" d="M55.3,245.1v-7.4c0-1.3,0.9-2.4,2.1-2.4h0c1.1,0,2.1,1.1,2.1,2.4v7.4"/>
					<path id="XMLID_592_" class="st3" d="M71.9,245.1v-6.7c0-2.3,4.6-4.2,6.6-4.2h0"/>
					<path id="XMLID_591_" class="st4" d="M57.5,219.5h-0.7c-0.8,0-1.5,0.7-1.5,1.5v4.7H59V221C59,220.1,58.3,219.5,57.5,219.5z"/>
					<path id="XMLID_590_" class="st4" d="M78.8,216.4h-0.7c-0.8,0-1.5,0.7-1.5,1.5v4.7h3.7v-4.7C80.3,217,79.7,216.4,78.8,216.4z"
						/>
					<path id="XMLID_589_" class="st4" d="M57.4,202.7h-0.6c-0.7,0-1.2,0.5-1.2,1.2v3.1h3v-3.1C58.6,203.3,58.1,202.7,57.4,202.7z"
						/>
					<path id="XMLID_588_" class="st3" d="M63.4,198.2c0-4.4-2.8-6.9-6.2-6.9s-6.2,2.5-6.2,6.9"/>
					<line id="XMLID_587_" class="st3" x1="57.2" y1="185.1" x2="57.2" y2="191.3"/>
					<line id="XMLID_586_" class="st3" x1="78.5" y1="203.6" x2="78.5" y2="209.7"/>
					<line id="XMLID_585_" class="st3" x1="106.1" y1="225.7" x2="106.1" y2="198.7"/>
					<line id="XMLID_584_" class="st3" x1="93.8" y1="225.7" x2="93.8" y2="198.7"/>
					<line id="XMLID_583_" class="st3" x1="109.2" y1="217.1" x2="90.5" y2="217.1"/>
					<line id="XMLID_582_" class="st3" x1="109.2" y1="211.6" x2="90.5" y2="211.6"/>
					<line id="XMLID_581_" class="st3" x1="109.2" y1="198.7" x2="90.5" y2="198.7"/>
					<path id="XMLID_580_" class="st4" d="M100.2,219.5h-0.7c-0.8,0-1.5,0.7-1.5,1.5v4.7h3.7V221C101.7,220.1,101,219.5,100.2,219.5
						z"/>
					<path id="XMLID_579_" class="st4" d="M100.1,202.7h-0.6c-0.7,0-1.2,0.5-1.2,1.2v3.1h3v-3.1
						C101.3,203.3,100.8,202.7,100.1,202.7z"/>
					<path id="XMLID_578_" class="st3" d="M106.1,198.2c0-4.4-2.8-6.9-6.2-6.9c-3.4,0-6.2,2.5-6.2,6.9"/>
					<line id="XMLID_577_" class="st3" x1="100" y1="185.1" x2="100" y2="191.3"/>
					<path id="XMLID_576_" class="st3" d="M63.4,222.6"/>
					<path id="XMLID_575_" class="st3" d="M78.5,209.7L87,214c0,2.6-0.2,4.8,1.3,6.9c1.4,1.9,3.4,2.8,5.5,3"/>
					<path id="XMLID_574_" class="st3" d="M78.7,209.7l-8.5,4.3c0,2.6,0.2,4.8-1.3,6.9c-1.4,1.9-3.4,2.8-5.5,3"/>
				</g>
				<line id="XMLID_572_" class="st3" x1="47.7" y1="245.1" x2="109.2" y2="245.1"/>
			</g>
			<g id="XMLID_554_">
				<polyline id="XMLID_570_" class="st3" points="230.2,210.1 230.2,191.2 236.8,187.1 243.5,191.2 243.5,210.1 				"/>
				<polyline id="XMLID_569_" class="st3" points="230.2,210.1 230.2,200.9 223.5,196.9 216.9,200.9 216.9,210.1 				"/>
				<g id="XMLID_564_">
					<line id="XMLID_568_" class="st3" x1="236.8" y1="193.7" x2="236.8" y2="196.9"/>
					<g id="XMLID_565_">
						<line id="XMLID_567_" class="st3" x1="239.9" y1="193.7" x2="239.9" y2="196.9"/>
						<line id="XMLID_566_" class="st3" x1="233.8" y1="193.7" x2="233.8" y2="196.9"/>
					</g>
				</g>
				<g id="XMLID_560_">
					<line id="XMLID_563_" class="st3" x1="223.5" y1="206.9" x2="223.5" y2="210.1"/>
					<g id="XMLID_561_">
						<line id="XMLID_562_" class="st3" x1="226.6" y1="206.9" x2="226.6" y2="210.1"/>
					</g>
				</g>
				<g id="XMLID_556_">
					<line id="XMLID_559_" class="st3" x1="220.2" y1="190.5" x2="220.2" y2="193.7"/>
					<g id="XMLID_557_">
						<line id="XMLID_558_" class="st3" x1="223.3" y1="190.5" x2="223.3" y2="193.7"/>
					</g>
				</g>
				<polyline id="XMLID_555_" class="st3" points="216.3,183.9 226.6,183.9 226.6,198.7 				"/>
			</g>
			<g id="XMLID_519_">
				<g id="XMLID_532_">
					<line id="XMLID_536_" class="st2" x1="141" y1="193.7" x2="141" y2="196.9"/>
					<g id="XMLID_533_">
						<line id="XMLID_535_" class="st2" x1="144.1" y1="193.7" x2="144.1" y2="196.9"/>
						<line id="XMLID_534_" class="st2" x1="138" y1="193.7" x2="138" y2="196.9"/>
					</g>
				</g>
				<g id="XMLID_528_">
					<line id="XMLID_531_" class="st2" x1="151.9" y1="213.6" x2="151.9" y2="216.8"/>
					<g id="XMLID_529_">
						<line id="XMLID_530_" class="st2" x1="155" y1="213.6" x2="155" y2="216.8"/>
					</g>
				</g>
				<g id="XMLID_526_">
					<line id="XMLID_527_" class="st2" x1="159.2" y1="199.9" x2="159.2" y2="203.1"/>
				</g>
				<g id="XMLID_522_">
					<line id="XMLID_525_" class="st2" x1="146.1" y1="206.2" x2="146.1" y2="209.4"/>
					<g id="XMLID_523_">
						<line id="XMLID_524_" class="st2" x1="149.2" y1="206.2" x2="149.2" y2="209.4"/>
					</g>
				</g>
				<polyline id="XMLID_521_" class="st2" points="135.1,190.6 148.4,190.6 148.4,203.1 				"/>
				<path id="XMLID_520_" class="st2" d="M141.8,216.8c0-0.4,0-13.7,0-13.7h13.2v-6.2h7.1"/>
			</g>
			<g id="XMLID_501_">
				<g id="XMLID_514_">
					<line id="XMLID_518_" class="st2" x1="191.7" y1="193.7" x2="191.7" y2="196.9"/>
					<g id="XMLID_515_">
						<line id="XMLID_517_" class="st2" x1="188.6" y1="193.7" x2="188.6" y2="196.9"/>
						<line id="XMLID_516_" class="st2" x1="194.8" y1="193.7" x2="194.8" y2="196.9"/>
					</g>
				</g>
				<g id="XMLID_510_">
					<line id="XMLID_513_" class="st2" x1="180.9" y1="213.6" x2="180.9" y2="216.8"/>
					<g id="XMLID_511_">
						<line id="XMLID_512_" class="st2" x1="177.8" y1="213.6" x2="177.8" y2="216.8"/>
					</g>
				</g>
				<g id="XMLID_508_">
					<line id="XMLID_509_" class="st2" x1="173.6" y1="199.9" x2="173.6" y2="203.1"/>
				</g>
				<g id="XMLID_504_">
					<line id="XMLID_507_" class="st2" x1="186.7" y1="206.2" x2="186.7" y2="209.4"/>
					<g id="XMLID_505_">
						<line id="XMLID_506_" class="st2" x1="183.6" y1="206.2" x2="183.6" y2="209.4"/>
					</g>
				</g>
				<polyline id="XMLID_503_" class="st2" points="197.7,190.6 184.3,190.6 184.3,203.1 				"/>
				<path id="XMLID_502_" class="st2" d="M191,216.8c0-0.4,0-13.7,0-13.7h-13.2v-6.2h-7.1"/>
			</g>
			<g id="XMLID_487_">
				<g id="XMLID_496_">
					<line id="XMLID_500_" class="st1" x1="347.4" y1="203.3" x2="347.4" y2="206.5"/>
					<g id="XMLID_497_">
						<line id="XMLID_499_" class="st1" x1="344.3" y1="203.3" x2="344.3" y2="206.5"/>
						<line id="XMLID_498_" class="st1" x1="350.5" y1="203.3" x2="350.5" y2="206.5"/>
					</g>
				</g>
				<g id="XMLID_494_">
					<line id="XMLID_495_" class="st1" x1="329.2" y1="209.6" x2="329.2" y2="212.8"/>
				</g>
				<g id="XMLID_490_">
					<line id="XMLID_493_" class="st1" x1="342.4" y1="215.9" x2="342.4" y2="219.1"/>
					<g id="XMLID_491_">
						<line id="XMLID_492_" class="st1" x1="339.3" y1="215.9" x2="339.3" y2="219.1"/>
					</g>
				</g>
				<polyline id="XMLID_489_" class="st1" points="353.4,200.2 340,200.2 340,212.8 				"/>
				<path id="XMLID_488_" class="st1" d="M346.7,226.5c0-0.4,0-13.7,0-13.7h-13.2v-6.2h-7.1"/>
			</g>
			<g id="XMLID_473_">
				<g id="XMLID_482_">
					<line id="XMLID_486_" class="st3" x1="217" y1="151" x2="217" y2="154.2"/>
					<g id="XMLID_483_">
						<line id="XMLID_485_" class="st3" x1="213.9" y1="151" x2="213.9" y2="154.2"/>
						<line id="XMLID_484_" class="st3" x1="220" y1="151" x2="220" y2="154.2"/>
					</g>
				</g>
				<g id="XMLID_480_">
					<line id="XMLID_481_" class="st3" x1="198.8" y1="157.2" x2="198.8" y2="160.4"/>
				</g>
				<g id="XMLID_476_">
					<line id="XMLID_479_" class="st3" x1="211.9" y1="163.5" x2="211.9" y2="166.7"/>
					<g id="XMLID_477_">
						<line id="XMLID_478_" class="st3" x1="208.9" y1="163.5" x2="208.9" y2="166.7"/>
					</g>
				</g>
				<polyline id="XMLID_475_" class="st3" points="222.9,147.5 209.6,147.5 209.6,160.4 				"/>
				<path id="XMLID_474_" class="st3" d="M216.3,174.1c0-0.4,0-13.7,0-13.7h-13.2v-6.2H196"/>
			</g>
			<g id="XMLID_461_">
				<line id="XMLID_464_" class="st2" x1="124" y1="207.4" x2="124" y2="216.3"/>
				
					<ellipse id="XMLID_463_" transform="matrix(0.1912 -0.9816 0.9816 0.1912 -100.9599 287.2671)" class="st2" cx="123.8" cy="204.9" rx="5.9" ry="5.9"/>
				<line id="XMLID_462_" class="st2" x1="121" y1="216.3" x2="126.7" y2="216.3"/>
			</g>
			<g id="XMLID_456_">
				<g id="XMLID_457_">
					<line id="XMLID_460_" class="st2" x1="262.2" y1="193.5" x2="262.2" y2="202.4"/>
					
						<ellipse id="XMLID_459_" transform="matrix(0.1912 -0.9816 0.9816 0.1912 24.4746 411.7448)" class="st2" cx="262.1" cy="191" rx="5.9" ry="5.9"/>
					<line id="XMLID_458_" class="st2" x1="259.2" y1="202.4" x2="265.2" y2="202.4"/>
				</g>
			</g>
			<g id="XMLID_451_">
				<g id="XMLID_452_">
					<line id="XMLID_455_" class="st2" x1="279.8" y1="193.5" x2="279.8" y2="202.4"/>
					
						<ellipse id="XMLID_454_" transform="matrix(0.1912 -0.9816 0.9816 0.1912 38.7148 429.0266)" class="st2" cx="279.7" cy="191" rx="5.9" ry="5.9"/>
					<line id="XMLID_453_" class="st2" x1="276.8" y1="202.4" x2="282.8" y2="202.4"/>
				</g>
			</g>
			<g id="XMLID_429_">
				<g id="XMLID_447_">
					<line id="XMLID_450_" class="st1" x1="299.5" y1="196.6" x2="299.5" y2="199.8"/>
					<g id="XMLID_448_">
						<line id="XMLID_449_" class="st1" x1="302.6" y1="196.6" x2="302.6" y2="199.8"/>
					</g>
				</g>
				<g id="XMLID_443_">
					<line id="XMLID_446_" class="st1" x1="299.5" y1="203.4" x2="299.5" y2="206.6"/>
					<g id="XMLID_444_">
						<line id="XMLID_445_" class="st1" x1="302.6" y1="203.4" x2="302.6" y2="206.6"/>
					</g>
				</g>
				<g id="XMLID_439_">
					<line id="XMLID_442_" class="st1" x1="318.8" y1="190.6" x2="318.8" y2="193.8"/>
					<g id="XMLID_440_">
						<line id="XMLID_441_" class="st1" x1="321.9" y1="190.6" x2="321.9" y2="193.8"/>
					</g>
				</g>
				<g id="XMLID_435_">
					<line id="XMLID_438_" class="st1" x1="318.8" y1="197.3" x2="318.8" y2="200.5"/>
					<g id="XMLID_436_">
						<line id="XMLID_437_" class="st1" x1="321.9" y1="197.3" x2="321.9" y2="200.5"/>
					</g>
				</g>
				<line id="XMLID_434_" class="st1" x1="310.6" y1="203.4" x2="310.6" y2="206.6"/>
				<line id="XMLID_433_" class="st1" x1="310.6" y1="210.1" x2="310.6" y2="213.3"/>
				<polyline id="XMLID_432_" class="st1" points="324.5,187 314.4,187 314.4,213.3 				"/>
				<polyline id="XMLID_431_" class="st1" points="296.7,193.4 306.8,193.4 306.8,213.3 				"/>
				<line id="XMLID_430_" class="st1" x1="306.8" y1="200.2" x2="314.4" y2="200.2"/>
			</g>
			<g id="XMLID_356_">
				<g id="XMLID_411_">
					<g id="XMLID_424_">
						<line id="XMLID_428_" class="st1" x1="78.5" y1="163.1" x2="78.5" y2="166.3"/>
						<g id="XMLID_425_">
							<line id="XMLID_427_" class="st1" x1="75.4" y1="163.1" x2="75.4" y2="166.3"/>
							<line id="XMLID_426_" class="st1" x1="81.6" y1="163.1" x2="81.6" y2="166.3"/>
						</g>
					</g>
					<g id="XMLID_420_">
						<line id="XMLID_423_" class="st1" x1="67.7" y1="183" x2="67.7" y2="186.2"/>
						<g id="XMLID_421_">
							<line id="XMLID_422_" class="st1" x1="64.6" y1="183" x2="64.6" y2="186.2"/>
						</g>
					</g>
					<g id="XMLID_418_">
						<line id="XMLID_419_" class="st1" x1="60.4" y1="169.3" x2="60.4" y2="172.5"/>
					</g>
					<g id="XMLID_414_">
						<line id="XMLID_417_" class="st1" x1="73.5" y1="175.6" x2="73.5" y2="178.8"/>
						<g id="XMLID_415_">
							<line id="XMLID_416_" class="st1" x1="70.4" y1="175.6" x2="70.4" y2="178.8"/>
						</g>
					</g>
					<polyline id="XMLID_413_" class="st1" points="84.5,159.9 71.1,159.9 71.1,172.5 					"/>
					<path id="XMLID_412_" class="st1" d="M77.8,186.2c0-0.4,0-13.7,0-13.7H64.6v-6.2h-7.1"/>
				</g>
				<g id="XMLID_393_">
					<g id="XMLID_406_">
						<line id="XMLID_410_" class="st1" x1="39.6" y1="137.7" x2="39.6" y2="140.9"/>
						<g id="XMLID_407_">
							<line id="XMLID_409_" class="st1" x1="36.5" y1="137.7" x2="36.5" y2="140.9"/>
							<line id="XMLID_408_" class="st1" x1="42.7" y1="137.7" x2="42.7" y2="140.9"/>
						</g>
					</g>
					<g id="XMLID_402_">
						<line id="XMLID_405_" class="st1" x1="28.7" y1="157.7" x2="28.7" y2="160.9"/>
						<g id="XMLID_403_">
							<line id="XMLID_404_" class="st1" x1="25.7" y1="157.7" x2="25.7" y2="160.9"/>
						</g>
					</g>
					<g id="XMLID_400_">
						<line id="XMLID_401_" class="st1" x1="21.5" y1="144" x2="21.5" y2="147.2"/>
					</g>
					<g id="XMLID_396_">
						<line id="XMLID_399_" class="st1" x1="34.6" y1="150.3" x2="34.6" y2="153.5"/>
						<g id="XMLID_397_">
							<line id="XMLID_398_" class="st1" x1="31.5" y1="150.3" x2="31.5" y2="153.5"/>
						</g>
					</g>
					<polyline id="XMLID_395_" class="st1" points="45.6,134.6 32.2,134.6 32.2,147.2 					"/>
					<path id="XMLID_394_" class="st1" d="M38.9,160.9c0-0.4,0-13.7,0-13.7H25.7v-6.2h-7.1"/>
				</g>
				<g id="XMLID_379_">
					<g id="XMLID_388_">
						<line id="XMLID_392_" class="st1" x1="67.1" y1="138" x2="67.1" y2="141.2"/>
						<g id="XMLID_389_">
							<line id="XMLID_391_" class="st1" x1="70.2" y1="138" x2="70.2" y2="141.2"/>
							<line id="XMLID_390_" class="st1" x1="64" y1="138" x2="64" y2="141.2"/>
						</g>
					</g>
					<g id="XMLID_386_">
						<line id="XMLID_387_" class="st1" x1="49.6" y1="140.4" x2="49.6" y2="143.6"/>
					</g>
					<g id="XMLID_382_">
						<line id="XMLID_385_" class="st1" x1="55.5" y1="133" x2="55.5" y2="136.2"/>
						<g id="XMLID_383_">
							<line id="XMLID_384_" class="st1" x1="52.4" y1="133" x2="52.4" y2="136.2"/>
						</g>
					</g>
					<polyline id="XMLID_381_" class="st1" points="59.8,134.9 74.5,134.9 74.5,147.5 					"/>
					<path id="XMLID_380_" class="st1" d="M59.8,143.6c0-0.4,0-13.7,0-13.7H46.6v20.2"/>
				</g>
				<g id="XMLID_357_">
					<g id="XMLID_375_">
						<line id="XMLID_378_" class="st1" x1="41.7" y1="157.1" x2="41.7" y2="160.3"/>
						<g id="XMLID_376_">
							<line id="XMLID_377_" class="st1" x1="44.8" y1="157.1" x2="44.8" y2="160.3"/>
						</g>
					</g>
					<g id="XMLID_371_">
						<line id="XMLID_374_" class="st1" x1="41.7" y1="163.8" x2="41.7" y2="167"/>
						<g id="XMLID_372_">
							<line id="XMLID_373_" class="st1" x1="44.8" y1="163.8" x2="44.8" y2="167"/>
						</g>
					</g>
					<g id="XMLID_367_">
						<line id="XMLID_370_" class="st1" x1="61" y1="151" x2="61" y2="154.2"/>
						<g id="XMLID_368_">
							<line id="XMLID_369_" class="st1" x1="64.1" y1="151" x2="64.1" y2="154.2"/>
						</g>
					</g>
					<g id="XMLID_363_">
						<line id="XMLID_366_" class="st1" x1="61" y1="157.8" x2="61" y2="161"/>
						<g id="XMLID_364_">
							<line id="XMLID_365_" class="st1" x1="64.1" y1="157.8" x2="64.1" y2="161"/>
						</g>
					</g>
					<line id="XMLID_362_" class="st1" x1="52.8" y1="163.8" x2="52.8" y2="167"/>
					<line id="XMLID_361_" class="st1" x1="52.8" y1="170.6" x2="52.8" y2="173.8"/>
					<polyline id="XMLID_360_" class="st1" points="66.7,147.5 56.6,147.5 56.6,173.8 					"/>
					<polyline id="XMLID_359_" class="st1" points="38.9,153.9 49,153.9 49,173.8 					"/>
					<line id="XMLID_358_" class="st1" x1="49" y1="160.6" x2="56.6" y2="160.6"/>
				</g>
			</g>
			<line id="XMLID_355_" class="st3" x1="251.9" y1="147.5" x2="81.7" y2="147.5"/>
			<g id="XMLID_336_">
				<g id="XMLID_351_">
					<path id="XMLID_354_" class="st2" d="M91.4,267.1"/>
					<path id="XMLID_353_" class="st2" d="M46.7,268.9c1.3,0,2.6-0.5,3.6-1.5l0.8-0.8c1.9-1.9,5.1-1.9,7,0l0.8,0.8c2,2,5.3,2,7.3,0
						l0.8-0.8c1.9-1.9,5-1.9,7,0l0.8,0.8c1,1,2.3,1.5,3.6,1.5"/>
					<path id="XMLID_352_" class="st2" d="M78.5,268.9c1.3,0,2.6-0.5,3.6-1.5l0.8-0.8c1.9-1.9,5.1-1.9,7,0l0.8,0.8c2,2,5.3,2,7.3,0
						l0.8-0.8c1.9-1.9,5-1.9,7,0l0.8,0.8c1,1,2.3,1.5,3.6,1.5"/>
				</g>
				<g id="XMLID_348_">
					<path id="XMLID_350_" class="st2" d="M154.9,267.1"/>
					<path id="XMLID_349_" class="st2" d="M110.3,268.9c1.3,0,2.6-0.5,3.6-1.5l0.8-0.8c1.9-1.9,5.1-1.9,7,0l0.8,0.8
						c2,2.3,2.6,1,3.3,1.3"/>
				</g>
				<g id="XMLID_345_">
					<path id="XMLID_347_" class="st2" d="M218.4,267.1"/>
					<path id="XMLID_346_" class="st2" d="M221.2,268.9c1.4,0.1,2.8-0.4,3.8-1.5l0.8-0.8c1.9-1.9,5-1.9,7,0l0.8,0.8
						c1,1,2.3,1.5,3.6,1.5"/>
				</g>
				<g id="XMLID_341_">
					<path id="XMLID_344_" class="st2" d="M282,267.1"/>
					<path id="XMLID_343_" class="st2" d="M237.3,268.9c1.3,0,2.6-0.5,3.6-1.5l0.8-0.8c1.9-1.9,5.1-1.9,7,0l0.8,0.8c2,2,5.3,2,7.3,0
						l0.8-0.8c1.9-1.9,5-1.9,7,0l0.8,0.8c1,1,2.3,1.5,3.6,1.5"/>
					<path id="XMLID_342_" class="st2" d="M269,268.9c1.3,0,2.6-0.5,3.6-1.5l0.8-0.8c1.9-1.9,5.1-1.9,7,0l0.8,0.8c2,2,5.3,2,7.3,0
						l0.8-0.8c1.9-1.9,5-1.9,7,0l0.8,0.8c1,1,2.3,1.5,3.6,1.5"/>
				</g>
				<g id="XMLID_337_">
					<path id="XMLID_340_" class="st2" d="M345.5,267.1"/>
					<path id="XMLID_339_" class="st2" d="M300.8,268.9c1.3,0,2.6-0.5,3.6-1.5l0.8-0.8c1.9-1.9,5.1-1.9,7,0l0.8,0.8c2,2,5.3,2,7.3,0
						l0.8-0.8c1.9-1.9,5-1.9,7,0l0.8,0.8c1,1,2.3,1.5,3.6,1.5"/>
					<path id="XMLID_338_" class="st2" d="M332.5,268.9c1.3,0,2.6-0.5,3.6-1.5l0.8-0.8c1.9-1.9,5.1-1.9,7,0l0.8,0.8c2,2,5.3,2,7.3,0
						l0.8-0.8c1.9-1.9,5-1.9,7,0l0.8,0.8c1,1,2.3,1.5,3.6,1.5"/>
				</g>
			</g>
			<g id="XMLID_319_">
				<g id="XMLID_332_">
					<path id="XMLID_335_" class="st2" d="M91.4,282.8"/>
					<path id="XMLID_334_" class="st2" d="M46.7,284.7c1.3,0,2.6-0.5,3.6-1.5l0.8-0.8c1.9-1.9,5.1-1.9,7,0l0.8,0.8c2,2,5.3,2,7.3,0
						l0.8-0.8c1.9-1.9,5-1.9,7,0l0.8,0.8c1,1,2.3,1.5,3.6,1.5"/>
					<path id="XMLID_333_" class="st2" d="M78.5,284.7c1.3,0,2.6-0.5,3.6-1.5l0.8-0.8c1.9-1.9,5.1-1.9,7,0l0.8,0.8c2,2,5.3,2,7.3,0
						l0.8-0.8c1.9-1.9,5-1.9,7,0l0.8,0.8c1,1,2.3,1.5,3.6,1.5"/>
				</g>
				<g id="XMLID_328_">
					<path id="XMLID_331_" class="st2" d="M154.9,282.8"/>
					<path id="XMLID_330_" class="st2" d="M110.3,284.7c1.3,0,2.6-0.5,3.6-1.5l0.8-0.8c1.9-1.9,5.1-1.9,7,0l0.8,0.8c2,2,5.3,2,7.3,0
						l0.8-0.8c1.9-1.9,5-1.9,7,0l0.8,0.8c1,1,2.3,1.5,3.6,1.5"/>
					<path id="XMLID_329_" class="st2" d="M142,284.7c1.3,0,2.6-0.5,3.6-1.5l0.8-0.8c1.9-1.9,5.1-1.9,7,0l0.8,0.8c2,2,5.3,2,7.3,0
						l0.8-0.8c1.9-1.9,5-1.9,7,0l0.8,0.8c1,1,2.3,1.5,3.6,1.5"/>
				</g>
				<g id="XMLID_324_">
					<path id="XMLID_327_" class="st2" d="M218.4,282.8"/>
					<path id="XMLID_326_" class="st2" d="M173.8,284.7c1.3,0,2.6-0.5,3.6-1.5l0.8-0.8c1.9-1.9,5.1-1.9,7,0l0.8,0.8c2,2,5.3,2,7.3,0
						l0.8-0.8c1.9-1.9,5-1.9,7,0l0.8,0.8c1,1,2.3,1.5,3.6,1.5"/>
					<path id="XMLID_325_" class="st2" d="M205.5,284.7c1.3,0,2.6-0.5,3.6-1.5l0.8-0.8c1.9-1.9,5.1-1.9,7,0l0.8,0.8c2,2,5.3,2,7.3,0
						l0.8-0.8c1.9-1.9,5-1.9,7,0l0.8,0.8c1,1,2.3,1.5,3.6,1.5"/>
				</g>
				<g id="XMLID_320_">
					<path id="XMLID_323_" class="st2" d="M282,282.8"/>
					<path id="XMLID_322_" class="st2" d="M237.3,284.7c1.3,0,2.6-0.5,3.6-1.5l0.8-0.8c1.9-1.9,5.1-1.9,7,0l0.8,0.8c2,2,5.3,2,7.3,0
						l0.8-0.8c1.9-1.9,5-1.9,7,0l0.8,0.8c1,1,2.3,1.5,3.6,1.5"/>
					<path id="XMLID_321_" class="st2" d="M269,284.7c1.3,0,2.6-0.5,3.6-1.5l0.8-0.8c1.9-1.9,5.1-1.9,7,0l0.8,0.8c2,2,5.3,2,7.3,0
						l0.8-0.8c1.9-1.9,5-1.9,7,0l0.8,0.8c1,1,2.3,1.5,3.6,1.5"/>
				</g>
			</g>
			<g id="XMLID_299_">
				<g id="XMLID_315_">
					<path id="XMLID_318_" class="st2" d="M91.2,299.9"/>
					<path id="XMLID_317_" class="st2" d="M46.5,301.8c1.3,0,2.6-0.5,3.6-1.5l0.8-0.8c1.9-1.9,5.1-1.9,7,0l0.8,0.8c2,2,5.3,2,7.3,0
						l0.8-0.8c1.9-1.9,5-1.9,7,0l0.8,0.8c1,1,2.3,1.5,3.6,1.5"/>
					<path id="XMLID_316_" class="st2" d="M78.2,301.8c1.3,0,2.6-0.5,3.6-1.5l0.8-0.8c1.9-1.9,5.1-1.9,7,0l0.8,0.8c2,2,5.3,2,7.3,0
						l0.8-0.8c1.9-1.9,5-1.9,7,0l0.8,0.8c1,1,2.3,1.5,3.6,1.5"/>
				</g>
				<g id="XMLID_311_">
					<path id="XMLID_314_" class="st2" d="M154.7,299.9"/>
					<path id="XMLID_313_" class="st2" d="M110,301.8c1.3,0,2.6-0.5,3.6-1.5l0.8-0.8c1.9-1.9,5.1-1.9,7,0l0.8,0.8c2,2,5.3,2,7.3,0
						l0.8-0.8c1.9-1.9,5-1.9,7,0l0.8,0.8c1,1,2.3,1.5,3.6,1.5"/>
					<path id="XMLID_312_" class="st2" d="M141.7,301.8c1.3,0,2.6-0.5,3.6-1.5l0.8-0.8c1.9-1.9,5.1-1.9,7,0l0.8,0.8c2,2,5.3,2,7.3,0
						l0.8-0.8c1.9-1.9,5-1.9,7,0l0.8,0.8c1,1,2.3,1.5,3.6,1.5"/>
				</g>
				<g id="XMLID_308_">
					<path id="XMLID_310_" class="st2" d="M218.2,299.9"/>
					<path id="XMLID_309_" class="st2" d="M173.5,301.8c1.3,0,2.6-0.5,3.6-1.5l0.8-0.8c1.6-1.6,4.2-1.9,6.1-0.7"/>
				</g>
				<g id="XMLID_304_">
					<path id="XMLID_307_" class="st2" d="M281.7,299.9"/>
					<path id="XMLID_306_" class="st2" d="M241.5,299.4c0.2-0.2,0.3-0.3,0.5-0.4c1.9-1.5,4.7-1.3,6.5,0.4l0.8,0.8c2,2,5.3,2,7.3,0
						l0.8-0.8c1.9-1.9,5-1.9,7,0l0.8,0.8c1,1,2.3,1.5,3.6,1.5"/>
					<path id="XMLID_305_" class="st2" d="M268.8,301.8c1.3,0,2.6-0.5,3.6-1.5l0.8-0.8c1.9-1.9,5.1-1.9,7,0l0.8,0.8c2,2,5.3,2,7.3,0
						l0.8-0.8c1.9-1.9,5-1.9,7,0l0.8,0.8c1,1,2.3,1.5,3.6,1.5"/>
				</g>
				<g id="XMLID_300_">
					<path id="XMLID_303_" class="st2" d="M345.2,299.9"/>
					<path id="XMLID_302_" class="st2" d="M300.5,301.8c1.3,0,2.6-0.5,3.6-1.5l0.8-0.8c1.9-1.9,5.1-1.9,7,0l0.8,0.8c2,2,5.3,2,7.3,0
						l0.8-0.8c1.9-1.9,5-1.9,7,0l0.8,0.8c1,1,2.3,1.5,3.6,1.5"/>
					<path id="XMLID_301_" class="st2" d="M332.3,301.8c1.3,0,2.6-0.5,3.6-1.5l0.8-0.8c1.9-1.9,5.1-1.9,7,0l0.8,0.8c2,2,5.3,2,7.3,0
						l0.8-0.8c1.9-1.9,5-1.9,7,0l0.8,0.8c1,1,2.3,1.5,3.6,1.5"/>
				</g>
			</g>
			<g id="XMLID_294_">
				<g id="XMLID_295_">
					<path id="XMLID_298_" class="st2" d="M136.1,157.8"/>
					<path id="XMLID_297_" class="st2" d="M91.5,156c1.3,0,2.6,0.5,3.6,1.5l0.8,0.8c1.9,1.9,5.1,1.9,7,0l0.8-0.8c2-2,5.3-2,7.3,0
						l0.8,0.8c1.9,1.9,5,1.9,7,0l0.8-0.8c1-1,2.3-1.5,3.6-1.5"/>
					<path id="XMLID_296_" class="st2" d="M123.2,156c1.3,0,2.6,0.5,3.6,1.5l0.8,0.8c1.9,1.9,5.1,1.9,7,0l0.8-0.8c2-2,5.3-2,7.3,0
						l0.8,0.8c1.9,1.9,5,1.9,7,0l0.8-0.8c1-1,2.3-1.5,3.6-1.5"/>
				</g>
			</g>
			<g id="XMLID_290_">
				<g id="XMLID_291_">
					<path id="XMLID_293_" class="st2" d="M120.3,167.8"/>
					<path id="XMLID_292_" class="st2" d="M107.3,166c1.3,0,2.6,0.5,3.6,1.5l0.8,0.8c1.9,1.9,5.1,1.9,7,0l0.8-0.8c2-2,5.3-2,7.3,0
						l0.8,0.8c1.9,1.9,5,1.9,7,0l0.8-0.8c1-1,2.3-1.5,3.6-1.5"/>
				</g>
			</g>
			<g id="XMLID_280_">
				<polyline id="XMLID_289_" class="st5" points="134.8,245.2 134.8,232.8 127.4,225.8 120.1,232.8 79.3,232.8 				"/>
				<polyline id="XMLID_288_" class="st5" points="79.3,245.2 79.3,232.8 86.6,225.5 127.4,225.5 				"/>
				<path id="XMLID_287_" class="st5" d="M124.8,245.2v-4.7c0-1.3,1.1-2.4,2.4-2.4h0c1.3,0,2.4,1.1,2.4,2.4v4.7"/>
				<line id="XMLID_286_" class="st5" x1="88.2" y1="237.1" x2="88.2" y2="241.5"/>
				<line id="XMLID_285_" class="st5" x1="95.3" y1="237.1" x2="95.3" y2="241.5"/>
				<line id="XMLID_284_" class="st5" x1="102.6" y1="237.1" x2="102.6" y2="241.5"/>
				<line id="XMLID_283_" class="st5" x1="109.7" y1="237.1" x2="109.7" y2="241.5"/>
				<line id="XMLID_282_" class="st5" x1="116.8" y1="237.1" x2="116.8" y2="241.5"/>
				<polyline id="XMLID_281_" class="st5" points="10.7,245.2 140.2,245.2 140.2,249.8 				"/>
			</g>
			<g id="XMLID_276_">
				<line id="XMLID_279_" class="st3" x1="214.3" y1="251" x2="230.4" y2="251"/>
				<line id="XMLID_278_" class="st3" x1="221.2" y1="256.1" x2="235.1" y2="256.1"/>
				<line id="XMLID_277_" class="st3" x1="209.5" y1="251" x2="211.9" y2="251"/>
			</g>
			<g id="XMLID_272_">
				<line id="XMLID_275_" class="st2" x1="228.8" y1="158.4" x2="238.8" y2="158.4"/>
				<line id="XMLID_274_" class="st2" x1="233.1" y1="163.6" x2="241.7" y2="163.6"/>
				<line id="XMLID_273_" class="st2" x1="225.8" y1="158.4" x2="227.4" y2="158.4"/>
			</g>
			<g id="XMLID_268_">
				<line id="XMLID_271_" class="st5" x1="317.5" y1="241.6" x2="350.3" y2="241.6"/>
				<line id="XMLID_270_" class="st5" x1="331.6" y1="248.5" x2="359.9" y2="248.5"/>
				<line id="XMLID_269_" class="st5" x1="357.4" y1="241.6" x2="362.4" y2="241.6"/>
			</g>
			<g id="XMLID_264_">
				<line id="XMLID_267_" class="st5" x1="70" y1="251.9" x2="102.8" y2="251.9"/>
				<line id="XMLID_266_" class="st5" x1="84.1" y1="258.9" x2="112.4" y2="258.9"/>
				<line id="XMLID_265_" class="st5" x1="109.8" y1="251.9" x2="114.9" y2="251.9"/>
			</g>
			<g id="XMLID_258_">
				<line id="XMLID_261_" class="st5" x1="89.9" y1="173" x2="101.2" y2="173"/>
				<line id="XMLID_260_" class="st5" x1="95.4" y1="178.2" x2="106.7" y2="178.2"/>
				<line id="XMLID_259_" class="st5" x1="85.3" y1="173" x2="87.3" y2="173"/>
			</g>
			<g id="XMLID_234_">
				<polyline id="XMLID_257_" class="st1" points="237.1,227.3 237.1,219.7 211.6,207.8 186.1,219.7 186.1,226.8 				"/>
				<rect id="XMLID_256_" x="181.9" y="227" class="st1" width="59.1" height="3.2"/>
				<polyline id="XMLID_255_" class="st1" points="232.6,227 232.6,221.4 211.6,211.6 190.5,221.4 190.5,227 				"/>
				<g id="XMLID_251_">
					<rect id="XMLID_254_" x="186.1" y="230.3" class="st1" width="17" height="10.7"/>
					<rect id="XMLID_253_" x="203.1" y="230.3" class="st1" width="17" height="10.7"/>
					<rect id="XMLID_252_" x="220.1" y="230.3" class="st1" width="17" height="10.7"/>
				</g>
				<g id="XMLID_240_">
					<line id="XMLID_250_" class="st1" x1="195.1" y1="224.7" x2="195.1" y2="222.6"/>
					<line id="XMLID_249_" class="st1" x1="198.7" y1="224.7" x2="198.7" y2="222.6"/>
					<line id="XMLID_248_" class="st1" x1="202.4" y1="224.7" x2="202.4" y2="222.6"/>
					<line id="XMLID_247_" class="st1" x1="206.1" y1="224.7" x2="206.1" y2="222.6"/>
					<line id="XMLID_246_" class="st1" x1="209.7" y1="224.7" x2="209.7" y2="222.6"/>
					<line id="XMLID_245_" class="st1" x1="213.4" y1="224.7" x2="213.4" y2="222.6"/>
					<line id="XMLID_244_" class="st1" x1="217.1" y1="224.7" x2="217.1" y2="222.6"/>
					<line id="XMLID_243_" class="st1" x1="220.7" y1="224.7" x2="220.7" y2="222.6"/>
					<line id="XMLID_242_" class="st1" x1="224.4" y1="224.7" x2="224.4" y2="222.6"/>
					<line id="XMLID_241_" class="st1" x1="228.1" y1="224.7" x2="228.1" y2="222.6"/>
				</g>
				<line id="XMLID_239_" class="st1" x1="194.6" y1="240.9" x2="194.6" y2="235.6"/>
				<line id="XMLID_238_" class="st1" x1="211.5" y1="240.9" x2="211.5" y2="235.6"/>
				<line id="XMLID_237_" class="st1" x1="228.6" y1="240.9" x2="228.6" y2="235.6"/>
				<line id="XMLID_236_" class="st1" x1="190.5" y1="221.4" x2="186.1" y2="221.4"/>
				<line id="XMLID_235_" class="st1" x1="232.6" y1="221.4" x2="237.1" y2="221.4"/>
			</g>
			<line id="XMLID_233_" class="st1" x1="180.2" y1="240.9" x2="242.8" y2="240.9"/>
			<g id="XMLID_217_">
				<path id="XMLID_232_" class="st3" d="M222.8,147.5c0.7-2.2,1.4-4.5,2.1-6.7c1.3-4.2,2.8-8.4,4-12.7c0.6-2.2-4-2.8-5.7-3.1
					c-2.4-0.5-4.7-0.9-7.1-1.3c-3.6-0.6-7.2-1-10.9-1.3c-4.8-0.5-9.5-0.8-14.3-0.9c-3-0.1-6-0.2-9-0.2c-3,0-6,0-9,0.2
					c-4.8,0.2-9.5,0.5-14.3,0.9c-3.6,0.3-7.3,0.8-10.9,1.3c-2.4,0.4-4.8,0.8-7.1,1.3c-1.7,0.4-6.3,1-5.7,3.1c1.2,4.3,2.7,8.5,4,12.7
					c0.7,2.2,1.4,4.5,2.1,6.7"/>
				<path id="XMLID_231_" class="st3" d="M213.1,123.2c0.9-2.2,0,0,0.8-2.3c0.4-1.2-2.8-1.5-3.9-1.7c-1.6-0.3-3.2-0.5-4.9-0.7
					c-2.5-0.3-4.9-0.5-7.4-0.7c-3.3-0.2-6.5-0.4-9.8-0.5c-2.1-0.1-4.1-0.1-6.2-0.1c-2.1,0-4.1,0-6.2,0.1c-3.3,0.1-6.5,0.2-9.8,0.5
					c-2.5,0.2-5,0.4-7.4,0.7c-1.6,0.2-3.2,0.4-4.9,0.7c-1.1,0.2-4.3,0.5-3.9,1.7c0.8,2.3-0.1,0,0.8,2.3"/>
				<g id="XMLID_222_">
					<path id="XMLID_230_" class="st3" d="M133.3,130.4c1.7-0.5,8.9-2.7,48.5-2.7"/>
					<path id="XMLID_229_" class="st3" d="M134.2,134c3-0.8,13.4-2.4,47.6-2.4"/>
					<path id="XMLID_228_" class="st3" d="M135.1,137.7c4-0.8,15.3-2.2,46.7-2.2"/>
					<path id="XMLID_227_" class="st3" d="M136.2,141.5c4.8-0.8,16.7-2,45.6-2"/>
					<path id="XMLID_226_" class="st3" d="M230.4,130.4c-1.7-0.5-8.9-2.7-48.5-2.7"/>
					<path id="XMLID_225_" class="st3" d="M229.4,134c-3-0.8-13.4-2.4-47.6-2.4"/>
					<path id="XMLID_224_" class="st3" d="M228.5,137.7c-4-0.8-15.3-2.2-46.7-2.2"/>
					<path id="XMLID_223_" class="st3" d="M227.5,141.5c-4.8-0.8-16.7-2-45.6-2"/>
				</g>
				<line id="XMLID_221_" class="st3" x1="133" y1="147.5" x2="230.9" y2="147.5"/>
				<line id="XMLID_220_" class="st3" x1="180" y1="121.2" x2="180" y2="147.5"/>
				<line id="XMLID_219_" class="st3" x1="159" y1="147.5" x2="156.6" y2="122.3"/>
				<line id="XMLID_218_" class="st3" x1="202.3" y1="147.5" x2="204.7" y2="122.3"/>
			</g>
			<g id="XMLID_209_">
				<g id="XMLID_211_">
					<polyline id="XMLID_216_" class="st1" points="135.6,281.2 121.1,260.4 166.7,260.4 171.7,265.9 221.9,265.9 214.8,281.2 					
						"/>
					<rect id="XMLID_215_" x="148.9" y="250.4" class="st1" width="17.3" height="10.1"/>
					<rect id="XMLID_214_" x="177.5" y="251.5" class="st1" width="20.3" height="14.4"/>
					<rect id="XMLID_213_" x="148.9" y="241.8" class="st1" width="17.3" height="8.5"/>
					<rect id="XMLID_212_" x="131.6" y="250.4" class="st1" width="17.3" height="10.1"/>
				</g>
				<line id="XMLID_210_" class="st1" x1="130.1" y1="273.2" x2="218.5" y2="273.2"/>
			</g>
			<g id="XMLID_184_">
				<g id="XMLID_186_">
					<g id="XMLID_188_">
						<g id="XMLID_189_">
							<line id="XMLID_208_" class="st5" x1="268.1" y1="246.5" x2="268.1" y2="249.8"/>
							<g id="XMLID_199_">
								<g id="XMLID_203_">
									<line id="XMLID_207_" class="st5" x1="282" y1="238" x2="282" y2="239.4"/>
									<g id="XMLID_204_">
										<line id="XMLID_206_" class="st5" x1="275.5" y1="238" x2="275.5" y2="239.4"/>
										<line id="XMLID_205_" class="st5" x1="288.4" y1="238" x2="288.4" y2="239.4"/>
									</g>
								</g>
								<g id="XMLID_200_">
									<line id="XMLID_202_" class="st5" x1="268.2" y1="238" x2="268.2" y2="239.4"/>
									<line id="XMLID_201_" class="st5" x1="295.7" y1="238" x2="295.7" y2="239.4"/>
								</g>
							</g>
							<line id="XMLID_198_" class="st5" x1="295.8" y1="246.5" x2="295.8" y2="249.8"/>
							<rect id="XMLID_197_" x="255.2" y="235.7" class="st5" width="53.7" height="5.6"/>
							<polyline id="XMLID_196_" class="st5" points="284.6,232.3 304.9,232.3 304.9,235.7 268.1,235.7 268.1,232.3 279.3,232.3 
															"/>
							<polygon id="XMLID_195_" class="st5" points="310.3,255.4 253.6,255.4 257.2,241.4 306.9,241.4 							"/>
							<rect id="XMLID_194_" x="279.3" y="220.3" class="st5" width="5.3" height="15.4"/>
							<rect id="XMLID_193_" x="279.3" y="225.4" class="st5" width="5.3" height="5.1"/>
							<path id="XMLID_192_" class="st5" d="M282.5,207.9h-1c-1.2,0-2.2,1-2.2,2.2v5.7h5.3V210C284.6,208.8,283.7,207.9,282.5,207.9
								z"/>
							<rect id="XMLID_191_" x="277.2" y="215.7" class="st5" width="9.6" height="4.6"/>
							<path id="XMLID_190_" class="st5" d="M282.4,246.5h-0.9c-1,0-1.8,0.8-1.8,1.8v7.1h4.5v-7.1
								C284.2,247.3,283.4,246.5,282.4,246.5z"/>
						</g>
					</g>
					<line id="XMLID_187_" class="st5" x1="247.6" y1="255.4" x2="316.3" y2="255.4"/>
				</g>
				<line id="XMLID_185_" class="st5" x1="279.3" y1="211.3" x2="284.6" y2="211.3"/>
			</g>
			<g id="XMLID_175_">
				<path id="XMLID_183_" class="st2" d="M95.2,107.9c0.3-1.6-0.8-3.2-2.5-3.4c-0.9-0.1-1.7,0.1-2.3,0.6c-0.2-1.4-1.2-2.7-2.6-3.4
					c-2.2-0.9-4.8,0.1-5.7,2.3c-0.3,0.8-0.4,1.6-0.3,2.3c-0.4-0.3-0.8-0.5-1.4-0.6c-1.6-0.3-3.2,0.8-3.4,2.5c0,0.3,0,0.5,0,0.8
					c-0.4-0.2-0.8-0.4-1.3-0.4c-1.3,0-2.4,1-2.5,2.2c-0.5-0.5-1.1-0.8-1.8-0.8c-1.4,0-2.5,1.1-2.5,2.5c0,1.4,1.1,2.5,2.5,2.5h-6.7"
					/>
				<path id="XMLID_182_" class="st2" d="M78.1,112.5C78.1,112.5,78.1,112.5,78.1,112.5"/>
				<line id="XMLID_181_" class="st2" x1="90.6" y1="114.2" x2="99.4" y2="114.2"/>
				<line id="XMLID_180_" class="st2" x1="100" y1="114.2" x2="101.4" y2="114.2"/>
				<polyline id="XMLID_179_" class="st2" points="103.2,114.2 103.5,114.2 106.6,114.2 				"/>
				<line id="XMLID_178_" class="st2" x1="88.6" y1="118.5" x2="61" y2="118.5"/>
				<line id="XMLID_177_" class="st2" x1="54.6" y1="118.5" x2="51.6" y2="118.5"/>
				<line id="XMLID_176_" class="st2" x1="60.1" y1="118.5" x2="57.2" y2="118.5"/>
			</g>
			<g id="XMLID_169_">
				<line id="XMLID_174_" class="st2" x1="307.8" y1="113.8" x2="293.4" y2="113.8"/>
				<line id="XMLID_173_" class="st2" x1="292.4" y1="113.8" x2="290.2" y2="113.8"/>
				<line id="XMLID_172_" class="st2" x1="288.4" y1="113.8" x2="283.8" y2="113.8"/>
				<path id="XMLID_171_" class="st2" d="M309.1,113.8h9.2c1.8,0,3.2-1.4,3.2-3.2s-1.4-3.2-3.2-3.2c-0.9,0-1.7,0.3-2.2,0.9
					c-0.1-2.1-1.8-3.7-3.9-3.7c-0.2,0-0.3,0-0.5,0c-0.2-2.9-2.6-5.1-5.6-5.1c-3.1,0-5.6,2.5-5.6,5.6h-7.1"/>
				<path id="XMLID_170_" class="st2" d="M312.3,112.3"/>
			</g>
			<g id="XMLID_117_">
				<g id="XMLID_150_">
					<polyline id="XMLID_168_" class="st5" points="278.5,172.2 278.5,124.2 317.5,124.2 317.5,172.2 					"/>
					<line id="XMLID_167_" class="st5" x1="274.8" y1="132.5" x2="322.1" y2="132.5"/>
					<line id="XMLID_166_" class="st5" x1="274.8" y1="172.2" x2="322.1" y2="172.2"/>
					<line id="XMLID_165_" class="st5" x1="285.6" y1="143.9" x2="285.6" y2="172.2"/>
					<line id="XMLID_164_" class="st5" x1="285.6" y1="136.4" x2="285.6" y2="140.6"/>
					<line id="XMLID_163_" class="st5" x1="285.6" y1="127.3" x2="285.6" y2="129.9"/>
					<line id="XMLID_162_" class="st5" x1="291.6" y1="143.9" x2="291.6" y2="172.2"/>
					<line id="XMLID_161_" class="st5" x1="291.6" y1="136.4" x2="291.6" y2="140.6"/>
					<line id="XMLID_160_" class="st5" x1="291.6" y1="127.3" x2="291.6" y2="129.9"/>
					<line id="XMLID_159_" class="st5" x1="298" y1="143.9" x2="298" y2="172.2"/>
					<line id="XMLID_158_" class="st5" x1="298" y1="136.4" x2="298" y2="140.6"/>
					<line id="XMLID_157_" class="st5" x1="298" y1="127.3" x2="298" y2="129.9"/>
					<line id="XMLID_156_" class="st5" x1="310.6" y1="143.9" x2="310.6" y2="172.2"/>
					<line id="XMLID_155_" class="st5" x1="310.6" y1="136.4" x2="310.6" y2="140.6"/>
					<line id="XMLID_154_" class="st5" x1="310.6" y1="127.3" x2="310.6" y2="129.9"/>
					<line id="XMLID_153_" class="st5" x1="304.4" y1="143.9" x2="304.4" y2="172.2"/>
					<line id="XMLID_152_" class="st5" x1="304.4" y1="136.4" x2="304.4" y2="140.6"/>
					<line id="XMLID_151_" class="st5" x1="304.4" y1="127.3" x2="304.4" y2="129.9"/>
				</g>
				<g id="XMLID_139_">
					<polyline id="XMLID_149_" class="st5" points="251.9,172.2 251.9,50.1 278.4,50.1 278.4,172.2 					"/>
					<rect id="XMLID_148_" x="255.1" y="46" class="st5" width="20.1" height="4.2"/>
					<g id="XMLID_144_">
						<line id="XMLID_147_" class="st5" x1="258.9" y1="60.1" x2="258.9" y2="165.7"/>
						<line id="XMLID_146_" class="st5" x1="265.4" y1="60.1" x2="265.4" y2="165.7"/>
						<line id="XMLID_145_" class="st5" x1="271.5" y1="60.1" x2="271.5" y2="165.7"/>
					</g>
					<line id="XMLID_143_" class="st5" x1="265.4" y1="46" x2="265.4" y2="38.5"/>
					<line id="XMLID_142_" class="st5" x1="234.7" y1="172.2" x2="289.4" y2="172.2"/>
					<line id="XMLID_141_" class="st5" x1="241.7" y1="140.1" x2="241.7" y2="152.4"/>
					<circle id="XMLID_140_" class="st5" cx="241.5" cy="138.4" r="5.9"/>
				</g>
				<g id="XMLID_118_">
					<line id="XMLID_138_" class="st5" x1="322.1" y1="172.2" x2="373.5" y2="172.2"/>
					<polyline id="XMLID_137_" class="st5" points="327.1,172.1 327.1,75.1 368.6,75.1 368.6,172.1 					"/>
					<rect id="XMLID_136_" x="330.8" y="70.7" class="st5" width="34.1" height="4.3"/>
					<line id="XMLID_135_" class="st5" x1="327.1" y1="81.9" x2="368.6" y2="81.9"/>
					<line id="XMLID_134_" class="st5" x1="331.5" y1="90.7" x2="364.2" y2="90.7"/>
					<line id="XMLID_133_" class="st5" x1="331.5" y1="96.6" x2="364.2" y2="96.6"/>
					<line id="XMLID_132_" class="st5" x1="331.5" y1="102.1" x2="364.2" y2="102.1"/>
					<line id="XMLID_131_" class="st5" x1="331.5" y1="108" x2="364.2" y2="108"/>
					<line id="XMLID_130_" class="st5" x1="331.5" y1="113.1" x2="364.2" y2="113.1"/>
					<line id="XMLID_129_" class="st5" x1="331.5" y1="119" x2="364.2" y2="119"/>
					<line id="XMLID_128_" class="st5" x1="331.5" y1="124.5" x2="364.2" y2="124.5"/>
					<line id="XMLID_127_" class="st5" x1="331.5" y1="130.4" x2="364.2" y2="130.4"/>
					<line id="XMLID_126_" class="st5" x1="331.5" y1="135.4" x2="364.2" y2="135.4"/>
					<line id="XMLID_125_" class="st5" x1="331.5" y1="141.2" x2="364.2" y2="141.2"/>
					<line id="XMLID_124_" class="st5" x1="331.5" y1="146.7" x2="364.2" y2="146.7"/>
					<line id="XMLID_123_" class="st5" x1="331.5" y1="152.6" x2="364.2" y2="152.6"/>
					<line id="XMLID_122_" class="st5" x1="331.5" y1="157.8" x2="364.2" y2="157.8"/>
					<line id="XMLID_121_" class="st5" x1="331.5" y1="163.6" x2="364.2" y2="163.6"/>
					<line id="XMLID_120_" class="st5" x1="339.9" y1="81.9" x2="339.9" y2="172.1"/>
					<line id="XMLID_119_" class="st5" x1="355.6" y1="81.9" x2="355.6" y2="172.1"/>
				</g>
			</g>
			<g id="XMLID_96_">
				<g id="XMLID_100_">
					<polyline id="XMLID_116_" class="st3" points="102.2,147.3 102.2,128.3 95.6,124.3 88.9,128.3 88.9,147.3 					"/>
					<polyline id="XMLID_115_" class="st3" points="102.2,147.3 102.2,138 108.9,134 115.5,138 115.5,147.3 					"/>
					<g id="XMLID_110_">
						<line id="XMLID_114_" class="st3" x1="95.6" y1="130.8" x2="95.6" y2="134"/>
						<g id="XMLID_111_">
							<line id="XMLID_113_" class="st3" x1="92.5" y1="130.8" x2="92.5" y2="134"/>
							<line id="XMLID_112_" class="st3" x1="98.6" y1="130.8" x2="98.6" y2="134"/>
						</g>
					</g>
					<g id="XMLID_106_">
						<line id="XMLID_109_" class="st3" x1="108.9" y1="144.1" x2="108.9" y2="147.3"/>
						<g id="XMLID_107_">
							<line id="XMLID_108_" class="st3" x1="105.8" y1="144.1" x2="105.8" y2="147.3"/>
						</g>
					</g>
					<g id="XMLID_102_">
						<line id="XMLID_105_" class="st3" x1="112.2" y1="127.6" x2="112.2" y2="130.8"/>
						<g id="XMLID_103_">
							<line id="XMLID_104_" class="st3" x1="109.1" y1="127.6" x2="109.1" y2="130.8"/>
						</g>
					</g>
					<polyline id="XMLID_101_" class="st3" points="116.1,121.1 105.8,121.1 105.8,135.9 					"/>
				</g>
				<g id="XMLID_97_">
					<line id="XMLID_99_" class="st3" x1="119.9" y1="135.2" x2="119.9" y2="147.5"/>
					<circle id="XMLID_98_" class="st3" cx="119.6" cy="133.5" r="5.9"/>
				</g>
			</g>
			<g id="XMLID_81_">
				<line id="XMLID_95_" class="st3" x1="164.6" y1="312.4" x2="179.8" y2="312.4"/>
				<line id="XMLID_94_" class="st3" x1="190.5" y1="306.6" x2="190.5" y2="309.9"/>
				<line id="XMLID_93_" class="st3" x1="201.1" y1="307.4" x2="201.1" y2="310.7"/>
				<line id="XMLID_92_" class="st3" x1="224.9" y1="307.4" x2="224.9" y2="310.7"/>
				<line id="XMLID_91_" class="st3" x1="237.9" y1="306.3" x2="237.9" y2="309.6"/>
				<line id="XMLID_90_" class="st3" x1="212" y1="307.7" x2="212" y2="311"/>
				<path id="XMLID_89_" class="st3" d="M179.8,304.9h0.8c1.9,0,3.4,1.9,3.4,4.2v4"/>
				<path id="XMLID_88_" class="st3" d="M231.1,297.9c13.1,0.7,13.1,2.1,13.1,2.1v16.6"/>
				<path id="XMLID_87_" class="st3" d="M179.8,316.5v-16.6c0,0,0-1.4,13.6-2.1"/>
				<path id="XMLID_86_" class="st3" d="M179.8,299.9c0,0,0,2.8,32.2,2.8c32,0,32.2-2.8,32.2-2.8"/>
				<g id="XMLID_83_">
					<path id="XMLID_85_" class="st3" d="M193.3,301.4V298c0,0,0-1.4,18.7-1.4s18.7,1.4,18.7,1.4v3.4"/>
					<path id="XMLID_84_" class="st3" d="M193.3,298c0,0,0,1.7,18.7,1.7c18.6,0,18.7-1.7,18.7-1.7"/>
				</g>
				<path id="XMLID_82_" class="st3" d="M179.8,312.4c0,0,0,2.8,32.2,2.8c32,0,32.2-2.8,32.2-2.8"/>
			</g>
			<g id="XMLID_68_">
				<g id="XMLID_77_">
					<path id="XMLID_80_" class="st2" d="M154.7,317.4"/>
					<path id="XMLID_79_" class="st2" d="M110,319.3c1.3,0,2.6-0.5,3.6-1.5l0.8-0.8c1.9-1.9,5.1-1.9,7,0l0.8,0.8c2,2,5.3,2,7.3,0
						l0.8-0.8c1.9-1.9,5-1.9,7,0l0.8,0.8c1,1,2.3,1.5,3.6,1.5"/>
					<path id="XMLID_78_" class="st2" d="M141.7,319.3c1.3,0,2.6-0.5,3.6-1.5l0.8-0.8c1.9-1.9,5.1-1.9,7,0l0.8,0.8c2,2,5.3,2,7.3,0
						l0.8-0.8c1.9-1.9,5-1.9,7,0l0.8,0.8c1,1,2.3,1.5,3.6,1.5"/>
				</g>
				<g id="XMLID_73_">
					<path id="XMLID_76_" class="st2" d="M218.2,317.4"/>
					<path id="XMLID_75_" class="st2" d="M173.5,319.3c1.3,0,2.6-0.5,3.6-1.5l0.8-0.8c1.9-1.9,5.1-1.9,7,0l0.8,0.8c2,2,5.3,2,7.3,0
						l0.8-0.8c1.9-1.9,5-1.9,7,0l0.8,0.8c1,1,2.3,1.5,3.6,1.5"/>
					<path id="XMLID_74_" class="st2" d="M205.3,319.3c1.3,0,2.6-0.5,3.6-1.5l0.8-0.8c1.9-1.9,5.1-1.9,7,0l0.8,0.8c2,2,5.3,2,7.3,0
						l0.8-0.8c1.9-1.9,5-1.9,7,0l0.8,0.8c1,1,2.3,1.5,3.6,1.5"/>
				</g>
				<g id="XMLID_69_">
					<path id="XMLID_72_" class="st2" d="M281.7,317.4"/>
					<path id="XMLID_71_" class="st2" d="M237,319.3c1.3,0,2.6-0.5,3.6-1.5l0.8-0.8c1.9-1.9,5.1-1.9,7,0l0.8,0.8c2,2,5.3,2,7.3,0
						l0.8-0.8c1.9-1.9,5-1.9,7,0l0.8,0.8c1,1,2.3,1.5,3.6,1.5"/>
					<path id="XMLID_70_" class="st2" d="M268.8,319.3c1.3,0,2.6-0.5,3.6-1.5l0.8-0.8c1.9-1.9,5.1-1.9,7,0l0.8,0.8c2,2,5.3,2,7.3,0
						l0.8-0.8c1.9-1.9,5-1.9,7,0l0.8,0.8c1,1,2.3,1.5,3.6,1.5"/>
				</g>
			</g>
			<g id="XMLID_51_">
				<g id="XMLID_64_">
					<path id="XMLID_67_" class="st2" d="M89.9,334"/>
					<path id="XMLID_66_" class="st2" d="M45.2,335.8c1.3,0,2.6-0.5,3.6-1.5l0.8-0.8c1.9-1.9,5.1-1.9,7,0l0.8,0.8c2,2,5.3,2,7.3,0
						l0.8-0.8c1.9-1.9,5-1.9,7,0l0.8,0.8c1,1,2.3,1.5,3.6,1.5"/>
					<path id="XMLID_65_" class="st2" d="M77,335.8c1.3,0,2.6-0.5,3.6-1.5l0.8-0.8c1.9-1.9,5.1-1.9,7,0l0.8,0.8c2,2,5.3,2,7.3,0
						l0.8-0.8c1.9-1.9,5-1.9,7,0l0.8,0.8c1,1,2.3,1.5,3.6,1.5"/>
				</g>
				<g id="XMLID_60_">
					<path id="XMLID_63_" class="st2" d="M153.4,334"/>
					<path id="XMLID_62_" class="st2" d="M108.7,335.8c1.3,0,2.6-0.5,3.6-1.5l0.8-0.8c1.9-1.9,5.1-1.9,7,0l0.8,0.8c2,2,5.3,2,7.3,0
						l0.8-0.8c1.9-1.9,5-1.9,7,0l0.8,0.8c1,1,2.3,1.5,3.6,1.5"/>
					<path id="XMLID_61_" class="st2" d="M140.5,335.8c1.3,0,2.6-0.5,3.6-1.5l0.8-0.8c1.9-1.9,5.1-1.9,7,0l0.8,0.8c2,2,5.3,2,7.3,0
						l0.8-0.8c1.9-1.9,5-1.9,7,0l0.8,0.8c1,1,2.3,1.5,3.6,1.5"/>
				</g>
				<g id="XMLID_56_">
					<path id="XMLID_59_" class="st2" d="M216.9,334"/>
					<path id="XMLID_58_" class="st2" d="M172.2,335.8c1.3,0,2.6-0.5,3.6-1.5l0.8-0.8c1.9-1.9,5.1-1.9,7,0l0.8,0.8c2,2,5.3,2,7.3,0
						l0.8-0.8c1.9-1.9,5-1.9,7,0l0.8,0.8c1,1,2.3,1.5,3.6,1.5"/>
					<path id="XMLID_57_" class="st2" d="M204,335.8c1.3,0,2.6-0.5,3.6-1.5l0.8-0.8c1.9-1.9,5.1-1.9,7,0l0.8,0.8c2,2,5.3,2,7.3,0
						l0.8-0.8c1.9-1.9,5-1.9,7,0l0.8,0.8c1,1,2.3,1.5,3.6,1.5"/>
				</g>
				<g id="XMLID_52_">
					<path id="XMLID_55_" class="st2" d="M280.4,334"/>
					<path id="XMLID_54_" class="st2" d="M235.8,335.8c1.3,0,2.6-0.5,3.6-1.5l0.8-0.8c1.9-1.9,5.1-1.9,7,0l0.8,0.8c2,2,5.3,2,7.3,0
						l0.8-0.8c1.9-1.9,5-1.9,7,0l0.8,0.8c1,1,2.3,1.5,3.6,1.5"/>
					<path id="XMLID_53_" class="st2" d="M267.5,335.8c1.3,0,2.6-0.5,3.6-1.5l0.8-0.8c1.9-1.9,5.1-1.9,7,0l0.8,0.8c2,2,5.3,2,7.3,0
						l0.8-0.8c1.9-1.9,5-1.9,7,0l0.8,0.8c1,1,2.3,1.5,3.6,1.5"/>
				</g>
			</g>
			<g id="XMLID_47_">
				<path id="XMLID_50_" class="st2" d="M91.2,317.4"/>
				<path id="XMLID_49_" class="st2" d="M46.5,319.3c1.3,0,2.6-0.5,3.6-1.5l0.8-0.8c1.9-1.9,5.1-1.9,7,0l0.8,0.8c2,2,5.3,2,7.3,0
					l0.8-0.8c1.9-1.9,5-1.9,7,0l0.8,0.8c1,1,2.3,1.5,3.6,1.5"/>
				<path id="XMLID_48_" class="st2" d="M78.2,319.3c1.3,0,2.6-0.5,3.6-1.5l0.8-0.8c1.9-1.9,5.1-1.9,7,0l0.8,0.8c2,2,5.3,2,7.3,0
					l0.8-0.8c1.9-1.9,5-1.9,7,0l0.8,0.8c1,1,2.3,1.5,3.6,1.5"/>
			</g>
			<g id="XMLID_40_">
				<path id="XMLID_46_" class="st2" d="M345.5,282.9"/>
				<path id="XMLID_45_" class="st2" d="M300.8,284.7c1.3,0,2.6-0.5,3.6-1.5l0.8-0.8c1.9-1.9,5.1-1.9,7,0l0.8,0.8c2,2,5.3,2,7.3,0
					l0.8-0.8c1.9-1.9,5-1.9,7,0l0.8,0.8c1,1,2.3,1.5,3.6,1.5"/>
				<path id="XMLID_44_" class="st2" d="M332.5,284.7c1.3,0,2.6-0.5,3.6-1.5l0.8-0.8c1.9-1.9,5.1-1.9,7,0l0.8,0.8c2,2,5.3,2,7.3,0
					l0.8-0.8c1.9-1.9,5-1.9,7,0l0.8,0.8c1,1,2.3,1.5,3.6,1.5"/>
			</g>
			<g id="XMLID_33_">
				<path id="XMLID_39_" class="st2" d="M345.2,317.5"/>
				<path id="XMLID_35_" class="st2" d="M300.5,319.3c1.3,0,2.6-0.5,3.6-1.5l0.8-0.8c1.9-1.9,5.1-1.9,7,0l0.8,0.8c2,2,5.3,2,7.3,0
					l0.8-0.8c1.9-1.9,5-1.9,7,0l0.8,0.8c1,1,2.3,1.5,3.6,1.5"/>
				<path id="XMLID_34_" class="st2" d="M332.3,319.3c1.3,0,2.6-0.5,3.6-1.5l0.8-0.8c1.9-1.9,5.1-1.9,7,0l0.8,0.8c2,2,5.3,2,7.3,0
					l0.8-0.8c1.9-1.9,5-1.9,7,0l0.8,0.8c1,1,2.3,1.5,3.6,1.5"/>
			</g>
			<g id="XMLID_15_">
				<path id="XMLID_32_" class="st2" d="M343.9,334"/>
				<path id="XMLID_31_" class="st2" d="M299.3,335.8c1.3,0,2.6-0.5,3.6-1.5l0.8-0.8c1.9-1.9,5.1-1.9,7,0l0.8,0.8c2,2,5.3,2,7.3,0
					l0.8-0.8c1.9-1.9,5-1.9,7,0l0.8,0.8c1,1,2.3,1.5,3.6,1.5"/>
				<path id="XMLID_16_" class="st2" d="M331,335.8c1.3,0,2.6-0.5,3.6-1.5l0.8-0.8c1.9-1.9,5.1-1.9,7,0l0.8,0.8c2,2,5.3,2,7.3,0
					l0.8-0.8c1.9-1.9,5-1.9,7,0l0.8,0.8c1,1,2.3,1.5,3.6,1.5"/>
			</g>
		</g>
	</g>
	<g id="XMLID_631_">
		<path id="XMLID_689_" class="st6" d="M116.6,56.2c0,2.2-0.7,3.9-2,5.2c-1.5,1.5-3.4,2.3-5.8,2.3c-2.3,0-4.2-0.8-5.8-2.4
			c-1.6-1.6-2.4-3.5-2.4-5.8c0-2.3,0.8-4.3,2.4-5.8c1.6-1.6,3.5-2.4,5.8-2.4c1.2,0,2.2,0.2,3.3,0.6c1,0.4,1.9,1,2.5,1.7l-1.4,1.4
			c-0.5-0.6-1.1-1-1.9-1.4s-1.6-0.5-2.5-0.5c-1.7,0-3.2,0.6-4.3,1.8c-1.2,1.2-1.8,2.7-1.8,4.5s0.6,3.3,1.8,4.5
			c1.2,1.2,2.6,1.8,4.3,1.8c1.6,0,2.9-0.4,3.9-1.3c1-0.9,1.6-2.1,1.8-3.6h-5.7V55h7.6C116.6,55.4,116.6,55.8,116.6,56.2z"/>
		<path id="XMLID_686_" class="st6" d="M117.6,63.4V47.7h4.8c2.4,0,4.3,0.7,5.8,2.2c1.5,1.4,2.2,3.3,2.2,5.7c0,2.4-0.7,4.2-2.2,5.7
			c-1.5,1.4-3.4,2.2-5.8,2.2H117.6z M119.6,49.6v11.8h2.8c1.8,0,3.3-0.5,4.3-1.6c1.1-1,1.6-2.5,1.6-4.4c0-1.8-0.5-3.3-1.6-4.3
			c-1.1-1.1-2.5-1.6-4.3-1.6H119.6z"/>
		<path id="XMLID_684_" class="st6" d="M147.2,56.2c0,2.2-0.7,3.9-2,5.2c-1.5,1.5-3.4,2.3-5.8,2.3c-2.3,0-4.2-0.8-5.8-2.4
			c-1.6-1.6-2.4-3.5-2.4-5.8c0-2.3,0.8-4.3,2.4-5.8c1.6-1.6,3.5-2.4,5.8-2.4c1.2,0,2.2,0.2,3.3,0.6c1,0.4,1.9,1,2.5,1.7l-1.4,1.4
			c-0.5-0.6-1.1-1-1.9-1.4c-0.8-0.3-1.6-0.5-2.5-0.5c-1.7,0-3.2,0.6-4.3,1.8c-1.2,1.2-1.8,2.7-1.8,4.5s0.6,3.3,1.8,4.5
			c1.2,1.2,2.6,1.8,4.3,1.8c1.6,0,2.9-0.4,3.9-1.3c1-0.9,1.6-2.1,1.8-3.6h-5.7V55h7.6C147.2,55.4,147.2,55.8,147.2,56.2z"/>
		<path id="XMLID_681_" class="st6" d="M153.3,63.4V47.7h4.8c2.4,0,4.3,0.7,5.8,2.2c1.5,1.4,2.2,3.3,2.2,5.7c0,2.4-0.7,4.2-2.2,5.7
			c-1.5,1.4-3.4,2.2-5.8,2.2H153.3z M155.3,49.6v11.8h2.8c1.8,0,3.3-0.5,4.3-1.6c1.1-1,1.6-2.5,1.6-4.4c0-1.8-0.5-3.3-1.6-4.3
			s-2.5-1.6-4.3-1.6H155.3z"/>
		<path id="XMLID_678_" class="st6" d="M172.5,63.7c-1.6,0-2.9-0.5-3.9-1.6c-1-1.1-1.5-2.4-1.5-4.1c0-1.6,0.5-3,1.5-4.1
			c1-1.1,2.3-1.6,3.8-1.6c1.6,0,2.9,0.5,3.8,1.5c0.9,1,1.4,2.5,1.4,4.3l0,0.2h-8.4c0,1.1,0.4,1.9,1.1,2.5c0.7,0.6,1.5,1,2.4,1
			c1.3,0,2.3-0.6,3-1.9l1.8,0.9c-0.5,0.9-1.2,1.6-2,2.1C174.5,63.5,173.5,63.7,172.5,63.7z M169.2,56.7h6.2
			c-0.1-0.7-0.4-1.4-0.9-1.9c-0.5-0.5-1.3-0.7-2.2-0.7c-0.8,0-1.4,0.2-2,0.7C169.8,55.3,169.4,55.9,169.2,56.7z"/>
		<path id="XMLID_676_" class="st6" d="M184,63.4h-2l-4.3-10.7h2.2L183,61h0l3.2-8.3h2.1L184,63.4z"/>
		<path id="XMLID_674_" class="st6" d="M195,47.5c0.7,0,1.3,0.1,1.8,0.4l-0.5,1.8c-0.4-0.2-0.7-0.3-1.2-0.3c-0.5,0-0.9,0.2-1.2,0.5
			c-0.3,0.3-0.5,0.8-0.5,1.4v1.4h2.8v1.8h-2.8v8.9h-2v-8.9h-2v-1.8h2v-1.6c0-1.1,0.3-1.9,1-2.6C193,47.8,193.9,47.5,195,47.5z"/>
		<path id="XMLID_671_" class="st6" d="M202.4,63.7c-1.6,0-2.9-0.5-3.9-1.6c-1-1.1-1.5-2.4-1.5-4.1c0-1.6,0.5-3,1.5-4.1
			c1-1.1,2.3-1.6,3.8-1.6c1.6,0,2.9,0.5,3.8,1.5c0.9,1,1.4,2.5,1.4,4.3l0,0.2h-8.4c0,1.1,0.4,1.9,1.1,2.5c0.7,0.6,1.5,1,2.4,1
			c1.3,0,2.3-0.6,3-1.9l1.8,0.9c-0.5,0.9-1.2,1.6-2,2.1C204.5,63.5,203.5,63.7,202.4,63.7z M199.2,56.7h6.2
			c-0.1-0.7-0.4-1.4-0.9-1.9c-0.5-0.5-1.3-0.7-2.2-0.7c-0.8,0-1.4,0.2-2,0.7C199.8,55.3,199.4,55.9,199.2,56.7z"/>
		<path id="XMLID_669_" class="st6" d="M217.5,60.4c0,0.9-0.4,1.7-1.2,2.4c-0.8,0.6-1.8,1-3.1,1c-1.1,0-2-0.3-2.8-0.8
			c-0.8-0.6-1.4-1.3-1.8-2.2l1.8-0.8c0.3,0.6,0.6,1.1,1.2,1.5c0.5,0.4,1.1,0.5,1.7,0.5c0.6,0,1.2-0.1,1.6-0.4c0.4-0.3,0.6-0.6,0.6-1
			c0-0.7-0.5-1.2-1.6-1.5l-1.8-0.5c-2.1-0.5-3.1-1.5-3.1-3c0-1,0.4-1.8,1.2-2.4c0.8-0.6,1.8-0.9,3.1-0.9c0.9,0,1.8,0.2,2.6,0.7
			c0.8,0.5,1.3,1.1,1.6,1.8l-1.8,0.7c-0.2-0.5-0.5-0.8-1-1.1c-0.5-0.3-1-0.4-1.5-0.4c-0.5,0-1,0.1-1.4,0.4c-0.4,0.3-0.6,0.6-0.6,1
			c0,0.6,0.6,1.1,1.7,1.3l1.6,0.4C216.4,57.7,217.5,58.8,217.5,60.4z"/>
		<path id="XMLID_667_" class="st6" d="M223.5,63.5c-0.9,0-1.6-0.3-2.2-0.8c-0.6-0.5-0.9-1.3-0.9-2.3v-6h-1.9v-1.8h1.9v-3.3h2v3.3
			h2.6v1.8h-2.6v5.3c0,0.7,0.1,1.2,0.4,1.5c0.3,0.3,0.6,0.4,0.9,0.4c0.2,0,0.3,0,0.5-0.1c0.2,0,0.3-0.1,0.4-0.1l0.6,1.8
			C224.8,63.5,224.2,63.5,223.5,63.5z"/>
		<path id="XMLID_665_" class="st6" d="M198.7,81.3v1.9h-9.6v-2l3.9-3.9c1.3-1.3,2.2-2.3,2.7-3c0.5-0.7,0.7-1.4,0.7-2.1
			c0-0.7-0.3-1.2-0.8-1.7c-0.5-0.5-1.2-0.7-2-0.7c-0.7,0-1.3,0.2-1.8,0.6c-0.5,0.4-0.8,0.9-1,1.5l-1.8-0.7c0.3-0.9,0.9-1.7,1.7-2.3
			c0.8-0.6,1.8-1,2.9-1c1.4,0,2.5,0.4,3.4,1.2c0.9,0.8,1.4,1.9,1.4,3.1c0,1.4-0.8,3-2.4,4.7l-4.4,4.4H198.7z"/>
		<path id="XMLID_662_" class="st6" d="M199.9,75.8c0-2.3,0.6-4.2,1.7-5.6c1.1-1.5,2.6-2.2,4.3-2.2c1.8,0,3.2,0.7,4.3,2.2
			c1.1,1.5,1.7,3.3,1.7,5.6c0,2.3-0.6,4.1-1.7,5.6c-1.1,1.5-2.6,2.2-4.3,2.2c-1.8,0-3.2-0.7-4.3-2.2C200.5,79.9,199.9,78,199.9,75.8
			z M209.9,75.8c0-1.7-0.4-3.1-1.1-4.3c-0.7-1.1-1.7-1.7-2.9-1.7c-1.2,0-2.2,0.6-2.9,1.7c-0.7,1.1-1.1,2.5-1.1,4.3
			c0,1.7,0.4,3.1,1.1,4.3c0.7,1.1,1.7,1.6,2.9,1.6c1.2,0,2.2-0.6,2.9-1.7C209.6,78.9,209.9,77.5,209.9,75.8z"/>
		<path id="XMLID_660_" class="st6" d="M218.2,68.3v15h-2V70.8l-2.9,1.3l-0.8-1.7l4.4-2.1H218.2z"/>
		<path id="XMLID_658_" class="st6" d="M229.8,70.3l-7.3,13.3l-1.8-0.9l6.9-12.5h-7.6l0-1.9h9.7V70.3z"/>
		<g id="XMLID_653_">
			<polygon id="XMLID_657_" class="st7" points="80,65.5 69.4,83.6 76,83.6 83.3,70.9 			"/>
			<polygon id="XMLID_656_" class="st8" points="75.8,47.3 69.4,47.3 80,65.5 80,65.5 83.3,70.9 86.5,76.3 89.5,70.9 89.5,70.9 			
				"/>
			<path id="XMLID_655_" class="st9" d="M91.8,63.9l-9.5-16.6h-6.4l13.7,23.6l0,0l2.2-3.9C92.3,66.1,92.3,64.9,91.8,63.9z"/>
			<polygon id="XMLID_654_" class="st10" points="76,83.6 82.3,83.6 86.5,76.3 83.3,70.9 			"/>
		</g>
		<g id="XMLID_632_">
			<path id="XMLID_651_" class="st6" d="M102.7,83.2h-2V67.6h2.4l7.5,12.1h0.1l-0.1-3v-9.1h2v15.5h-2.1l-7.9-12.7h-0.1l0.1,3V83.2z"
				/>
			<path id="XMLID_648_" class="st6" d="M114.9,77.9c0-1.6,0.5-3,1.5-4.1c1-1.1,2.4-1.6,3.9-1.6c1.6,0,2.9,0.5,3.9,1.6
				c1,1.1,1.6,2.4,1.6,4.1c0,1.6-0.5,3-1.6,4.1c-1,1.1-2.3,1.6-3.9,1.6c-1.6,0-2.9-0.5-3.9-1.6C115.4,80.8,114.9,79.5,114.9,77.9z
				 M116.9,77.9c0,1.1,0.3,2.1,1,2.8c0.7,0.7,1.5,1.1,2.5,1.1c1,0,1.8-0.4,2.5-1.1c0.7-0.7,1-1.6,1-2.8c0-1.1-0.3-2-1-2.8
				c-0.7-0.7-1.5-1.1-2.5-1.1c-1,0-1.8,0.4-2.5,1.1C117.2,75.8,116.9,76.7,116.9,77.9z"/>
			<path id="XMLID_646_" class="st6" d="M129.4,83.2h-2V72.5h1.9v1.7h0.1c0.2-0.6,0.6-1,1.2-1.4c0.6-0.4,1.2-0.6,1.9-0.6
				c0.6,0,1.1,0.1,1.5,0.3l-0.6,1.9c-0.2-0.1-0.6-0.2-1.2-0.2c-0.8,0-1.4,0.3-2,0.9c-0.6,0.6-0.8,1.3-0.8,2.1V83.2z"/>
			<path id="XMLID_643_" class="st6" d="M139.1,83.5c-1.4,0-2.6-0.5-3.6-1.6c-1-1.1-1.5-2.5-1.5-4s0.5-2.9,1.5-4
				c1-1.1,2.2-1.6,3.6-1.6c0.8,0,1.5,0.2,2.1,0.5c0.6,0.3,1.1,0.8,1.5,1.3h0.1l-0.1-1.5v-4.9h2v15.5h-1.9v-1.5h-0.1
				c-0.3,0.5-0.8,1-1.5,1.3C140.6,83.3,139.9,83.5,139.1,83.5z M139.4,81.7c1,0,1.8-0.4,2.4-1.1c0.7-0.7,1-1.6,1-2.8
				c0-1.1-0.3-2-1-2.8c-0.6-0.7-1.4-1.1-2.4-1.1c-1,0-1.8,0.4-2.4,1.1c-0.7,0.7-1,1.6-1,2.8c0,1.1,0.3,2,1,2.8
				C137.7,81.3,138.5,81.7,139.4,81.7z"/>
			<path id="XMLID_640_" class="st6" d="M151.8,83.5c-1.6,0-2.8-0.5-3.9-1.6c-1-1.1-1.5-2.4-1.5-4.1c0-1.6,0.5-3,1.5-4
				c1-1.1,2.2-1.6,3.8-1.6c1.6,0,2.8,0.5,3.8,1.5c0.9,1,1.4,2.4,1.4,4.3l0,0.2h-8.4c0,1,0.4,1.9,1,2.5c0.7,0.6,1.5,1,2.4,1
				c1.3,0,2.3-0.6,3-1.9l1.8,0.9c-0.5,0.9-1.1,1.6-2,2.1C153.8,83.3,152.9,83.5,151.8,83.5z M148.6,76.6h6.1
				c-0.1-0.7-0.4-1.3-0.9-1.8c-0.5-0.5-1.3-0.7-2.2-0.7c-0.8,0-1.4,0.2-1.9,0.7C149.2,75.2,148.8,75.8,148.6,76.6z"/>
			<path id="XMLID_638_" class="st6" d="M166.9,80.2c0,0.9-0.4,1.7-1.2,2.3c-0.8,0.6-1.8,1-3.1,1c-1.1,0-2-0.3-2.8-0.8
				c-0.8-0.6-1.4-1.3-1.7-2.2l1.8-0.8c0.3,0.6,0.6,1.1,1.1,1.5c0.5,0.4,1,0.5,1.6,0.5c0.6,0,1.2-0.1,1.6-0.4c0.4-0.3,0.6-0.6,0.6-1
				c0-0.7-0.5-1.2-1.6-1.5l-1.8-0.5c-2.1-0.5-3.1-1.5-3.1-3c0-1,0.4-1.7,1.2-2.3c0.8-0.6,1.8-0.9,3-0.9c0.9,0,1.8,0.2,2.5,0.7
				c0.8,0.4,1.3,1,1.6,1.8l-1.8,0.7c-0.2-0.4-0.5-0.8-1-1.1c-0.5-0.3-1-0.4-1.5-0.4c-0.5,0-1,0.1-1.4,0.4c-0.4,0.3-0.6,0.6-0.6,1
				c0,0.6,0.6,1,1.7,1.3l1.6,0.4C165.9,77.5,166.9,78.6,166.9,80.2z"/>
			<path id="XMLID_636_" class="st6" d="M172.7,83.3c-0.9,0-1.6-0.3-2.2-0.8c-0.6-0.5-0.9-1.3-0.9-2.2v-5.9h-1.9v-1.8h1.9v-3.3h2
				v3.3h2.6v1.8h-2.6v5.3c0,0.7,0.1,1.2,0.4,1.4c0.3,0.3,0.6,0.4,0.9,0.4c0.2,0,0.3,0,0.5-0.1c0.2,0,0.3-0.1,0.4-0.1l0.6,1.8
				C174,83.2,173.4,83.3,172.7,83.3z"/>
			<path id="XMLID_633_" class="st6" d="M180.9,83.5c-1.6,0-2.8-0.5-3.9-1.6c-1-1.1-1.5-2.4-1.5-4.1c0-1.6,0.5-3,1.5-4
				c1-1.1,2.2-1.6,3.8-1.6c1.6,0,2.8,0.5,3.8,1.5c0.9,1,1.4,2.4,1.4,4.3l0,0.2h-8.4c0,1,0.4,1.9,1,2.5c0.7,0.6,1.5,1,2.4,1
				c1.3,0,2.3-0.6,3-1.9l1.8,0.9c-0.5,0.9-1.1,1.6-2,2.1C182.9,83.3,181.9,83.5,180.9,83.5z M177.7,76.6h6.1
				c-0.1-0.7-0.4-1.3-0.9-1.8c-0.5-0.5-1.3-0.7-2.2-0.7c-0.8,0-1.4,0.2-1.9,0.7C178.2,75.2,177.9,75.8,177.7,76.6z"/>
		</g>
	</g>
	<g id="XMLID_628_">
		<path id="XMLID_630_" class="st8" d="M39,250.6C39,250.6,39,250.7,39,250.6l-1.6-0.2v0.6c0,0.1,0,0.1-0.1,0.1c-0.1,0-0.2,0-0.4,0
			h0c-0.1,0-0.3,0-0.3,0c-0.1,0-0.1,0-0.1,0s0-0.1,0-0.1v-0.8l-1.1-0.2v0.6c0,0.1,0,0.1-0.1,0.1c-0.1,0-0.2,0-0.4,0h0
			c-0.1,0-0.3,0-0.3,0c-0.1,0-0.1,0-0.1,0c0,0,0-0.1,0-0.1v-0.8l-1.5-0.3c0,0-0.1,0-0.1-0.1c0,0,0-0.2,0-0.3v-0.2c0-0.2,0-0.3,0-0.3
			c0-0.1,0-0.1,0.1-0.1l1.5,0.3v-1.2l-1.5-0.3c0,0-0.1,0-0.1-0.1c0,0,0-0.2,0-0.3v-0.2c0-0.2,0-0.3,0-0.3c0-0.1,0-0.1,0.1-0.1
			l1.5,0.3V246c0-0.1,0-0.1,0-0.1c0,0,0,0,0.1,0c0.1,0,0.2,0,0.3,0h0c0.2,0,0.3,0,0.4,0c0.1,0,0.1,0.1,0.1,0.1v0.8l1.1,0.2v-0.6
			c0-0.1,0-0.1,0-0.1s0,0,0.1,0c0.1,0,0.2,0,0.3,0h0c0.2,0,0.3,0,0.4,0c0.1,0,0.1,0.1,0.1,0.1v0.8l1.5,0.3c0,0,0.1,0,0.1,0.1
			c0,0,0,0.2,0,0.3v0.2c0,0.2,0,0.3,0,0.3s0,0.1-0.1,0.1l-1.5-0.3v1.2l1.5,0.3c0,0,0.1,0,0.1,0.1c0,0,0,0.2,0,0.3v0.2
			C39,250.4,39,250.5,39,250.6z M36.5,248l-1.1-0.2v1.2l1.1,0.2V248z"/>
		<path id="XMLID_693_" class="st6" d="M39,243.9c0,0-0.1,0.1-0.1,0.1l-4.2,1.5l0,0c-0.1,0-0.1-0.1-0.1-0.2v-0.1c0-0.1,0-0.2,0-0.2
			c0,0,0-0.1,0.1-0.1l3.9-1.4c-1.3-0.5-2.6-0.9-3.9-1.3c0,0-0.1,0-0.1-0.1c0,0,0-0.1,0-0.2V242c0-0.1,0-0.2,0-0.2c0,0,0,0,0.1,0
			c0.7,0.2,1.5,0.4,2.2,0.7c0.8,0.3,1.4,0.5,2,0.8c0.1,0,0.1,0.1,0.1,0.1c0,0,0,0.1,0,0.3v0.1C39,243.8,39,243.8,39,243.9z"/>
		<path id="XMLID_695_" class="st6" d="M38.5,240.7c-0.4,0.4-0.9,0.5-1.6,0.5c-0.5,0-0.9-0.1-1.2-0.2c-0.4-0.2-0.7-0.4-0.9-0.7
			c-0.2-0.3-0.3-0.7-0.3-1.1c0-0.4,0.1-0.7,0.2-0.9c0.2-0.3,0.4-0.5,0.7-0.6c0.4-0.2,0.8-0.3,1.4-0.3c0.1,0,0.1,0,0.2,0
			c0,0,0,0,0,0.1v3.1c0.6,0,1-0.2,1.3-0.5c0.2-0.2,0.3-0.6,0.3-1.1c0-0.4-0.1-0.8-0.3-1.2c0,0,0-0.1,0-0.1c0,0,0,0,0-0.1
			c0,0,0.1,0,0.1-0.1l0.1,0c0.1,0,0.1,0,0.1,0c0,0,0.1,0,0.1,0c0.2,0.4,0.3,0.9,0.3,1.5C39.1,239.8,38.9,240.3,38.5,240.7z
			 M36.5,238c-0.4,0-0.8,0.1-1.1,0.3c-0.3,0.2-0.5,0.5-0.5,0.9c0,0.4,0.1,0.7,0.4,0.9c0.2,0.2,0.6,0.4,1.2,0.5V238z"/>
		<path id="XMLID_698_" class="st6" d="M39,236.4h-3.2c-0.5,0-0.9,0-1.1,0c0,0-0.1,0-0.1,0c0,0,0-0.1,0-0.2v-0.1c0-0.1,0-0.2,0-0.2
			c0,0,0-0.1,0.1-0.1l0.5,0c-0.5-0.3-0.7-0.8-0.7-1.4c0-0.5,0.1-0.9,0.4-1.2c0.1-0.1,0.3-0.2,0.4-0.2c-0.5-0.3-0.8-0.9-0.8-1.5
			c0-0.3,0-0.5,0.1-0.7c0.1-0.2,0.2-0.4,0.3-0.5c0.1-0.1,0.3-0.2,0.6-0.3c0.2-0.1,0.5-0.1,0.9-0.1H39c0.1,0,0.1,0.1,0.1,0.2v0.1
			c0,0.2,0,0.2-0.1,0.2h-2.2c-0.4,0-0.7,0-0.9,0.1c-0.2,0-0.4,0.1-0.5,0.2c-0.2,0.2-0.3,0.5-0.3,0.9c0,0.5,0.2,0.8,0.5,1.1
			c0.1,0.1,0.3,0.2,0.6,0.2c0.1,0,0.3,0,0.6,0H39c0.1,0,0.1,0.1,0.1,0.2v0.1c0,0.2,0,0.2-0.1,0.2h-2.2c-0.4,0-0.7,0-0.9,0.1
			c-0.2,0-0.4,0.1-0.5,0.2c-0.2,0.2-0.3,0.5-0.3,0.9c0,0.5,0.2,0.8,0.5,1.1c0.1,0.1,0.3,0.2,0.6,0.2c0.2,0,0.6,0,1.2,0H39
			c0.1,0,0.1,0.1,0.1,0.2v0.1C39,236.3,39,236.4,39,236.4z"/>
		<path id="XMLID_700_" class="st6" d="M41,228.5C41,228.5,41,228.5,41,228.5l-6.4,0.1c0,0,0,0-0.1,0c0,0,0-0.1,0-0.2v-0.1
			c0-0.1,0-0.1,0-0.2c0,0,0-0.1,0.1-0.1l0.4,0c-0.2-0.2-0.3-0.3-0.4-0.6c-0.1-0.2-0.1-0.5-0.1-0.8c0-0.6,0.2-1,0.6-1.3
			c0.4-0.3,0.9-0.5,1.7-0.5c0.4,0,0.8,0.1,1.2,0.2c0.4,0.2,0.7,0.4,0.9,0.7c0.2,0.3,0.3,0.7,0.3,1.1c0,0.5-0.1,0.9-0.4,1.2h2.2
			c0.1,0,0.1,0.1,0.1,0.2v0.1C41,228.4,41,228.4,41,228.5z M38.1,225.8c-0.3-0.2-0.8-0.4-1.4-0.4c-0.6,0-1,0.1-1.3,0.3
			c-0.3,0.2-0.4,0.6-0.4,1c0,0.4,0.1,0.8,0.4,1c0.1,0.1,0.3,0.2,0.5,0.2c0.2,0,0.5,0.1,1,0.1h1.4c0.1-0.1,0.2-0.3,0.3-0.5
			c0.1-0.2,0.1-0.4,0.1-0.6C38.6,226.4,38.5,226,38.1,225.8z"/>
		<path id="XMLID_703_" class="st6" d="M39,223.7C39,223.7,39,223.7,39,223.7l-3,0c-0.3,0-0.8,0-1.4,0c0,0,0,0,0,0c0,0,0-0.1,0-0.2
			v0c0-0.1,0-0.2,0-0.2c0,0,0,0,0,0l1,0c-0.3-0.1-0.6-0.3-0.8-0.5c-0.2-0.2-0.3-0.5-0.3-0.7c0-0.1,0-0.2,0-0.3c0,0,0,0,0,0
			c0,0,0.1,0,0.1,0h0.1c0.1,0,0.2,0,0.2,0c0,0,0.1,0,0.1,0.1c0,0.4,0.2,0.8,0.5,1c0.3,0.2,0.7,0.4,1.1,0.4c0.2,0,0.7,0,1.3,0h1
			c0,0,0,0,0.1,0.1c0,0,0,0.1,0,0.2v0.1C39,223.6,39,223.7,39,223.7z"/>
		<path id="XMLID_705_" class="st6" d="M38.5,220.8c-0.4,0.3-1,0.5-1.6,0.5c-0.5,0-0.9-0.1-1.3-0.3c-0.4-0.2-0.6-0.4-0.8-0.7
			c-0.2-0.3-0.3-0.6-0.3-1c0-0.3,0.1-0.5,0.2-0.7c0.1-0.2,0.3-0.4,0.5-0.5l-0.5,0c0,0-0.1,0-0.1-0.1c0,0,0-0.1,0-0.2v-0.1
			c0-0.1,0-0.1,0-0.2c0,0,0,0,0.1,0l0.3,0c0.2,0,0.5,0,1,0h1.2c0.7,0,1.3,0,1.8-0.1c0,0,0,0,0.1,0c0,0,0,0.1,0,0.2v0
			c0,0.1,0,0.2,0,0.2c0,0,0,0-0.1,0l-0.5,0.1c0.2,0.1,0.4,0.3,0.5,0.6c0.1,0.2,0.2,0.5,0.2,0.8C39.1,220,38.9,220.4,38.5,220.8z
			 M38.3,218.4c-0.1-0.1-0.3-0.2-0.5-0.2c-0.2,0-0.5-0.1-0.9-0.1h-1.3c-0.2,0.1-0.4,0.3-0.5,0.5c-0.1,0.2-0.2,0.4-0.2,0.7
			c0,0.4,0.2,0.8,0.5,1c0.3,0.2,0.8,0.4,1.4,0.4c0.5,0,0.9-0.1,1.3-0.3s0.5-0.5,0.5-1C38.6,218.9,38.5,218.6,38.3,218.4z"/>
		<path id="XMLID_708_" class="st6" d="M38.9,216.1C38.9,216.1,38.9,216.2,38.9,216.1c-0.1,0.1-0.1,0.1-0.1,0.1h-6.1
			c-0.1,0-0.1-0.1-0.1-0.2v-0.1c0-0.2,0-0.2,0.1-0.2h2.4c-0.4-0.3-0.6-0.8-0.6-1.3c0-0.6,0.2-1.1,0.6-1.4c0.4-0.3,0.9-0.4,1.6-0.4
			c0.8,0,1.4,0.2,1.8,0.6c0.4,0.4,0.7,0.9,0.7,1.6C39.1,215.2,39,215.7,38.9,216.1z M38.1,213.5c-0.3-0.3-0.8-0.4-1.4-0.4
			c-0.6,0-1,0.1-1.3,0.3c-0.3,0.2-0.5,0.5-0.5,0.9c0,0.2,0,0.4,0.1,0.6c0.1,0.2,0.2,0.3,0.3,0.4c0.1,0.1,0.2,0.1,0.3,0.2
			c0.1,0,0.2,0.1,0.4,0.1c0.2,0,0.6,0,1.2,0h1.2c0.1-0.3,0.2-0.6,0.2-1C38.6,214.2,38.5,213.8,38.1,213.5z"/>
		<path id="XMLID_711_" class="st6" d="M38.5,211.2c-0.4,0.3-1,0.5-1.6,0.5c-0.5,0-0.9-0.1-1.3-0.3c-0.4-0.2-0.6-0.4-0.8-0.7
			c-0.2-0.3-0.3-0.6-0.3-1c0-0.3,0.1-0.5,0.2-0.7c0.1-0.2,0.3-0.4,0.5-0.5l-0.5,0c0,0-0.1,0-0.1-0.1c0,0,0-0.1,0-0.2v-0.1
			c0-0.1,0-0.1,0-0.2c0,0,0,0,0.1,0l0.3,0c0.2,0,0.5,0,1,0h1.2c0.7,0,1.3,0,1.8-0.1c0,0,0,0,0.1,0c0,0,0,0.1,0,0.2v0
			c0,0.1,0,0.2,0,0.2c0,0,0,0-0.1,0l-0.5,0.1c0.2,0.1,0.4,0.3,0.5,0.6c0.1,0.2,0.2,0.5,0.2,0.8C39.1,210.5,38.9,210.9,38.5,211.2z
			 M38.3,208.8c-0.1-0.1-0.3-0.2-0.5-0.2c-0.2,0-0.5-0.1-0.9-0.1h-1.3c-0.2,0.1-0.4,0.3-0.5,0.5c-0.1,0.2-0.2,0.4-0.2,0.7
			c0,0.4,0.2,0.8,0.5,1c0.3,0.2,0.8,0.4,1.4,0.4c0.5,0,0.9-0.1,1.3-0.3s0.5-0.5,0.5-1C38.6,209.4,38.5,209.1,38.3,208.8z"/>
		<path id="XMLID_714_" class="st6" d="M39,206.6C39,206.6,39,206.7,39,206.6l-6.4,0.1c-0.1,0-0.1-0.1-0.1-0.2v-0.1
			c0-0.2,0-0.2,0.1-0.2h2.5c-0.5-0.3-0.7-0.8-0.7-1.5c0-0.5,0.1-0.9,0.4-1.2c0.1-0.1,0.3-0.2,0.6-0.3c0.2-0.1,0.5-0.1,0.9-0.1h2.6
			c0,0,0.1,0,0.1,0.1c0,0,0,0.1,0,0.2v0.1c0,0.1,0,0.2,0,0.2c0,0,0,0.1-0.1,0.1h-2.2c-0.4,0-0.7,0-0.9,0.1c-0.2,0-0.4,0.1-0.5,0.2
			c-0.2,0.2-0.3,0.5-0.3,0.9c0,0.4,0.1,0.8,0.4,1.1c0.1,0.1,0.2,0.1,0.3,0.2c0.1,0,0.2,0.1,0.3,0.1c0.2,0,0.6,0,1.2,0h1.7
			c0.1,0,0.1,0.1,0.1,0.2v0.1C39,206.5,39,206.6,39,206.6z"/>
		<path id="XMLID_716_" class="st6" d="M33.3,201.8c-0.1,0.1-0.2,0.1-0.3,0.1c-0.1,0-0.2,0-0.3-0.1c-0.1-0.1-0.1-0.2-0.1-0.3
			c0-0.1,0-0.2,0.1-0.3c0.1-0.1,0.2-0.1,0.3-0.1c0.1,0,0.2,0,0.3,0.1c0.1,0.1,0.1,0.2,0.1,0.3C33.5,201.6,33.4,201.7,33.3,201.8z
			 M39,201.7C39,201.7,39,201.7,39,201.7l-4.4,0.1c0,0,0,0-0.1-0.1c0,0,0-0.1,0-0.2v-0.1c0-0.1,0-0.2,0-0.2c0,0,0-0.1,0.1-0.1H39
			c0,0,0,0,0.1,0.1c0,0,0,0.1,0,0.2v0.1C39,201.6,39,201.6,39,201.7z"/>
		<path id="XMLID_719_" class="st6" d="M38.5,199.6c-0.4,0.3-1,0.5-1.6,0.5c-0.5,0-0.9-0.1-1.3-0.3c-0.4-0.2-0.6-0.4-0.8-0.7
			c-0.2-0.3-0.3-0.6-0.3-1c0-0.3,0.1-0.5,0.2-0.7c0.1-0.2,0.3-0.4,0.5-0.5l-0.5,0c0,0-0.1,0-0.1-0.1c0,0,0-0.1,0-0.2v-0.1
			c0-0.1,0-0.1,0-0.2c0,0,0,0,0.1,0l0.3,0c0.2,0,0.5,0,1,0h1.2c0.7,0,1.3,0,1.8-0.1c0,0,0,0,0.1,0c0,0,0,0.1,0,0.2v0
			c0,0.1,0,0.2,0,0.2c0,0,0,0-0.1,0l-0.5,0.1c0.2,0.1,0.4,0.3,0.5,0.6c0.1,0.2,0.2,0.5,0.2,0.8C39.1,198.9,38.9,199.3,38.5,199.6z
			 M38.3,197.3c-0.1-0.1-0.3-0.2-0.5-0.2c-0.2,0-0.5-0.1-0.9-0.1h-1.3c-0.2,0.1-0.4,0.3-0.5,0.5c-0.1,0.2-0.2,0.4-0.2,0.7
			c0,0.4,0.2,0.8,0.5,1c0.3,0.2,0.8,0.4,1.4,0.4c0.5,0,0.9-0.1,1.3-0.3s0.5-0.5,0.5-1C38.6,197.8,38.5,197.5,38.3,197.3z"/>
	</g>
</g>
</svg>
