<?xml version="1.0" encoding="UTF-8"?>
<svg width="359px" height="423px" viewBox="0 0 359 423" version="1.1" xmlns="http://www.w3.org/2000/svg" xmlns:xlink="http://www.w3.org/1999/xlink">
    <!-- Generator: Sketch 43 (38999) - http://www.bohemiancoding.com/sketch -->
    <title>eventInfo</title>
    <desc>Created with Sketch.</desc>
    <defs></defs>
    <g id="Page-1" stroke="none" stroke-width="1" fill="none" fill-rule="evenodd">
        <g id="eventInfo" transform="translate(1.000000, 0.000000)">
            <path d="M228.5,86 L228.5,155.5" id="Shape" stroke="#FFFFFF" stroke-width="2"></path>
            <circle id="Oval" stroke="#FFFFFF" stroke-width="2" cx="229" cy="78" r="8"></circle>
            <g id="Group" stroke="#FFFFFF" stroke-width="2">
                <path d="M76.1,155.1 L13.8,155.1 C6.3,155.1 0.2,149 0.2,141.5 L0.2,21.3 C0.2,13.8 6.3,7.7 13.8,7.7 L96.9,7.7 C104.4,7.7 110.5,13.8 110.5,21.3 L110.5,131.1 L85.5,155 L76.1,155 L76.1,155.1 Z" id="Shape"></path>
                <path d="M85.5,155.8 L85.5,139.6 C85.5,134.9 89.3,131.2 93.9,131.2 L110.5,131.2" id="Shape"></path>
                <path d="M18.2,0.2 L18.2,15.8" id="Shape"></path>
                <path d="M30.8,0.2 L30.8,15.8" id="Shape"></path>
                <path d="M43.5,0.2 L43.5,15.8" id="Shape"></path>
                <path d="M56.2,0.2 L56.2,15.8" id="Shape"></path>
                <path d="M68.4,0.2 L68.4,15.8" id="Shape"></path>
                <path d="M81,0.2 L81,15.8" id="Shape"></path>
                <path d="M93.6,0.2 L93.6,15.8" id="Shape"></path>
                <path d="M0.2,30.2 L110.5,30.2" id="Shape"></path>
            </g>
            <g id="Group" transform="translate(23.000000, 52.000000)" fill-rule="nonzero" fill="#FFFFFF">
                <path d="M1.2,55.9 L1.2,46.5 C4.3,43.4 7.2,40.6 9.8,38 C10.9,36.9 12,35.8 13.2,34.6 C14.4,33.4 15.4,32.4 16.4,31.4 C17.4,30.4 18.3,29.5 19.1,28.7 C19.9,27.9 20.5,27.2 20.9,26.8 C21.7,25.8 22.5,24.9 23.2,24.1 C23.9,23.3 24.4,22.5 24.8,21.8 C25.2,21 25.5,20.3 25.7,19.5 C25.9,18.7 26,17.9 26,17 C26,15.3 25.3,13.7 23.9,12.5 C22.5,11.2 20.7,10.6 18.3,10.6 C15.9,10.6 14.1,11.3 12.8,12.6 C11.5,13.9 10.6,15.5 10.1,17.1 L0.7,13.2 C1.1,11.8 1.8,10.3 2.8,8.8 C3.7,7.3 5,6 6.4,4.8 C7.9,3.6 9.6,2.6 11.7,1.9 C13.7,1.1 16,0.8 18.5,0.8 C21.2,0.8 23.7,1.2 25.9,2 C28.1,2.8 30,3.9 31.5,5.4 C33,6.8 34.2,8.5 35.1,10.4 C35.9,12.3 36.4,14.4 36.4,16.6 C36.4,20 35.6,23.1 33.9,25.9 C32.2,28.7 30.2,31.3 27.8,33.8 L21,40.6 C19.2,42.4 17.2,44.4 14.9,46.6 L15.2,47.1 L37.1,47.1 L37.1,56.2 L1.2,56.2 L1.2,55.9 Z" id="Shape"></path>
                <polygon id="Shape" points="51.7 55.9 51.7 14 42.1 18 38.3 9.2 54.2 1.8 62 1.8 62 55.9"></polygon>
            </g>
            <g id="Group" transform="translate(24.000000, 115.000000)" fill-rule="nonzero" fill="#DE4B39">
                <path d="M0.3,0.8 L2.9,0.8 C3.5,0.8 4.1,0.9 4.6,1.1 C5.1,1.3 5.5,1.6 5.9,1.9 C6.2,2.2 6.5,2.7 6.7,3.1 C6.9,3.5 7,4.1 7,4.7 C7,5.3 6.9,5.8 6.7,6.3 C6.5,6.8 6.2,7.2 5.9,7.5 C5.6,7.8 5.1,8.1 4.6,8.3 C4.1,8.5 3.6,8.6 2.9,8.6 L0.3,8.6 L0.3,0.8 L0.3,0.8 Z M2.9,7.2 C3.3,7.2 3.7,7.1 4,7 C4.3,6.9 4.6,6.7 4.8,6.5 C5,6.3 5.2,6 5.3,5.7 C5.4,5.4 5.5,5 5.5,4.7 C5.5,4.4 5.4,4 5.3,3.7 C5.2,3.4 5,3.1 4.8,2.9 C4.6,2.7 4.3,2.5 4,2.4 C3.7,2.3 3.3,2.2 2.9,2.2 L1.8,2.2 L1.8,7.2 L2.9,7.2 Z" id="Shape"></path>
                <polygon id="Shape" points="9 2.2 9 4 12.1 4 12.1 5.4 9 5.4 9 7.2 12.5 7.2 12.5 8.6 7.6 8.6 7.6 0.8 12.5 0.8 12.5 2.2"></polygon>
                <path d="M18.4,8.8 C17.8,8.8 17.3,8.7 16.8,8.5 C16.3,8.3 15.9,8 15.5,7.6 C15.1,7.2 14.9,6.8 14.6,6.3 C14.4,5.8 14.3,5.3 14.3,4.7 C14.3,4.1 14.4,3.6 14.6,3.1 C14.8,2.6 15.1,2.2 15.5,1.8 C15.9,1.4 16.3,1.1 16.8,0.9 C17.3,0.7 17.8,0.6 18.4,0.6 C19,0.6 19.5,0.7 20,0.9 C20.5,1.1 20.9,1.4 21.3,1.8 C21.7,2.2 21.9,2.6 22.2,3.1 C22.4,3.6 22.5,4.1 22.5,4.7 C22.5,5.3 22.4,5.8 22.2,6.3 C22,6.8 21.7,7.2 21.3,7.6 C20.9,8 20.5,8.3 20,8.5 C19.5,8.7 18.9,8.8 18.4,8.8 Z M18.4,7.4 C18.8,7.4 19.1,7.3 19.4,7.2 C19.7,7.1 20,6.9 20.2,6.7 C20.4,6.5 20.6,6.2 20.8,5.9 C20.9,5.6 21,5.2 21,4.8 C21,4.4 20.9,4 20.8,3.7 C20.7,3.4 20.5,3.1 20.2,2.9 C20,2.7 19.7,2.5 19.4,2.4 C19.1,2.3 18.7,2.2 18.4,2.2 C18,2.2 17.7,2.3 17.4,2.4 C17.1,2.5 16.8,2.7 16.6,2.9 C16.4,3.1 16.2,3.4 16,3.7 C15.9,4 15.8,4.4 15.8,4.8 C15.8,5.2 15.9,5.6 16,5.9 C16.1,6.2 16.3,6.5 16.6,6.7 C16.8,6.9 17.1,7.1 17.4,7.2 C17.7,7.3 18,7.4 18.4,7.4 Z" id="Shape"></path>
                <path d="M25.8,8.8 C25.3,8.8 24.9,8.7 24.6,8.6 C24.2,8.5 23.9,8.2 23.6,8 C23.3,7.7 23.1,7.4 23,7 C22.9,6.6 22.8,6.1 22.8,5.6 L22.8,0.9 L24.3,0.9 L24.3,5.7 C24.3,6 24.3,6.2 24.4,6.4 C24.5,6.6 24.6,6.8 24.7,7 C24.8,7.2 25,7.3 25.2,7.4 C25.4,7.5 25.6,7.5 25.9,7.5 C26.2,7.5 26.4,7.5 26.6,7.4 C26.8,7.3 27,7.2 27.1,7 C27.2,6.8 27.3,6.7 27.4,6.4 C27.5,6.1 27.5,5.9 27.5,5.7 L27.5,0.9 L29,0.9 L29,5.6 C29,6.1 28.9,6.5 28.8,6.9 C28.7,7.3 28.5,7.6 28.2,7.9 C27.9,8.2 27.6,8.4 27.2,8.6 C26.8,8.8 26.3,8.8 25.8,8.8 Z" id="Shape"></path>
                <polygon id="Shape" points="31.2 8.6 31.2 2.2 29 2.2 29 0.8 34.8 0.8 34.8 2.2 32.6 2.2 32.6 8.6"></polygon>
                <path d="M38.1,8.8 C37.6,8.8 37.2,8.7 36.9,8.6 C36.5,8.5 36.2,8.2 35.9,8 C35.6,7.7 35.4,7.4 35.3,7 C35.2,6.6 35.1,6.1 35.1,5.6 L35.1,0.9 L36.6,0.9 L36.6,5.7 C36.6,6 36.6,6.2 36.7,6.4 C36.8,6.6 36.9,6.8 37,7 C37.1,7.2 37.3,7.3 37.5,7.4 C37.7,7.5 37.9,7.5 38.2,7.5 C38.5,7.5 38.7,7.5 38.9,7.4 C39.1,7.3 39.3,7.2 39.4,7 C39.5,6.8 39.6,6.7 39.7,6.4 C39.8,6.1 39.8,5.9 39.8,5.7 L39.8,0.9 L41.3,0.9 L41.3,5.6 C41.3,6.1 41.2,6.5 41.1,6.9 C41,7.3 40.8,7.6 40.5,7.9 C40.2,8.2 39.9,8.4 39.5,8.6 C39.1,8.8 38.6,8.8 38.1,8.8 Z" id="Shape"></path>
                <path d="M41.9,0.8 L44.9,0.8 C45.2,0.8 45.5,0.9 45.8,1 C46.1,1.1 46.3,1.2 46.6,1.4 C46.8,1.6 47,1.8 47.1,2 C47.2,2.2 47.3,2.5 47.3,2.8 C47.3,3.2 47.2,3.6 47,3.8 C46.8,4 46.6,4.3 46.3,4.4 L46.3,4.5 C46.7,4.6 47,4.9 47.3,5.2 C47.6,5.5 47.7,5.9 47.7,6.3 C47.7,6.6 47.6,6.9 47.5,7.2 C47.4,7.5 47.2,7.7 47,7.9 C46.8,8.1 46.5,8.2 46.2,8.3 C45.9,8.4 45.6,8.5 45.2,8.5 L42,8.5 L42,0.8 L41.9,0.8 Z M44.9,4 C45.2,4 45.5,3.9 45.7,3.7 C45.9,3.5 46,3.3 46,3 C46,2.7 45.9,2.5 45.7,2.3 C45.5,2.1 45.3,2 44.9,2 L43.4,2 L43.4,3.9 L44.9,3.9 L44.9,4 Z M45,7.2 C45.4,7.2 45.7,7.1 45.8,6.9 C46,6.7 46.1,6.5 46.1,6.2 C46.1,5.9 46,5.7 45.8,5.5 C45.6,5.3 45.3,5.2 44.9,5.2 L43.3,5.2 L43.3,7.2 L45,7.2 Z" id="Shape"></path>
                <path d="M48.1,0.8 L50.9,0.8 C51.3,0.8 51.6,0.9 52,1 C52.3,1.1 52.6,1.3 52.8,1.5 C53,1.7 53.2,2 53.3,2.3 C53.4,2.6 53.5,2.9 53.5,3.3 C53.5,3.6 53.5,3.8 53.4,4 C53.3,4.2 53.2,4.4 53,4.6 C52.8,4.8 52.7,4.9 52.5,5.1 C52.3,5.3 52.1,5.4 51.9,5.4 L51.9,5.5 L54,8.5 L54,8.6 L52.3,8.6 L50.3,5.7 L49.6,5.7 L49.6,8.6 L48.1,8.6 L48.1,0.8 L48.1,0.8 Z M50.9,4.3 C51.2,4.3 51.5,4.2 51.7,4 C51.9,3.8 52,3.5 52,3.2 C52,3.1 52,2.9 51.9,2.8 C51.9,2.7 51.8,2.6 51.7,2.5 C51.6,2.4 51.5,2.3 51.3,2.3 C51.1,2.3 51,2.2 50.8,2.2 L49.4,2.2 L49.4,4.4 L50.9,4.4 L50.9,4.3 Z" id="Shape"></path>
                <path d="M57.9,8.8 C57.3,8.8 56.8,8.7 56.3,8.5 C55.8,8.3 55.4,8 55,7.6 C54.6,7.2 54.4,6.8 54.1,6.3 C53.9,5.8 53.8,5.3 53.8,4.7 C53.8,4.1 53.9,3.6 54.1,3.1 C54.3,2.6 54.6,2.2 55,1.8 C55.4,1.4 55.8,1.1 56.3,0.9 C56.8,0.7 57.3,0.6 57.9,0.6 C58.5,0.6 59,0.7 59.5,0.9 C60,1.1 60.4,1.4 60.8,1.8 C61.2,2.2 61.4,2.6 61.7,3.1 C61.9,3.6 62,4.1 62,4.7 C62,5.3 61.9,5.8 61.7,6.3 C61.5,6.8 61.2,7.2 60.8,7.6 C60.4,8 60,8.3 59.5,8.5 C59,8.7 58.5,8.8 57.9,8.8 Z M57.9,7.4 C58.3,7.4 58.6,7.3 58.9,7.2 C59.2,7.1 59.5,6.9 59.7,6.7 C59.9,6.5 60.1,6.2 60.3,5.9 C60.4,5.6 60.5,5.2 60.5,4.8 C60.5,4.4 60.4,4 60.3,3.7 C60.2,3.4 60,3.1 59.7,2.9 C59.5,2.7 59.2,2.5 58.9,2.4 C58.6,2.3 58.2,2.2 57.9,2.2 C57.5,2.2 57.2,2.3 56.9,2.4 C56.6,2.5 56.3,2.7 56.1,2.9 C55.9,3.1 55.7,3.4 55.5,3.7 C55.4,4 55.3,4.4 55.3,4.8 C55.3,5.2 55.4,5.6 55.5,5.9 C55.6,6.2 55.8,6.5 56.1,6.7 C56.3,6.9 56.6,7.1 56.9,7.2 C57.2,7.3 57.5,7.4 57.9,7.4 Z" id="Shape"></path>
            </g>
            <g id="Group" transform="translate(111.000000, 350.000000)" fill-rule="nonzero">
                <g id="Shape" fill="#FFFFFF">
                    <path d="M8.1,16 C5.9,16 4,15.3 2.6,13.8 C1.1,12.3 0.4,10.5 0.4,8.2 C0.4,6 1.1,4.1 2.6,2.7 C4.1,1.2 5.9,0.5 8.1,0.5 C10.3,0.5 12.2,1.3 13.6,2.9 L12.2,4.2 C11.1,2.9 9.8,2.3 8.1,2.3 C6.4,2.3 5.1,2.9 4,4 C2.9,5.1 2.4,6.5 2.4,8.3 C2.4,10.1 2.9,11.5 4,12.6 C5.1,13.7 6.5,14.3 8.1,14.3 C9.8,14.3 11.3,13.6 12.6,12.1 L14,13.5 C13.3,14.3 12.4,15 11.4,15.5 C10.3,15.8 9.2,16 8.1,16 Z"></path>
                    <path d="M18.8,16 C17.3,16 16.1,15.5 15.1,14.5 C14.1,13.5 13.6,12.2 13.6,10.6 C13.6,9 14.1,7.8 15,6.7 C15.9,5.6 17.2,5.1 18.6,5.1 C20.1,5.1 21.3,5.6 22.2,6.6 C23.1,7.6 23.5,9 23.5,10.7 L23.5,10.9 L15.5,10.9 C15.5,11.9 15.9,12.7 16.5,13.3 C17.1,13.9 17.9,14.2 18.8,14.2 C20,14.2 21,13.6 21.7,12.4 L23.4,13.2 C22.9,14.1 22.3,14.7 21.5,15.2 C20.8,15.8 19.8,16 18.8,16 Z M15.7,9.4 L21.6,9.4 C21.5,8.7 21.3,8.1 20.7,7.6 C20.1,7.1 19.5,6.9 18.6,6.9 C17.9,6.9 17.3,7.1 16.7,7.6 C16.3,8 15.9,8.6 15.7,9.4 Z"></path>
                    <path d="M24.1,5.5 L25.9,5.5 L25.9,6.9 L26,6.9 C26.3,6.4 26.7,6 27.3,5.7 C27.9,5.4 28.5,5.2 29.2,5.2 C30.4,5.2 31.4,5.6 32.1,6.3 C32.8,7 33.1,8 33.1,9.4 L33.1,15.8 L31.2,15.8 L31.2,9.5 C31.2,7.8 30.3,7 28.7,7 C27.9,7 27.3,7.3 26.8,7.9 C26.3,8.5 26,9.3 26,10.1 L26,15.7 L24.1,15.7 L24.1,5.5 L24.1,5.5 Z"></path>
                    <path d="M37.7,15.9 C36.9,15.9 36.2,15.6 35.6,15.1 C35.1,14.6 34.8,13.9 34.8,13 L34.8,7.3 L33,7.3 L33,5.6 L34.8,5.6 L34.8,2.5 L36.7,2.5 L36.7,5.6 L39.2,5.6 L39.2,7.3 L36.7,7.3 L36.7,12.4 C36.7,13.1 36.8,13.5 37.1,13.8 C37.4,14 37.7,14.2 38,14.2 C38.2,14.2 38.3,14.2 38.4,14.1 C38.5,14.1 38.7,14 38.8,14 L39.4,15.7 C38.9,15.8 38.4,15.9 37.7,15.9 Z"></path>
                    <path d="M41.7,15.7 L39.8,15.7 L39.8,5.5 L41.6,5.5 L41.6,7.2 L41.7,7.2 C41.9,6.7 42.3,6.2 42.9,5.8 C43.5,5.4 44.1,5.2 44.7,5.2 C45.3,5.2 45.7,5.3 46.1,5.4 L45.5,7.3 C45.3,7.2 44.9,7.2 44.4,7.2 C43.7,7.2 43,7.5 42.5,8.1 C42,8.7 41.7,9.4 41.7,10.1 L41.7,15.7 Z"></path>
                    <path d="M44.9,10.6 C44.9,9 45.4,7.7 46.4,6.7 C47.4,5.7 48.7,5.2 50.2,5.2 C51.7,5.2 53,5.7 53.9,6.7 C54.9,7.7 55.4,9 55.4,10.6 C55.4,12.2 54.9,13.5 53.9,14.5 C52.9,15.5 51.7,16 50.2,16 C48.7,16 47.4,15.5 46.4,14.5 C45.4,13.5 44.9,12.2 44.9,10.6 Z M46.8,10.6 C46.8,11.7 47.1,12.6 47.8,13.3 C48.5,14 49.2,14.3 50.2,14.3 C51.2,14.3 51.9,14 52.6,13.3 C53.3,12.6 53.6,11.7 53.6,10.6 C53.6,9.5 53.3,8.6 52.6,8 C51.9,7.3 51.2,7 50.2,7 C49.3,7 48.5,7.3 47.8,8 C47.1,8.6 46.8,9.5 46.8,10.6 Z"></path>
                    <path d="M64.3,16 C62.6,16 61.3,15.5 60.3,14.4 C59.3,13.3 58.8,11.9 58.8,10.2 L58.8,0.8 L60.7,0.8 L60.7,10.3 C60.7,11.5 61,12.5 61.7,13.2 C62.4,13.9 63.2,14.3 64.3,14.3 C65.4,14.3 66.3,13.9 66.9,13.2 C67.5,12.5 67.9,11.5 67.9,10.3 L67.9,0.8 L69.8,0.8 L69.8,10.2 C69.8,12 69.3,13.4 68.3,14.5 C67.3,15.5 66,16 64.3,16 Z"></path>
                    <path d="M70.9,5.5 L72.7,5.5 L72.7,6.9 L72.8,6.9 C73.1,6.4 73.5,6 74.1,5.7 C74.7,5.4 75.3,5.2 76,5.2 C77.2,5.2 78.2,5.6 78.9,6.3 C79.6,7 79.9,8 79.9,9.4 L79.9,15.8 L78,15.8 L78,9.5 C78,7.8 77.1,7 75.5,7 C74.7,7 74.1,7.3 73.6,7.9 C73.1,8.5 72.8,9.3 72.8,10.1 L72.8,15.7 L70.9,15.7 L70.9,5.5 L70.9,5.5 Z"></path>
                    <path d="M83.4,2 C83.4,2.4 83.3,2.7 83,3 C82.7,3.3 82.4,3.4 82,3.4 C81.6,3.4 81.3,3.3 81,3 C80.7,2.7 80.6,2.4 80.6,2 C80.6,1.6 80.7,1.3 81,1 C81.3,0.7 81.6,0.6 82,0.6 C82.4,0.6 82.7,0.7 83,1 C83.3,1.3 83.4,1.6 83.4,2 Z M83,5.5 L83,15.7 L81.1,15.7 L81.1,5.5 L83,5.5 Z"></path>
                    <polygon points="89.2 15.7 87.3 15.7 83.2 5.5 85.3 5.5 88.3 13.4 88.3 13.4 91.3 5.5 93.3 5.5"></polygon>
                    <path d="M97.7,16 C96.2,16 95,15.5 94,14.5 C93,13.5 92.5,12.2 92.5,10.6 C92.5,9 93,7.8 93.9,6.7 C94.8,5.6 96.1,5.1 97.5,5.1 C99,5.1 100.2,5.6 101.1,6.6 C102,7.6 102.4,9 102.4,10.7 L102.4,10.9 L94.4,10.9 C94.4,11.9 94.8,12.7 95.4,13.3 C96,13.9 96.8,14.2 97.7,14.2 C98.9,14.2 99.9,13.6 100.6,12.4 L102.3,13.2 C101.8,14.1 101.2,14.7 100.4,15.2 C99.6,15.8 98.7,16 97.7,16 Z M94.6,9.4 L100.5,9.4 C100.4,8.7 100.2,8.1 99.6,7.6 C99,7.1 98.4,6.9 97.5,6.9 C96.8,6.9 96.2,7.1 95.6,7.6 C95.1,8 94.8,8.6 94.6,9.4 Z"></path>
                    <path d="M104.9,15.7 L103,15.7 L103,5.5 L104.8,5.5 L104.8,7.2 L104.9,7.2 C105.1,6.7 105.5,6.2 106.1,5.8 C106.7,5.4 107.3,5.2 107.9,5.2 C108.5,5.2 108.9,5.3 109.3,5.4 L108.7,7.3 C108.5,7.2 108.1,7.2 107.6,7.2 C106.9,7.2 106.2,7.5 105.7,8.1 C105.2,8.7 104.9,9.4 104.9,10.1 L104.9,15.7 Z"></path>
                    <path d="M116.7,12.9 C116.7,13.8 116.3,14.5 115.5,15.1 C114.7,15.7 113.7,16 112.6,16 C111.6,16 110.7,15.7 109.9,15.2 C109.1,14.7 108.6,14 108.2,13.1 L109.9,12.4 C110.1,13 110.5,13.5 111,13.8 C111.5,14.1 112,14.3 112.6,14.3 C113.2,14.3 113.7,14.2 114.1,13.9 C114.5,13.6 114.7,13.3 114.7,13 C114.7,12.3 114.2,11.9 113.2,11.6 L111.5,11.2 C109.5,10.7 108.5,9.7 108.5,8.3 C108.5,7.4 108.9,6.6 109.6,6.1 C110.4,5.5 111.3,5.3 112.5,5.3 C113.4,5.3 114.2,5.5 114.9,5.9 C115.6,6.3 116.1,6.9 116.4,7.6 L114.7,8.3 C114.5,7.9 114.2,7.5 113.8,7.3 C113.4,7.1 112.9,6.9 112.3,6.9 C111.8,6.9 111.4,7 111,7.3 C110.6,7.5 110.4,7.9 110.4,8.2 C110.4,8.8 110.9,9.2 112,9.4 L113.5,9.8 C115.7,10.3 116.7,11.3 116.7,12.9 Z"></path>
                    <path d="M119.5,2 C119.5,2.4 119.4,2.7 119.1,3 C118.8,3.3 118.5,3.4 118.1,3.4 C117.7,3.4 117.4,3.3 117.1,3 C116.8,2.7 116.7,2.4 116.7,2 C116.7,1.6 116.8,1.3 117.1,1 C117.4,0.7 117.7,0.6 118.1,0.6 C118.5,0.6 118.8,0.7 119.1,1 C119.4,1.3 119.5,1.6 119.5,2 Z M119.1,5.5 L119.1,15.7 L117.2,15.7 L117.2,5.5 L119.1,5.5 Z"></path>
                    <path d="M124.3,15.9 C123.5,15.9 122.8,15.6 122.2,15.1 C121.7,14.6 121.4,13.9 121.4,13 L121.4,7.3 L119.6,7.3 L119.6,5.6 L121.4,5.6 L121.4,2.5 L123.3,2.5 L123.3,5.6 L125.8,5.6 L125.8,7.3 L123.3,7.3 L123.3,12.4 C123.3,13.1 123.4,13.5 123.7,13.8 C124,14 124.3,14.2 124.6,14.2 C124.8,14.2 124.9,14.2 125,14.1 C125.1,14.1 125.3,14 125.4,14 L126,15.7 C125.5,15.8 124.9,15.9 124.3,15.9 Z"></path>
                    <path d="M130,5.2 C131.4,5.2 132.5,5.6 133.4,6.3 C134.3,7 134.6,8.1 134.6,9.4 L134.6,15.7 L132.8,15.7 L132.8,14.3 L132.7,14.3 C131.9,15.5 130.9,16 129.5,16 C128.4,16 127.4,15.7 126.7,15 C126,14.3 125.6,13.5 125.6,12.5 C125.6,11.4 126,10.6 126.8,10 C127.6,9.4 128.7,9.1 130,9.1 C131.1,9.1 132.1,9.3 132.8,9.7 L132.8,9.3 C132.8,8.6 132.5,8.1 132,7.6 C131.5,7.1 130.9,6.9 130.1,6.9 C129,6.9 128.2,7.4 127.6,8.3 L125.9,7.2 C126.8,5.8 128.2,5.2 130,5.2 Z M127.6,12.6 C127.6,13.1 127.8,13.5 128.2,13.8 C128.6,14.1 129.1,14.3 129.7,14.3 C130.5,14.3 131.2,14 131.9,13.4 C132.5,12.8 132.8,12.1 132.8,11.3 C132.2,10.8 131.4,10.6 130.3,10.6 C129.5,10.6 128.9,10.8 128.4,11.2 C127.9,11.6 127.6,12 127.6,12.6 Z M132.4,0.8 L130.9,3.5 L129.2,3.5 L130.3,0.8 L132.4,0.8 Z"></path>
                    <path d="M137.4,15.7 L135.5,15.7 L135.5,5.5 L137.3,5.5 L137.3,7.2 L137.4,7.2 C137.6,6.7 138,6.2 138.6,5.8 C139.2,5.4 139.8,5.2 140.4,5.2 C141,5.2 141.4,5.3 141.8,5.4 L141.2,7.3 C141,7.2 140.6,7.2 140.1,7.2 C139.4,7.2 138.7,7.5 138.2,8.1 C137.7,8.7 137.4,9.4 137.4,10.1 L137.4,15.7 Z"></path>
                    <path d="M144.3,2 C144.3,2.4 144.2,2.7 143.9,3 C143.6,3.3 143.3,3.4 142.9,3.4 C142.5,3.4 142.2,3.3 141.9,3 C141.6,2.7 141.5,2.4 141.5,2 C141.5,1.6 141.6,1.3 141.9,1 C142.2,0.7 142.5,0.6 142.9,0.6 C143.3,0.6 143.6,0.7 143.9,1 C144.2,1.3 144.3,1.6 144.3,2 Z M143.9,5.5 L143.9,15.7 L142,15.7 L142,5.5 L143.9,5.5 Z"></path>
                    <path d="M144.5,10.6 C144.5,9 145,7.7 146,6.7 C147,5.7 148.3,5.2 149.8,5.2 C151.3,5.2 152.6,5.7 153.5,6.7 C154.5,7.7 155,9 155,10.6 C155,12.2 154.5,13.5 153.5,14.5 C152.5,15.5 151.3,16 149.8,16 C148.3,16 147,15.5 146,14.5 C145,13.5 144.5,12.2 144.5,10.6 Z M146.4,10.6 C146.4,11.7 146.7,12.6 147.4,13.3 C148.1,14 148.8,14.3 149.8,14.3 C150.8,14.3 151.5,14 152.2,13.3 C152.9,12.6 153.2,11.7 153.2,10.6 C153.2,9.5 152.9,8.6 152.2,8 C151.5,7.3 150.8,7 149.8,7 C148.9,7 148.1,7.3 147.4,8 C146.7,8.6 146.4,9.5 146.4,10.6 Z"></path>
                </g>
                <g id="Shape" transform="translate(0.000000, 22.000000)" fill="#FDC20F">
                    <path d="M12.1,13.9 C12.1,15.4 11.5,16.7 10.4,17.6 C9.3,18.5 7.9,19 6.3,19 C4.9,19 3.6,18.6 2.5,17.7 C1.4,16.9 0.6,15.7 0.2,14.2 L2.3,13.3 C2.4,13.8 2.6,14.3 2.9,14.7 C3.2,15.1 3.5,15.5 3.8,15.8 C4.1,16.1 4.5,16.3 5,16.5 C5.4,16.7 5.9,16.8 6.3,16.8 C7.3,16.8 8.2,16.5 8.8,16 C9.4,15.5 9.8,14.8 9.8,13.9 C9.8,13.2 9.5,12.5 9,12 C8.5,11.5 7.6,11 6.2,10.5 C4.8,10 3.9,9.7 3.6,9.5 C1.7,8.6 0.8,7.2 0.8,5.3 C0.8,4 1.3,2.9 2.3,2 C3.3,1.1 4.6,0.6 6.1,0.6 C7.4,0.6 8.6,0.9 9.6,1.6 C10.6,2.3 11.2,3.1 11.5,4.1 L9.4,5 C9.2,4.4 8.8,3.8 8.2,3.4 C7.6,3 6.9,2.8 6.1,2.8 C5.2,2.8 4.5,3 3.9,3.5 C3.3,4 3,4.5 3,5.3 C3,5.9 3.2,6.4 3.7,6.9 C4.2,7.3 5.3,7.9 7.1,8.5 C8.9,9.1 10.1,9.8 10.9,10.7 C11.7,11.6 12.1,12.7 12.1,13.9 Z"></path>
                    <polygon points="23.5 1.2 23.5 3.3 15.6 3.3 15.6 8.8 22.8 8.8 22.8 10.9 15.6 10.9 15.6 16.4 23.5 16.4 23.5 18.5 13.3 18.5 13.3 1.1 23.5 1.1"></polygon>
                    <polygon points="27.3 18.6 25 18.6 25 1.2 27.7 1.2 36.2 14.8 36.3 14.8 36.2 11.4 36.2 1.2 38.4 1.2 38.4 18.6 36.1 18.6 27.2 4.4 27.1 4.4 27.2 7.8 27.2 18.6"></polygon>
                    <path d="M41.6,18.6 L39.1,18.6 L45.7,1.2 L48.2,1.2 L54.8,18.6 L52.3,18.6 L50.6,13.9 L43.3,13.9 L41.6,18.6 Z M46.9,3.9 L44.1,11.8 L49.9,11.8 L46.9,3.9 L46.9,3.9 Z"></path>
                    <polygon points="57.6 18.6 55.4 18.6 55.4 1.2 57.6 1.2"></polygon>
                    <path d="M71.2,19 C68.6,19 66.5,18.1 64.7,16.4 C63,14.7 62.1,12.5 62.1,9.9 C62.1,7.3 63,5.1 64.7,3.4 C66.4,1.6 68.6,0.8 71.2,0.8 C73.8,0.8 76,1.8 77.6,3.7 L76,5.3 C74.8,3.8 73.2,3 71.2,3 C69.3,3 67.7,3.6 66.4,4.9 C65.1,6.2 64.5,7.9 64.5,9.9 C64.5,12 65.1,13.6 66.4,14.9 C67.7,16.2 69.3,16.8 71.2,16.8 C73.2,16.8 75,15.9 76.5,14.2 L78.1,15.8 C77.3,16.8 76.3,17.6 75.1,18.1 C73.9,18.7 72.6,19 71.2,19 Z"></path>
                    <polygon points="81.6 18.6 79.4 18.6 79.4 1.2 81.6 1.2"></polygon>
                    <polygon points="85.9 18.6 83.7 18.6 83.7 1.2 85.9 1.2 92 11.8 92.1 11.8 98.2 1.2 100.4 1.2 100.4 18.6 98.2 18.6 98.2 8.2 98.3 5.3 98.2 5.3 92.7 14.9 91.4 14.9 85.9 5.3 85.8 5.3 85.9 8.2"></polygon>
                    <path d="M103.4,18.6 L100.9,18.6 L107.5,1.2 L110,1.2 L116.6,18.6 L114.1,18.6 L112.4,13.9 L105.1,13.9 L103.4,18.6 Z M108.7,3.9 L105.9,11.8 L111.7,11.8 L108.7,3.9 L108.7,3.9 Z"></path>
                    <polygon points="121.5 3.3 121.5 18.6 119.3 18.6 119.3 3.3 114.4 3.3 114.4 1.2 126.4 1.2 126.4 3.3"></polygon>
                    <polygon points="137.5 1.2 137.5 3.3 129.6 3.3 129.6 8.8 136.8 8.8 136.8 10.9 129.6 10.9 129.6 16.4 137.5 16.4 137.5 18.5 127.3 18.5 127.3 1.1 137.5 1.1"></polygon>
                    <path d="M146.8,19 C144.2,19 142.1,18.1 140.3,16.4 C138.6,14.7 137.7,12.5 137.7,9.9 C137.7,7.3 138.6,5.1 140.3,3.4 C142,1.6 144.2,0.8 146.8,0.8 C149.4,0.8 151.6,1.8 153.2,3.7 L151.6,5.3 C150.4,3.8 148.8,3 146.8,3 C144.9,3 143.3,3.6 142,4.9 C140.7,6.2 140.1,7.9 140.1,9.9 C140.1,12 140.7,13.6 142,14.9 C143.3,16.2 144.9,16.8 146.8,16.8 C148.8,16.8 150.6,15.9 152.1,14.2 L153.7,15.8 C152.9,16.8 151.9,17.6 150.7,18.1 C149.4,18.7 148.1,19 146.8,19 Z"></path>
                </g>
            </g>
            <g id="Group" transform="translate(256.000000, 240.000000)" fill-rule="nonzero">
                <g id="Shape" transform="translate(0.000000, 15.000000)" fill="#FFFFFF">
                    <path d="M15.4,46.2 C13.1,46.2 11,45.9 9.2,45.2 C7.3,44.5 5.7,43.6 4.3,42.5 C2.9,41.4 1.9,40 1.1,38.5 C0.3,37 0,35.3 0,33.4 C0,32.2 0.2,31 0.5,29.9 C0.9,28.8 1.3,27.9 1.9,27 C2.5,26.1 3.2,25.4 4,24.7 C4.8,24 5.6,23.5 6.5,23 L6.5,22.5 C5.1,21.6 3.9,20.4 2.9,18.9 C1.9,17.4 1.4,15.7 1.4,13.7 C1.4,12 1.8,10.4 2.5,9 C3.2,7.5 4.2,6.3 5.4,5.2 C6.6,4.1 8.1,3.3 9.8,2.7 C11.5,2.1 13.4,1.8 15.4,1.8 C17.4,1.8 19.3,2.1 21,2.7 C22.7,3.3 24.2,4.1 25.4,5.2 C26.6,6.3 27.6,7.5 28.3,9 C29,10.5 29.4,12.1 29.4,13.7 C29.4,15.7 28.9,17.4 27.9,18.9 C26.9,20.4 25.7,21.6 24.3,22.5 L24.3,23 C25.2,23.5 26,24 26.8,24.7 C27.6,25.4 28.3,26.1 28.9,27 C29.5,27.9 30,28.8 30.3,29.9 C30.7,31 30.8,32.1 30.8,33.4 C30.8,35.2 30.4,36.9 29.7,38.5 C29,40.1 27.9,41.4 26.5,42.5 C25.1,43.6 23.5,44.5 21.6,45.2 C19.8,45.9 17.7,46.2 15.4,46.2 Z M15.4,38.7 C17.5,38.7 19.2,38.2 20.6,37.1 C22,36 22.6,34.5 22.6,32.7 C22.6,31.8 22.4,31 22,30.3 C21.6,29.6 21.1,28.9 20.5,28.4 C19.9,27.9 19.1,27.4 18.2,27.2 C17.3,26.9 16.3,26.8 15.3,26.8 C14.3,26.8 13.3,26.9 12.4,27.2 C11.5,27.5 10.7,27.9 10.1,28.4 C9.5,28.9 9,29.6 8.6,30.3 C8.2,31 8,31.8 8,32.7 C8,34.6 8.7,36 10,37.1 C11.6,38.2 13.3,38.7 15.4,38.7 Z M15.4,19.5 C17.1,19.5 18.6,19 19.7,18 C20.9,17 21.4,15.8 21.4,14.2 C21.4,12.6 20.8,11.3 19.7,10.4 C18.5,9.5 17.1,9 15.4,9 C13.7,9 12.2,9.5 11.1,10.4 C9.9,11.3 9.4,12.6 9.4,14.2 C9.4,15.8 10,17 11.1,18 C12.2,19 13.7,19.5 15.4,19.5 Z"></path>
                    <path d="M33,0.8 L41.1,0.8 L41.1,13.3 L40.6,18.8 L41.1,18.8 C42,17.4 43.2,16.2 44.9,15.2 C46.5,14.3 48.4,13.8 50.4,13.8 C54.3,13.8 57.2,15 59.1,17.3 C61,19.6 61.9,22.8 61.9,26.8 L61.9,45.2 L53.8,45.2 L53.8,27.8 C53.8,25.7 53.3,24.1 52.3,23 C51.3,21.9 49.9,21.4 48.1,21.4 C47,21.4 46,21.6 45.1,22.1 C44.2,22.6 43.5,23.2 42.9,24.1 C42.3,24.9 41.8,25.9 41.5,27 C41.2,28.1 41,29.3 41,30.5 L41,45.3 L33,45.3 L33,0.8 Z"></path>
                </g>
                <g id="Shape" fill="#5A7FC0">
                    <path d="M3.6,0.8 L5.3,0.8 L8.2,8.6 L6.6,8.6 L6,6.7 L3,6.7 L2.4,8.6 L0.8,8.6 L3.6,0.8 Z M5.5,5.4 L4.8,3.5 L4.5,2.6 L4.4,2.6 L4.1,3.5 L3.4,5.4 L5.5,5.4 Z"></path>
                    <path d="M10.2,8.6 L10.2,0.8 L12.9,0.8 C13.3,0.8 13.6,0.9 13.9,1 C14.2,1.1 14.5,1.3 14.7,1.5 C14.9,1.7 15.1,2 15.3,2.3 C15.5,2.6 15.5,2.9 15.5,3.3 C15.5,3.7 15.4,4 15.3,4.3 C15.2,4.6 15,4.9 14.7,5.1 C14.5,5.3 14.2,5.5 13.9,5.6 C13.6,5.7 13.2,5.8 12.9,5.8 L11.6,5.8 L11.6,8.7 L10.2,8.7 L10.2,8.6 Z M13,4.3 C13.4,4.3 13.7,4.2 13.9,4 C14.1,3.8 14.2,3.5 14.2,3.2 C14.2,3.1 14.2,2.9 14.1,2.8 C14.1,2.7 14,2.6 13.9,2.5 C13.8,2.4 13.7,2.3 13.5,2.3 C13.3,2.3 13.2,2.2 13,2.2 L11.7,2.2 L11.7,4.3 L13,4.3 L13,4.3 Z"></path>
                    <path d="M17.5,0.8 L19.2,0.8 L22.1,8.6 L20.5,8.6 L19.9,6.7 L16.9,6.7 L16.3,8.6 L14.7,8.6 L17.5,0.8 Z M19.4,5.4 L18.7,3.5 L18.4,2.6 L18.3,2.6 L18,3.5 L17.3,5.4 L19.4,5.4 Z"></path>
                    <path d="M22.4,0.8 L25.2,0.8 C25.6,0.8 25.9,0.9 26.3,1 C26.6,1.1 26.9,1.3 27.1,1.5 C27.3,1.7 27.5,2 27.6,2.3 C27.7,2.6 27.8,2.9 27.8,3.3 C27.8,3.6 27.8,3.8 27.7,4 C27.6,4.2 27.5,4.4 27.3,4.6 C27.1,4.8 27,4.9 26.8,5.1 C26.6,5.3 26.4,5.4 26.2,5.4 L26.2,5.5 L28.3,8.5 L28.3,8.6 L26.6,8.6 L24.6,5.7 L23.9,5.7 L23.9,8.6 L22.4,8.6 L22.4,0.8 L22.4,0.8 Z M25.2,4.3 C25.5,4.3 25.8,4.2 26,4 C26.2,3.8 26.3,3.5 26.3,3.2 C26.3,3.1 26.3,2.9 26.2,2.8 C26.2,2.7 26.1,2.6 26,2.5 C25.9,2.4 25.8,2.3 25.6,2.3 C25.4,2.3 25.3,2.2 25.1,2.2 L23.7,2.2 L23.7,4.4 L25.2,4.4 L25.2,4.3 Z"></path>
                    <polygon points="30.1 8.6 30.1 2.2 28 2.2 28 0.8 33.8 0.8 33.8 2.2 31.6 2.2 31.6 8.6"></polygon>
                    <polygon points="34.2 0.8 35.7 0.8 35.7 8.6 34.2 8.6"></polygon>
                    <path d="M36.6,0.8 L39.4,0.8 C39.8,0.8 40.1,0.9 40.5,1 C40.8,1.1 41.1,1.3 41.3,1.5 C41.5,1.7 41.7,2 41.8,2.3 C41.9,2.6 42,2.9 42,3.3 C42,3.6 42,3.8 41.9,4 C41.8,4.2 41.7,4.4 41.5,4.6 C41.3,4.8 41.2,4.9 41,5.1 C40.8,5.3 40.6,5.4 40.4,5.4 L40.4,5.5 L42.5,8.5 L42.5,8.6 L40.8,8.6 L38.8,5.7 L38,5.7 L38,8.6 L36.5,8.6 L36.5,0.8 L36.6,0.8 Z M39.4,4.3 C39.7,4.3 40,4.2 40.2,4 C40.4,3.8 40.5,3.5 40.5,3.2 C40.5,3.1 40.5,2.9 40.4,2.8 C40.4,2.7 40.3,2.6 40.2,2.5 C40.1,2.4 40,2.3 39.8,2.3 C39.6,2.3 39.5,2.2 39.3,2.2 L38,2.2 L38,4.4 L39.4,4.4 L39.4,4.3 Z"></path>
                    <path d="M44.4,0.8 L47,0.8 C47.6,0.8 48.2,0.9 48.7,1.1 C49.2,1.3 49.6,1.6 50,1.9 C50.3,2.2 50.6,2.7 50.8,3.1 C51,3.5 51.1,4.1 51.1,4.7 C51.1,5.3 51,5.8 50.8,6.3 C50.6,6.8 50.3,7.2 50,7.5 C49.7,7.8 49.2,8.1 48.7,8.3 C48.2,8.5 47.7,8.6 47,8.6 L44.4,8.6 L44.4,0.8 Z M47,7.2 C47.4,7.2 47.8,7.1 48.1,7 C48.4,6.9 48.7,6.7 48.9,6.5 C49.1,6.3 49.3,6 49.4,5.7 C49.5,5.4 49.6,5 49.6,4.7 C49.6,4.4 49.5,4 49.4,3.7 C49.3,3.4 49.1,3.1 48.9,2.9 C48.7,2.7 48.4,2.5 48.1,2.4 C47.8,2.3 47.4,2.2 47,2.2 L45.9,2.2 L45.9,7.2 L47,7.2 Z"></path>
                    <path d="M53.5,0.8 L55.2,0.8 L58.1,8.6 L56.5,8.6 L55.9,6.7 L52.9,6.7 L52.3,8.6 L50.7,8.6 L53.5,0.8 Z M55.4,5.4 L54.7,3.5 L54.4,2.6 L54.3,2.6 L54,3.5 L53.3,5.4 L55.4,5.4 Z"></path>
                    <path d="M60.8,8.8 C60.5,8.8 60.1,8.8 59.8,8.7 C59.5,8.6 59.2,8.5 59,8.3 C58.7,8.1 58.5,7.9 58.3,7.6 C58.1,7.3 58,7 57.9,6.6 L59.3,6.1 C59.4,6.5 59.6,6.8 59.8,7.1 C60,7.4 60.4,7.5 60.8,7.5 C61,7.5 61.1,7.5 61.2,7.4 C61.3,7.3 61.5,7.3 61.6,7.2 C61.7,7.1 61.8,7 61.9,6.9 C62,6.8 62,6.6 62,6.5 C62,6.4 62,6.2 61.9,6.1 C61.8,6 61.8,5.9 61.6,5.8 C61.4,5.7 61.3,5.6 61.1,5.5 C60.9,5.4 60.7,5.3 60.4,5.2 L59.9,5 C59.7,4.9 59.5,4.8 59.3,4.7 C59.1,4.6 58.9,4.4 58.7,4.3 C58.5,4.1 58.4,3.9 58.3,3.7 C58.2,3.5 58.1,3.2 58.1,2.9 C58.1,2.6 58.2,2.3 58.3,2 C58.4,1.7 58.6,1.5 58.8,1.3 C59,1.1 59.3,0.9 59.6,0.8 C59.9,0.7 60.3,0.6 60.6,0.6 C61,0.6 61.3,0.7 61.6,0.8 C61.9,0.9 62.1,1 62.3,1.2 C62.5,1.4 62.7,1.5 62.8,1.7 C62.9,1.9 63,2.1 63.1,2.3 L61.8,2.8 C61.7,2.6 61.6,2.4 61.4,2.2 C61.2,2 60.9,1.9 60.6,1.9 C60.3,1.9 60,2 59.8,2.1 C59.6,2.2 59.5,2.4 59.5,2.7 C59.5,2.9 59.6,3.1 59.8,3.3 C60,3.5 60.3,3.6 60.8,3.8 L61.3,4 C61.6,4.1 61.9,4.2 62.2,4.4 C62.5,4.6 62.7,4.7 62.9,4.9 C63.1,5.1 63.2,5.3 63.3,5.6 C63.4,5.9 63.4,6.1 63.4,6.5 C63.4,6.9 63.3,7.3 63.2,7.6 C63,7.9 62.8,8.1 62.6,8.3 C62.3,8.5 62.1,8.6 61.7,8.7 C61.4,8.7 61.1,8.8 60.8,8.8 Z"></path>
                </g>
            </g>
            <g id="Group" transform="translate(165.000000, 155.000000)" stroke="#FFFFFF" stroke-width="2">
                <path d="M74.8,121 C70.5,121.9 66.1,122.4 61.5,122.4 C27.8,122.4 0.5,95.1 0.5,61.4 C0.5,27.7 27.8,0.4 61.5,0.4 C95.2,0.4 122.5,27.7 122.5,61.4 C122.5,63.9 122.4,66.3 122.1,68.7" id="Shape"></path>
                <polyline id="Shape" points="113.3 59.5 122.2 69.3 131.8 59.5"></polyline>
                <path d="M63.2,16.2 L63.2,23.8" id="Shape"></path>
                <path d="M63.2,31.5 L63.2,67.7" id="Shape"></path>
                <path d="M63.2,97.1 L63.2,104.8" id="Shape"></path>
                <path d="M19,60.5 L26.6,60.5" id="Shape"></path>
                <path d="M99.9,60.5 L107.5,60.5" id="Shape"></path>
                <path d="M40.9,22.2 L44.8,28.8" id="Shape"></path>
                <path d="M24.7,82.4 L31.4,78.6" id="Shape"></path>
                <path d="M44.5,71.1 L70.4,56.4" id="Shape"></path>
                <path d="M95.1,42.4 L101.7,38.6" id="Shape"></path>
                <path d="M40.6,98.6 L44.5,92" id="Shape"></path>
                <path d="M82,29 L85.9,22.4" id="Shape"></path>
                <path d="M31.2,42.7 L24.5,39" id="Shape"></path>
            </g>
            <path d="M220.5,77.5 L110.5,77.5" id="Shape" stroke="#FFFFFF" stroke-width="2"></path>
            <path d="M236.5,77.5 L357.5,77.5" id="Shape" stroke="#FFFFFF" stroke-width="2"></path>
            <g id="Group" transform="translate(16.000000, 323.000000)" stroke="#FFFFFF" stroke-width="2">
                <path d="M77,38 C77,51.6 61.2,76.8 49.9,92.9 C44.6,100.5 33.3,100.5 28,92.9 C16.8,76.7 0.9,51.5 0.9,38 C0.9,17 17.9,0 38.9,0 C59.9,0 77,17 77,38 Z" id="Shape"></path>
                <ellipse id="Oval" cx="39" cy="38" rx="16.4" ry="16.4"></ellipse>
            </g>
            <path d="M56.5,158 L56.5,324" id="Shape" stroke="#FFFFFF" stroke-width="2"></path>
        </g>
    </g>
</svg>