<?xml version="1.0" encoding="utf-8"?>
<!-- Generator: Adobe Illustrator 19.0.0, SVG Export Plug-In . SVG Version: 6.00 Build 0)  -->
<svg version="1.1" id="Layer_1" xmlns="http://www.w3.org/2000/svg" xmlns:xlink="http://www.w3.org/1999/xlink" x="0px" y="0px"
	 viewBox="0 0 202.3 141.2" style="enable-background:new 0 0 202.3 141.2;" xml:space="preserve">
<style type="text/css">
	.st0{fill:none;stroke:#FFFFFF;stroke-width:2;stroke-miterlimit:10;}
</style>
<g>
	<g>
		<g>
			<g>
				<line class="st0" x1="68.6" y1="98.2" x2="68.6" y2="104.2"/>
				<g>
					<g>
						<line class="st0" x1="101" y1="82.8" x2="101" y2="85.3"/>
						<g>
							<line class="st0" x1="85.9" y1="82.8" x2="85.9" y2="85.3"/>
							<line class="st0" x1="116.1" y1="82.8" x2="116.1" y2="85.3"/>
						</g>
					</g>
					<g>
						<line class="st0" x1="68.8" y1="82.8" x2="68.8" y2="85.3"/>
						<line class="st0" x1="133.2" y1="82.8" x2="133.2" y2="85.3"/>
					</g>
				</g>
				<line class="st0" x1="133.4" y1="98.2" x2="133.4" y2="104.2"/>
				<rect x="38.3" y="78.8" class="st0" width="125.5" height="10.2"/>
				<polyline class="st0" points="107.3,72.6 154.6,72.6 154.6,78.8 68.7,78.8 68.7,72.6 94.8,72.6 				"/>
				<polygon class="st0" points="167.4,114.3 34.6,114.3 43,88.9 159.2,88.9 				"/>
				<rect x="94.8" y="51" class="st0" width="12.5" height="27.8"/>
				<rect x="94.8" y="60.2" class="st0" width="12.5" height="9.3"/>
				<path class="st0" d="M102.5,28.5h-3c-2.6,0-4.7,2.1-4.7,4.7v9.4h12.5v-9.4C107.3,30.7,105.2,28.5,102.5,28.5z"/>
				<rect x="89.8" y="42.6" class="st0" width="22.4" height="8.3"/>
				<path class="st0" d="M102.3,98.2h-2.6c-2.2,0-4,1.8-4,4v12.1h10.6v-12.1C106.3,100,104.5,98.2,102.3,98.2z"/>
			</g>
		</g>
		<line class="st0" x1="20.7" y1="114.3" x2="181.3" y2="114.3"/>
	</g>
	<line class="st0" x1="94.8" y1="34.8" x2="107.3" y2="34.8"/>
</g>
</svg>
