<?xml version="1.0" encoding="UTF-8"?>
<svg width="233px" height="108px" viewBox="0 0 233 108" version="1.1" xmlns="http://www.w3.org/2000/svg" xmlns:xlink="http://www.w3.org/1999/xlink">
    <!-- Generator: Sketch 43 (38999) - http://www.bohemiancoding.com/sketch -->
    <title>timeline_ingresso</title>
    <desc>Created with Sketch.</desc>
    <defs></defs>
    <g id="Page-1" stroke="none" stroke-width="1" fill="none" fill-rule="evenodd">
        <g id="timeline_ingresso" transform="translate(1.000000, 2.000000)">
            <g id="Group">
                <g transform="translate(53.000000, 33.000000)" id="Shape" fill-rule="nonzero">
                    <g fill="#FDC20F">
                        <path d="M13.4,12.2 C12.7,13 11.9,13.7 10.9,14.1 C10,14.5 8.9,14.8 7.7,14.8 C6.6,14.8 5.7,14.6 4.8,14.2 C3.9,13.8 3.1,13.3 2.5,12.6 C1.8,11.9 1.3,11.2 0.9,10.3 C0.5,9.4 0.3,8.4 0.3,7.4 C0.3,6.4 0.5,5.4 0.9,4.5 C1.3,3.6 1.8,2.8 2.5,2.2 C3.2,1.5 3.9,1 4.8,0.6 C5.7,0.2 6.7,-2.84217094e-14 7.7,-2.84217094e-14 C8.8,-2.84217094e-14 9.8,0.2 10.7,0.6 C11.6,1 12.3,1.6 13,2.3 L11.1,4.1 C10.7,3.6 10.2,3.2 9.6,2.9 C9.1,2.6 8.4,2.5 7.7,2.5 C7,2.5 6.4,2.6 5.8,2.8 C5.2,3 4.7,3.4 4.3,3.8 C3.9,4.2 3.5,4.7 3.3,5.3 C3.1,5.9 2.9,6.6 2.9,7.3 C2.9,8 3,8.7 3.3,9.3 C3.5,9.9 3.9,10.4 4.3,10.8 C4.7,11.2 5.2,11.5 5.8,11.8 C6.4,12 7,12.1 7.7,12.1 C8.5,12.1 9.2,11.9 9.8,11.6 C10.4,11.3 11,10.8 11.4,10.2 L13.4,12.2 Z"></path>
                        <path d="M20.8,14.8 C19.7,14.8 18.8,14.6 17.9,14.2 C17,13.8 16.2,13.3 15.6,12.6 C14.9,11.9 14.4,11.2 14.1,10.3 C13.7,9.4 13.5,8.4 13.5,7.4 C13.5,6.4 13.7,5.4 14.1,4.5 C14.5,3.6 15,2.8 15.6,2.2 C16.3,1.5 17,1 17.9,0.6 C18.8,0.2 19.8,0 20.8,0 C21.9,0 22.8,0.2 23.7,0.6 C24.6,1 25.4,1.5 26,2.2 C26.6,2.9 27.2,3.6 27.6,4.5 C28,5.4 28.2,6.4 28.2,7.4 C28.2,8.4 28,9.4 27.6,10.3 C27.2,11.2 26.7,12 26,12.6 C25.3,13.3 24.6,13.8 23.7,14.2 C22.8,14.6 21.9,14.8 20.8,14.8 Z M20.8,12.3 C21.5,12.3 22.1,12.2 22.6,11.9 C23.2,11.7 23.7,11.3 24.1,10.9 C24.5,10.5 24.9,10 25.1,9.4 C25.3,8.8 25.5,8.1 25.5,7.4 C25.5,6.7 25.4,6 25.1,5.4 C24.9,4.8 24.5,4.3 24.1,3.9 C23.7,3.5 23.2,3.1 22.6,2.9 C22,2.7 21.4,2.5 20.8,2.5 C20.1,2.5 19.5,2.6 19,2.9 C18.4,3.1 17.9,3.5 17.5,3.9 C17.1,4.3 16.7,4.8 16.5,5.4 C16.3,6 16.1,6.7 16.1,7.4 C16.1,8.1 16.2,8.8 16.5,9.4 C16.7,10 17.1,10.5 17.5,10.9 C17.9,11.3 18.4,11.7 19,11.9 C19.5,12.1 20.1,12.3 20.8,12.3 Z"></path>
                        <polygon points="29.2 0.3 31.8 0.3 36.1 7.8 36.3 7.8 40.6 0.3 43.2 0.3 43.2 14.4 40.6 14.4 40.6 7.4 40.8 5 40.6 5 37 11.3 35.4 11.3 31.8 5 31.6 5 31.8 7.4 31.8 14.4 29.2 14.4 29.2 0.3"></polygon>
                        <path d="M44.9,14.5 L44.9,0.4 L49.9,0.4 C50.6,0.4 51.2,0.5 51.8,0.7 C52.4,0.9 52.9,1.2 53.3,1.6 C53.7,2 54.1,2.5 54.3,3 C54.5,3.5 54.7,4.1 54.7,4.8 C54.7,5.5 54.6,6.1 54.3,6.6 C54.1,7.1 53.7,7.6 53.3,8 C52.9,8.4 52.4,8.7 51.8,8.9 C51.2,9.1 50.6,9.2 49.9,9.2 L47.6,9.2 L47.6,14.4 L44.9,14.4 L44.9,14.5 Z M49.9,6.8 C50.6,6.8 51.1,6.6 51.5,6.2 C51.9,5.8 52,5.4 52,4.8 C52,4.6 52,4.3 51.9,4.1 C51.8,3.9 51.7,3.7 51.5,3.5 C51.3,3.3 51.1,3.2 50.8,3.1 C50.5,3 50.2,2.9 49.9,2.9 L47.5,2.9 L47.5,6.8 L49.9,6.8 L49.9,6.8 Z"></path>
                        <path d="M55.4,0.3 L60.6,0.3 C61.3,0.3 62,0.4 62.5,0.6 C63.1,0.8 63.6,1.1 64,1.5 C64.4,1.9 64.7,2.4 65,2.9 C65.2,3.4 65.3,4 65.3,4.7 C65.3,5.2 65.2,5.6 65.1,6 C65,6.4 64.7,6.8 64.4,7.1 C64.1,7.4 63.8,7.7 63.4,8 C63,8.3 62.6,8.5 62.2,8.6 L62.2,8.7 L66,14.1 L66,14.3 L63,14.3 L59.3,9 L58.1,9 L58.1,14.3 L55.4,14.3 L55.4,0.3 L55.4,0.3 Z M60.5,6.7 C61.1,6.7 61.6,6.5 62,6.1 C62.4,5.7 62.6,5.3 62.6,4.7 C62.6,4.5 62.6,4.2 62.5,4 C62.4,3.8 62.3,3.6 62.1,3.4 C61.9,3.2 61.7,3.1 61.5,3 C61.2,2.9 61,2.8 60.6,2.8 L58.1,2.8 L58.1,6.7 L60.5,6.7 L60.5,6.7 Z"></path>
                        <path d="M70.6,0.3 L73.6,0.3 L78.9,14.4 L76,14.4 L74.8,11 L69.3,11 L68.1,14.4 L65.2,14.4 L70.6,0.3 Z M74,8.7 L72.7,5.2 L72.2,3.5 L72,3.5 L71.5,5.2 L70.2,8.7 L74,8.7 Z"></path>
                        <path d="M79.4,0.3 L84.6,0.3 C85.3,0.3 86,0.4 86.5,0.6 C87.1,0.8 87.6,1.1 88,1.5 C88.4,1.9 88.7,2.4 89,2.9 C89.2,3.4 89.3,4 89.3,4.7 C89.3,5.2 89.2,5.6 89.1,6 C89,6.4 88.7,6.8 88.4,7.1 C88.1,7.4 87.8,7.7 87.4,8 C87,8.3 86.6,8.5 86.2,8.6 L86.2,8.7 L90,14.1 L90,14.3 L87,14.3 L83.3,9 L82.1,9 L82.1,14.3 L79.4,14.3 L79.4,0.3 L79.4,0.3 Z M84.6,6.7 C85.2,6.7 85.7,6.5 86.1,6.1 C86.5,5.7 86.7,5.3 86.7,4.7 C86.7,4.5 86.7,4.2 86.6,4 C86.5,3.8 86.4,3.6 86.2,3.4 C86,3.2 85.8,3.1 85.6,3 C85.3,2.9 85.1,2.8 84.7,2.8 L82.2,2.8 L82.2,6.7 L84.6,6.7 L84.6,6.7 Z"></path>
                    </g>
                    <g transform="translate(1.000000, 20.000000)" fill="#FFFFFF">
                        <polygon points="0.4 0.7 3 0.7 3 14.8 0.3 14.8 0.3 0.7"></polygon>
                        <polygon points="4.7 0.7 7.8 0.7 13.5 10.2 13.7 10.2 13.5 7.5 13.5 0.7 16.1 0.7 16.1 14.8 13.3 14.8 7.3 4.8 7.1 4.8 7.3 7.5 7.3 14.8 4.7 14.8"></polygon>
                        <path d="M24.3,7.1 L31.2,7.1 C31.2,7.3 31.3,7.4 31.3,7.7 L31.3,8.4 C31.3,9.3 31.2,10.2 30.9,11 C30.6,11.8 30.2,12.5 29.6,13.2 C29,13.9 28.2,14.4 27.3,14.8 C26.4,15.2 25.4,15.4 24.3,15.4 C23.3,15.4 22.3,15.2 21.4,14.8 C20.5,14.4 19.7,13.9 19,13.3 C18.3,12.6 17.8,11.9 17.4,11 C17,10.1 16.8,9.1 16.8,8 C16.8,6.9 17,5.9 17.4,5 C17.8,4.1 18.3,3.3 19,2.7 C19.7,2 20.5,1.5 21.4,1.2 C22.3,0.8 23.3,0.6 24.3,0.6 C25.4,0.6 26.5,0.8 27.4,1.2 C28.3,1.6 29.1,2.1 29.7,2.8 L27.9,4.6 C27.4,4.1 26.9,3.7 26.4,3.5 C25.8,3.2 25.2,3.1 24.4,3.1 C23.8,3.1 23.1,3.2 22.6,3.4 C22,3.6 21.5,4 21.1,4.4 C20.7,4.8 20.3,5.3 20.1,5.9 C19.8,6.5 19.7,7.2 19.7,7.9 C19.7,8.6 19.8,9.3 20.1,9.9 C20.4,10.5 20.7,11 21.1,11.4 C21.5,11.8 22.1,12.1 22.6,12.4 C23.2,12.6 23.8,12.7 24.5,12.7 C25.3,12.7 25.9,12.6 26.4,12.4 C26.9,12.2 27.4,11.9 27.7,11.6 C28,11.4 28.2,11.1 28.4,10.7 C28.6,10.3 28.7,9.9 28.8,9.5 L24.4,9.5 L24.4,7.1 L24.3,7.1 Z"></path>
                        <path d="M32.4,0.7 L37.6,0.7 C38.3,0.7 39,0.8 39.5,1 C40.1,1.2 40.6,1.5 41,1.9 C41.4,2.3 41.7,2.8 42,3.3 C42.3,3.8 42.3,4.4 42.3,5.1 C42.3,5.6 42.2,6 42.1,6.4 C41.9,6.8 41.7,7.2 41.4,7.5 C41.1,7.8 40.8,8.1 40.4,8.4 C40,8.7 39.6,8.9 39.2,9 L39.2,9.1 L43,14.5 L43,14.7 L40,14.7 L36.3,9.4 L35.1,9.4 L35.1,14.7 L32.4,14.7 L32.4,0.7 L32.4,0.7 Z M37.6,7.1 C38.2,7.1 38.7,6.9 39.1,6.5 C39.5,6.1 39.7,5.7 39.7,5.1 C39.7,4.9 39.7,4.6 39.6,4.4 C39.5,4.2 39.4,4 39.2,3.8 C39,3.6 38.8,3.5 38.6,3.4 C38.3,3.3 38.1,3.2 37.7,3.2 L35.2,3.2 L35.2,7.1 L37.6,7.1 L37.6,7.1 Z"></path>
                        <polygon points="46.1 3.2 46.1 6.5 51.8 6.5 51.8 9 46.1 9 46.1 12.3 52.4 12.3 52.4 14.8 43.4 14.8 43.4 0.7 52.4 0.7 52.4 3.2 46.1 3.2"></polygon>
                        <path d="M58,15.2 C57.4,15.2 56.8,15.1 56.3,14.9 C55.7,14.7 55.2,14.5 54.8,14.1 C54.3,13.8 53.9,13.3 53.6,12.8 C53.3,12.3 53,11.7 52.8,11.1 L55.3,10.1 C55.5,10.8 55.8,11.4 56.3,11.9 C56.8,12.4 57.4,12.6 58.1,12.6 C58.4,12.6 58.6,12.6 58.9,12.5 C59.2,12.4 59.4,12.3 59.6,12.2 C59.8,12.1 60,11.9 60.1,11.7 C60.2,11.5 60.3,11.2 60.3,11 C60.3,10.7 60.3,10.5 60.2,10.3 C60.1,10.1 60,9.9 59.7,9.7 C59.5,9.5 59.2,9.3 58.9,9.2 C58.6,9 58.1,8.9 57.6,8.7 L56.7,8.4 C56.3,8.3 55.9,8.1 55.5,7.9 C55.1,7.7 54.8,7.4 54.4,7.1 C54.1,6.8 53.8,6.4 53.6,6 C53.4,5.6 53.3,5.1 53.3,4.5 C53.3,3.9 53.4,3.4 53.6,2.9 C53.8,2.4 54.1,2 54.5,1.6 C54.9,1.2 55.4,1 55.9,0.8 C56.4,0.6 57.1,0.5 57.8,0.5 C58.5,0.5 59.1,0.6 59.6,0.8 C60.1,1 60.6,1.2 60.9,1.5 C61.3,1.8 61.6,2.1 61.8,2.5 C62,2.9 62.2,3.2 62.3,3.5 L60,4.5 C59.9,4.1 59.6,3.7 59.3,3.4 C59,3.1 58.5,2.9 57.9,2.9 C57.3,2.9 56.8,3 56.5,3.3 C56.1,3.6 55.9,3.9 55.9,4.4 C55.9,4.8 56.1,5.2 56.5,5.5 C56.9,5.8 57.5,6.1 58.3,6.4 L59.2,6.7 C59.8,6.9 60.3,7.1 60.7,7.4 C61.2,7.7 61.6,8 61.9,8.3 C62.2,8.6 62.5,9.1 62.7,9.5 C62.9,9.9 63,10.5 63,11.1 C63,11.8 62.9,12.5 62.6,13 C62.3,13.5 61.9,14 61.5,14.3 C61,14.6 60.5,14.9 59.9,15.1 C59.2,15.1 58.6,15.2 58,15.2 Z"></path>
                        <path d="M68.2,15.2 C67.6,15.2 67,15.1 66.5,14.9 C65.9,14.7 65.4,14.5 65,14.1 C64.5,13.8 64.1,13.3 63.8,12.8 C63.5,12.3 63.2,11.7 63,11.1 L65.5,10.1 C65.7,10.8 66,11.4 66.5,11.9 C67,12.4 67.6,12.6 68.3,12.6 C68.6,12.6 68.8,12.6 69.1,12.5 C69.4,12.4 69.6,12.3 69.8,12.2 C70,12.1 70.2,11.9 70.3,11.7 C70.4,11.5 70.5,11.2 70.5,11 C70.5,10.7 70.5,10.5 70.4,10.3 C70.3,10.1 70.2,9.9 69.9,9.7 C69.7,9.5 69.4,9.3 69.1,9.2 C68.8,9 68.3,8.9 67.8,8.7 L66.9,8.4 C66.5,8.3 66.1,8.1 65.7,7.9 C65.3,7.7 65,7.4 64.6,7.1 C64.3,6.8 64,6.4 63.8,6 C63.6,5.6 63.5,5.1 63.5,4.5 C63.5,3.9 63.6,3.4 63.8,2.9 C64,2.4 64.3,2 64.7,1.6 C65.1,1.2 65.6,1 66.1,0.8 C66.6,0.6 67.3,0.5 68,0.5 C68.7,0.5 69.3,0.6 69.8,0.8 C70.3,1 70.8,1.2 71.1,1.5 C71.5,1.8 71.8,2.1 72,2.5 C72.2,2.9 72.4,3.2 72.5,3.5 L70.2,4.5 C70.1,4.1 69.8,3.7 69.5,3.4 C69.2,3.1 68.7,2.9 68.1,2.9 C67.5,2.9 67,3 66.7,3.3 C66.3,3.6 66.1,3.9 66.1,4.4 C66.1,4.8 66.3,5.2 66.7,5.5 C67.1,5.8 67.7,6.1 68.5,6.4 L69.4,6.7 C70,6.9 70.5,7.1 70.9,7.4 C71.4,7.7 71.8,8 72.1,8.3 C72.4,8.6 72.7,9.1 72.9,9.5 C73.1,9.9 73.2,10.5 73.2,11.1 C73.2,11.8 73.1,12.5 72.8,13 C72.5,13.5 72.1,14 71.7,14.3 C71.2,14.6 70.7,14.9 70.1,15.1 C69.3,15.1 68.8,15.2 68.2,15.2 Z"></path>
                        <path d="M80.7,15.2 C79.6,15.2 78.7,15 77.8,14.6 C76.9,14.2 76.1,13.7 75.5,13 C74.8,12.3 74.3,11.6 74,10.6 C73.6,9.7 73.4,8.7 73.4,7.7 C73.4,6.7 73.6,5.7 74,4.8 C74.4,3.9 74.9,3.1 75.5,2.4 C76.2,1.7 76.9,1.2 77.8,0.8 C78.7,0.4 79.7,0.2 80.7,0.2 C81.8,0.2 82.7,0.4 83.6,0.8 C84.5,1.2 85.3,1.7 85.9,2.4 C86.5,3.1 87.1,3.8 87.5,4.8 C87.9,5.7 88.1,6.7 88.1,7.7 C88.1,8.7 87.9,9.7 87.5,10.6 C87.1,11.5 86.6,12.3 85.9,13 C85.2,13.7 84.5,14.2 83.6,14.6 C82.7,15 81.8,15.2 80.7,15.2 Z M80.7,12.6 C81.4,12.6 82,12.5 82.5,12.2 C83.1,12 83.6,11.6 84,11.2 C84.4,10.8 84.8,10.3 85,9.7 C85.2,9.1 85.4,8.4 85.4,7.7 C85.4,7 85.3,6.3 85,5.7 C84.8,5.1 84.4,4.6 84,4.2 C83.6,3.8 83.1,3.4 82.5,3.2 C81.9,3 81.3,2.8 80.7,2.8 C80,2.8 79.4,2.9 78.9,3.2 C78.3,3.4 77.8,3.8 77.4,4.2 C77,4.6 76.6,5.1 76.4,5.7 C76.2,6.3 76,7 76,7.7 C76,8.4 76.1,9.1 76.4,9.7 C76.6,10.3 77,10.8 77.4,11.2 C77.8,11.6 78.3,12 78.9,12.2 C79.5,12.5 80.1,12.6 80.7,12.6 Z"></path>
                    </g>
                </g>
                <path d="M157.3,87.6 L36.3,87.6" id="Shape" stroke="#FFFFFF" stroke-width="2.1765"></path>
                <path d="M183.3,88 L183.3,16" id="Shape" stroke="#FFFFFF" stroke-width="2.176" stroke-dasharray="5"></path>
                <path d="M157.3,16.6 L36.3,16.6" id="Shape" stroke="#FFFFFF" stroke-width="2.1765"></path>
                <path d="M229.8,74.5 C217.6,74.5 207.8,64.7 207.8,52.5 C207.8,40.3 217.6,30.5 229.8,30.5 L229.8,30.5 L229.8,0 L0.8,0 L0.8,30.5 L0.8,30.5 C13,30.5 22.8,40.3 22.8,52.5 C22.8,64.7 13,74.5 0.8,74.5 L0.8,74.5 L0.8,104 L229.9,104 L229.8,74.5 L229.8,74.5 Z" id="Shape" stroke="#FFFFFF" stroke-width="2.5253"></path>
            </g>
        </g>
    </g>
</svg>