<?xml version="1.0" encoding="utf-8"?>
<!-- Generator: Adobe Illustrator 19.0.0, SVG Export Plug-In . SVG Version: 6.00 Build 0)  -->
<svg version="1.1" id="Layer_1" xmlns="http://www.w3.org/2000/svg" xmlns:xlink="http://www.w3.org/1999/xlink" x="0px" y="0px"
	 viewBox="0 0 332.3 117" style="enable-background:new 0 0 332.3 117;" xml:space="preserve">
<style type="text/css">
	.st0{fill:none;stroke:#444545;stroke-width:2;stroke-miterlimit:10;}
</style>
<g>
	<path class="st0" d="M252.3,49.5c1.4-8.8-4.6-17.2-13.4-18.6c-4.6-0.7-9.1,0.5-12.5,3.2c-1.2-7.8-6.3-14.8-14.1-18.2
		c-12-5.1-25.9,0.4-31,12.4c-1.7,4.1-2.3,8.4-1.7,12.5c-2.1-1.6-4.6-2.8-7.4-3.2c-8.8-1.4-17.2,4.6-18.6,13.4
		c-0.2,1.5-0.3,2.9-0.1,4.4c-2.1-1.3-4.6-2.1-7.2-2.1c-7,0-12.8,5.3-13.5,12.1c-2.5-2.6-6-4.2-9.8-4.2c-7.5,0-13.6,6.1-13.6,13.6
		c0,7.5,6.1,13.6,13.6,13.6H86.9"/>
	<path class="st0" d="M160,74.5c0-0.1,0-0.2,0-0.3"/>
	<line class="st0" x1="227.4" y1="83.8" x2="275.3" y2="83.8"/>
	<line class="st0" x1="278.7" y1="83.8" x2="285.9" y2="83.8"/>
	<polyline class="st0" points="295.8,83.8 297.7,83.8 314.1,83.8 	"/>
	<line class="st0" x1="217" y1="107" x2="67.7" y2="107"/>
	<line class="st0" x1="32.9" y1="107" x2="16.7" y2="107"/>
	<line class="st0" x1="62.7" y1="107" x2="46.6" y2="107"/>
</g>
</svg>
