<?xml version="1.0" encoding="utf-8"?>
<!-- Generator: Adobe Illustrator 19.0.0, SVG Export Plug-In . SVG Version: 6.00 Build 0)  -->
<svg version="1.1" id="Layer_1" xmlns="http://www.w3.org/2000/svg" xmlns:xlink="http://www.w3.org/1999/xlink" x="0px" y="0px"
	 viewBox="0 0 1255.4 180" style="enable-background:new 0 0 1255.4 180;" xml:space="preserve">
<style type="text/css">
	.st0{fill:none;stroke:#FFFFFF;stroke-width:2;stroke-miterlimit:10;}
</style>
<path class="st0" d="M1228.2,150h-6.4c-14.6,0-28.3-7.3-36.6-19.3c-16.4-23.7-46.8-39.6-81.6-39.6c-18.2,0-35.2,4.4-49.7,11.9
	c-30.6-44.1-91.3-74.1-161.1-74.1c-75.8,0-140.8,35.4-168.3,85.7c-12,22-35.3,35.4-60.3,35.4h-51.7c-9.7,0-19.1-3.5-26.3-10
	c-5.3-4.8-12.7-7.7-21-7.7c-7.1,0-13.6,2.2-18.7,5.9c-11.1-15.7-30.3-26-52.1-26c-26.9,0-49.9,15.8-58.5,37.9h-74.2
	c-11.6,0-22.4-5.6-29.4-14.9c-12-15.7-32.6-26-56.1-26c-13.9,0-26.8,3.6-37.5,9.9C213.8,86.3,172.7,65,126.2,65
	c-37.5,0-71.5,13.9-96.3,36.4c-1.5,1.4-2.9,2.7-4.4,4.1"/>
</svg>
