<?xml version="1.0" encoding="utf-8"?>
<!-- Generator: Adobe Illustrator 19.0.0, SVG Export Plug-In . SVG Version: 6.00 Build 0)  -->
<svg version="1.1" id="Layer_1" xmlns="http://www.w3.org/2000/svg" xmlns:xlink="http://www.w3.org/1999/xlink" x="0px" y="0px"
	 viewBox="0 0 229.5 84" style="enable-background:new 0 0 229.5 84;" xml:space="preserve">
<style type="text/css">
	.st0{fill:none;stroke:#444545;stroke-width:2;stroke-miterlimit:10;}
</style>
<g>
	<path class="st0" d="M158.3,36.2c0.8-4.6-2.4-9-7-9.8c-2.4-0.4-4.8,0.3-6.5,1.7c-0.6-4.1-3.3-7.8-7.4-9.5
		c-6.3-2.7-13.6,0.2-16.2,6.5c-0.9,2.1-1.2,4.4-0.9,6.6c-1.1-0.9-2.4-1.5-3.9-1.7c-4.6-0.8-9,2.4-9.8,7c-0.1,0.8-0.1,1.5-0.1,2.3
		c-1.1-0.7-2.4-1.1-3.8-1.1c-3.7,0-6.7,2.8-7.1,6.4c-1.3-1.4-3.1-2.2-5.1-2.2c-3.9,0-7.1,3.2-7.1,7.1c0,3.9,3.2,7.1,7.1,7.1H71.6"/>
	<line class="st0" x1="145.3" y1="54.2" x2="170.4" y2="54.2"/>
	<line class="st0" x1="172.1" y1="54.2" x2="175.9" y2="54.2"/>
	<polyline class="st0" points="181.1,54.2 182.1,54.2 190.7,54.2 	"/>
	<line class="st0" x1="139.8" y1="66.4" x2="61.5" y2="66.4"/>
	<line class="st0" x1="43.3" y1="66.4" x2="34.8" y2="66.4"/>
	<line class="st0" x1="59" y1="66.4" x2="50.5" y2="66.4"/>
</g>
</svg>
