<?xml version="1.0" encoding="utf-8"?>
<!-- Generator: Adobe Illustrator 19.0.0, SVG Export Plug-In . SVG Version: 6.00 Build 0)  -->
<svg version="1.1" id="Layer_1" xmlns="http://www.w3.org/2000/svg" xmlns:xlink="http://www.w3.org/1999/xlink" x="0px" y="0px"
	 viewBox="0 0 135.7 67.2" style="enable-background:new 0 0 135.7 67.2;" xml:space="preserve">
<style type="text/css">
	.st0{fill:none;stroke:#444545;stroke-width:2;stroke-miterlimit:10;}
</style>
<g>
	<line class="st0" x1="80.6" y1="52.3" x2="43.9" y2="52.3"/>
	<line class="st0" x1="41.4" y1="52.3" x2="35.8" y2="52.3"/>
	<line class="st0" x1="31.4" y1="52.3" x2="19.6" y2="52.3"/>
	<path class="st0" d="M83.9,52.3h23.3c4.5,0,8.1-3.6,8.1-8.1s-3.6-8.1-8.1-8.1c-2.2,0-4.2,0.9-5.7,2.3c-0.2-5.3-4.5-9.5-9.8-9.5
		c-0.4,0-0.9,0-1.3,0.1C89.8,21.7,83.8,16,76.4,16c-7.8,0-14.1,6.3-14.1,14.1H44.3"/>
	<path class="st0" d="M91.8,48.4"/>
</g>
</svg>
