<?xml version="1.0" encoding="utf-8"?>
<!-- Generator: Adobe Illustrator 19.0.0, SVG Export Plug-In . SVG Version: 6.00 Build 0)  -->
<svg version="1.1" id="Layer_1" xmlns="http://www.w3.org/2000/svg" xmlns:xlink="http://www.w3.org/1999/xlink" x="0px" y="0px"
	 viewBox="0 0 229.5 84" style="enable-background:new 0 0 229.5 84;" xml:space="preserve">
<style type="text/css">
	.st0{fill:none;stroke:#444545;stroke-width:2;stroke-miterlimit:10;}
</style>
<g>
	<g>
		<path class="st0" d="M105.7,49H138c3,0,5.4-2.4,5.4-5.4c0-3-2.4-5.4-5.4-5.4c-0.6,0-1.1,0.1-1.7,0.3c0.2-0.7,0.3-1.4,0.3-2.1
			c0-4.4-3.6-8-8-8c-2.3,0-4.4,1-5.8,2.5c-0.7-6-5.8-10.6-11.9-10.6c-6.4,0-11.6,5-12,11.3c-1.2-1.3-2.9-2.1-4.9-2.1
			c-3.3,0-6.1,2.4-6.7,5.6c-1-0.9-2.3-1.5-3.7-1.5c-0.9,0-1.7,0.2-2.4,0.6c0.1-0.4,0.1-0.9,0.1-1.3c0-4.6-3.7-8.3-8.3-8.3
			c-2.7,0-5.1,1.3-6.6,3.3c-1-2.9-3.8-5-7.1-5c-4.2,0-7.5,3.4-7.5,7.5c0,0.6,0.1,1.2,0.2,1.8c-0.4-0.1-0.8-0.1-1.2-0.1
			c-3,0-5.4,2.4-5.4,5.4c0,3,2.4,5.4,5.4,5.4H33.6"/>
		<path class="st0" d="M121,47"/>
		<line class="st0" x1="106.7" y1="61.7" x2="85.4" y2="61.7"/>
		<line class="st0" x1="82.5" y1="61.7" x2="79.3" y2="61.7"/>
		<polyline class="st0" points="75.6,61.7 74.7,61.7 67.4,61.7 		"/>
	</g>
	<line class="st0" x1="193" y1="37.5" x2="171.6" y2="37.5"/>
	<line class="st0" x1="168.7" y1="37.5" x2="165.5" y2="37.5"/>
	<polyline class="st0" points="162.5,37.5 161.7,37.5 154.4,37.5 	"/>
</g>
</svg>
