<?xml version="1.0" encoding="utf-8"?>
<!-- Generator: Adobe Illustrator 19.0.0, SVG Export Plug-In . SVG Version: 6.00 Build 0)  -->
<svg version="1.1" id="Layer_1" xmlns="http://www.w3.org/2000/svg" xmlns:xlink="http://www.w3.org/1999/xlink" x="0px" y="0px"
	 viewBox="0 0 229.5 84" style="enable-background:new 0 0 229.5 84;" xml:space="preserve">
<style type="text/css">
	.st0{fill:none;stroke:#444545;stroke-width:2;stroke-miterlimit:10;}
</style>
<g>
	<g>
		<path class="st0" d="M131.1,34.6"/>
		<path class="st0" d="M68.1,32c1.9,0,3.7,0.7,5.1,2.1l1.2,1.2c2.7,2.7,7.1,2.7,9.8,0l1.1-1.1c2.8-2.8,7.4-2.8,10.3,0l1.2,1.2
			c2.7,2.7,7.1,2.7,9.8,0l1.2-1.2c1.4-1.4,3.3-2.1,5.1-2.1"/>
		<path class="st0" d="M112.9,32c1.9,0,3.7,0.7,5.1,2.1l1.2,1.2c2.7,2.7,7.1,2.7,9.8,0l1.1-1.1c2.8-2.8,7.4-2.8,10.3,0l1.2,1.2
			c2.7,2.7,7.1,2.7,9.8,0l1.2-1.2c1.4-1.4,3.3-2.1,5.1-2.1"/>
	</g>
</g>
<g>
	<g>
		<path class="st0" d="M108.7,48.8"/>
		<path class="st0" d="M90.5,46.2c1.9,0,3.7,0.7,5.1,2.1l1.2,1.2c2.7,2.7,7.1,2.7,9.8,0l1.1-1.1c2.8-2.8,7.4-2.8,10.3,0l1.2,1.2
			c2.7,2.7,7.1,2.7,9.8,0l1.2-1.2c1.4-1.4,3.3-2.1,5.1-2.1"/>
	</g>
</g>
</svg>
