<?xml version="1.0" encoding="utf-8"?>
<!-- Generator: Adobe Illustrator 19.0.0, SVG Export Plug-In . SVG Version: 6.00 Build 0)  -->
<svg version="1.1" id="Layer_1" xmlns="http://www.w3.org/2000/svg" xmlns:xlink="http://www.w3.org/1999/xlink" x="0px" y="0px"
	 viewBox="0 0 1211.7 63.2" style="enable-background:new 0 0 1211.7 63.2;" xml:space="preserve">
<style type="text/css">
	.wave{fill:none;stroke:#FDC20F;stroke-width:2;stroke-miterlimit:10;}
</style>
<g>
	<g>
		<path class="wave" d="M90.1,11.4"/>
		<path class="wave" d="M5.7,14.9c2.5,0,5-0.9,6.9-2.8l1.5-1.5c3.6-3.6,9.5-3.6,13.2,0l1.5,1.5c3.8,3.8,9.9,3.8,13.7,0l1.5-1.5
			c3.6-3.6,9.5-3.6,13.2,0l1.6,1.6c1.9,1.9,4.4,2.8,6.9,2.8"/>
		<path class="wave" d="M65.7,14.9c2.5,0,5-0.9,6.9-2.8l1.5-1.5c3.6-3.6,9.5-3.6,13.2,0l1.5,1.5c3.8,3.8,9.9,3.8,13.7,0l1.5-1.5
			c3.6-3.6,9.5-3.6,13.2,0l1.6,1.6c1.9,1.9,4.4,2.8,6.9,2.8"/>
	</g>
	<g>
		<path class="wave" d="M210.1,11.4"/>
		<path class="wave" d="M125.7,14.9c2.5,0,5-0.9,6.9-2.8l1.5-1.5c3.6-3.6,9.5-3.6,13.2,0l1.5,1.5c3.8,3.8,9.9,3.8,13.7,0l1.5-1.5
			c3.6-3.6,9.5-3.6,13.2,0l1.6,1.6c1.9,1.9,4.4,2.8,6.9,2.8"/>
		<path class="wave" d="M185.7,14.9c2.5,0,5-0.9,6.9-2.8l1.5-1.5c3.6-3.6,9.5-3.6,13.2,0l1.5,1.5c3.8,3.8,9.9,3.8,13.7,0l1.5-1.5
			c3.6-3.6,9.5-3.6,13.2,0l1.6,1.6c1.9,1.9,4.4,2.8,6.9,2.8"/>
	</g>
	<g>
		<path class="wave" d="M330.1,11.4"/>
		<path class="wave" d="M245.7,14.9c2.5,0,5-0.9,6.9-2.8l1.5-1.5c3.6-3.6,9.5-3.6,13.2,0l1.5,1.5c3.8,3.8,9.9,3.8,13.7,0l1.5-1.5
			c3.6-3.6,9.5-3.6,13.2,0l1.6,1.6c1.9,1.9,4.4,2.8,6.9,2.8"/>
		<path class="wave" d="M305.7,14.9c2.5,0,5-0.9,6.9-2.8l1.5-1.5c3.6-3.6,9.5-3.6,13.2,0l1.5,1.5c3.8,3.8,9.9,3.8,13.7,0l1.5-1.5
			c3.6-3.6,9.5-3.6,13.2,0l1.6,1.6c1.9,1.9,4.4,2.8,6.9,2.8"/>
	</g>
	<g>
		<path class="wave" d="M450.1,11.4"/>
		<path class="wave" d="M365.7,14.9c2.5,0,5-0.9,6.9-2.8l1.5-1.5c3.6-3.6,9.5-3.6,13.2,0l1.5,1.5c3.8,3.8,9.9,3.8,13.7,0l1.5-1.5
			c3.6-3.6,9.5-3.6,13.2,0l1.6,1.6c1.9,1.9,4.4,2.8,6.9,2.8"/>
		<path class="wave" d="M425.7,14.9c2.5,0,5-0.9,6.9-2.8l1.5-1.5c3.6-3.6,9.5-3.6,13.2,0l1.5,1.5c3.8,3.8,9.9,3.8,13.7,0l1.5-1.5
			c3.6-3.6,9.5-3.6,13.2,0l1.6,1.6c1.9,1.9,4.4,2.8,6.9,2.8"/>
	</g>
	<g>
		<path class="wave" d="M570.1,11.4"/>
		<path class="wave" d="M485.7,14.9c2.5,0,5-0.9,6.9-2.8l1.5-1.5c3.6-3.6,9.5-3.6,13.2,0l1.5,1.5c3.8,3.8,9.9,3.8,13.7,0l1.5-1.5
			c3.6-3.6,9.5-3.6,13.2,0l1.6,1.6c1.9,1.9,4.4,2.8,6.9,2.8"/>
		<path class="wave" d="M545.7,14.9c2.5,0,5-0.9,6.9-2.8l1.5-1.5c3.6-3.6,9.5-3.6,13.2,0l1.5,1.5c3.8,3.8,9.9,3.8,13.7,0l1.5-1.5
			c3.6-3.6,9.5-3.6,13.2,0l1.6,1.6c1.9,1.9,4.4,2.8,6.9,2.8"/>
	</g>
	<g>
		<path class="wave" d="M690.1,11.4"/>
		<path class="wave" d="M605.7,14.9c2.5,0,5-0.9,6.9-2.8l1.5-1.5c3.6-3.6,9.5-3.6,13.2,0l1.5,1.5c3.8,3.8,9.9,3.8,13.7,0l1.5-1.5
			c3.6-3.6,9.5-3.6,13.2,0l1.6,1.6c1.9,1.9,4.4,2.8,6.9,2.8"/>
		<path class="wave" d="M665.7,14.9c2.5,0,5-0.9,6.9-2.8l1.5-1.5c3.6-3.6,9.5-3.6,13.2,0l1.5,1.5c3.8,3.8,9.9,3.8,13.7,0l1.5-1.5
			c3.6-3.6,9.5-3.6,13.2,0l1.6,1.6c1.9,1.9,4.4,2.8,6.9,2.8"/>
	</g>
	<g>
		<path class="wave" d="M810.1,11.4"/>
		<path class="wave" d="M725.7,14.9c2.5,0,5-0.9,6.9-2.8l1.5-1.5c3.6-3.6,9.5-3.6,13.2,0l1.5,1.5c3.8,3.8,9.9,3.8,13.7,0l1.5-1.5
			c3.6-3.6,9.5-3.6,13.2,0l1.6,1.6c1.9,1.9,4.4,2.8,6.9,2.8"/>
		<path class="wave" d="M785.7,14.9c2.5,0,5-0.9,6.9-2.8l1.5-1.5c3.6-3.6,9.5-3.6,13.2,0l1.5,1.5c3.8,3.8,9.9,3.8,13.7,0l1.5-1.5
			c3.6-3.6,9.5-3.6,13.2,0l1.6,1.6c1.9,1.9,4.4,2.8,6.9,2.8"/>
	</g>
	<g>
		<path class="wave" d="M930.1,11.4"/>
		<path class="wave" d="M845.7,14.9c2.5,0,5-0.9,6.9-2.8l1.5-1.5c3.6-3.6,9.5-3.6,13.2,0l1.5,1.5c3.8,3.8,9.9,3.8,13.7,0l1.5-1.5
			c3.6-3.6,9.5-3.6,13.2,0l1.6,1.6c1.9,1.9,4.4,2.8,6.9,2.8"/>
		<path class="wave" d="M905.7,14.9c2.5,0,5-0.9,6.9-2.8l1.5-1.5c3.6-3.6,9.5-3.6,13.2,0l1.5,1.5c3.8,3.8,9.9,3.8,13.7,0l1.5-1.5
			c3.6-3.6,9.5-3.6,13.2,0l1.6,1.6c1.9,1.9,4.4,2.8,6.9,2.8"/>
	</g>
	<g>
		<path class="wave" d="M1050.1,11.4"/>
		<path class="wave" d="M965.7,14.9c2.5,0,5-0.9,6.9-2.8l1.5-1.5c3.6-3.6,9.5-3.6,13.2,0l1.5,1.5c3.8,3.8,9.9,3.8,13.7,0l1.5-1.5
			c3.6-3.6,9.5-3.6,13.2,0l1.6,1.6c1.9,1.9,4.4,2.8,6.9,2.8"/>
		<path class="wave" d="M1025.7,14.9c2.5,0,5-0.9,6.9-2.8l1.5-1.5c3.6-3.6,9.5-3.6,13.2,0l1.5,1.5c3.8,3.8,9.9,3.8,13.7,0l1.5-1.5
			c3.6-3.6,9.5-3.6,13.2,0l1.6,1.6c1.9,1.9,4.4,2.8,6.9,2.8"/>
	</g>
	<g>
		<path class="wave" d="M1170.1,11.4"/>
		<path class="wave" d="M1085.7,14.9c2.5,0,5-0.9,6.9-2.8l1.5-1.5c3.6-3.6,9.5-3.6,13.2,0l1.5,1.5c3.8,3.8,9.9,3.8,13.7,0l1.5-1.5
			c3.6-3.6,9.5-3.6,13.2,0l1.6,1.6c1.9,1.9,4.4,2.8,6.9,2.8"/>
		<path class="wave" d="M1145.7,14.9c2.5,0,5-0.9,6.9-2.8l1.5-1.5c3.6-3.6,9.5-3.6,13.2,0l1.5,1.5c3.8,3.8,9.9,3.8,13.7,0l1.5-1.5
			c3.6-3.6,9.5-3.6,13.2,0l1.6,1.6c1.9,1.9,4.4,2.8,6.9,2.8"/>
	</g>
</g>
<g>
	<g>
		<path class="wave" d="M90.1,32"/>
		<path class="wave" d="M5.7,35.5c2.5,0,5-0.9,6.9-2.8l1.5-1.5c3.6-3.6,9.5-3.6,13.2,0l1.5,1.5c3.8,3.8,9.9,3.8,13.7,0l1.5-1.5
			c3.6-3.6,9.5-3.6,13.2,0l1.6,1.6c1.9,1.9,4.4,2.8,6.9,2.8"/>
		<path class="wave" d="M65.7,35.5c2.5,0,5-0.9,6.9-2.8l1.5-1.5c3.6-3.6,9.5-3.6,13.2,0l1.5,1.5c3.8,3.8,9.9,3.8,13.7,0l1.5-1.5
			c3.6-3.6,9.5-3.6,13.2,0l1.6,1.6c1.9,1.9,4.4,2.8,6.9,2.8"/>
	</g>
	<g>
		<path class="wave" d="M210.1,32"/>
		<path class="wave" d="M125.7,35.5c2.5,0,5-0.9,6.9-2.8l1.5-1.5c3.6-3.6,9.5-3.6,13.2,0l1.5,1.5c3.8,3.8,9.9,3.8,13.7,0l1.5-1.5
			c3.6-3.6,9.5-3.6,13.2,0l1.6,1.6c1.9,1.9,4.4,2.8,6.9,2.8"/>
		<path class="wave" d="M185.7,35.5c2.5,0,5-0.9,6.9-2.8l1.5-1.5c3.6-3.6,9.5-3.6,13.2,0l1.5,1.5c3.8,3.8,9.9,3.8,13.7,0l1.5-1.5
			c3.6-3.6,9.5-3.6,13.2,0l1.6,1.6c1.9,1.9,4.4,2.8,6.9,2.8"/>
	</g>
	<g>
		<path class="wave" d="M330.1,32"/>
		<path class="wave" d="M245.7,35.5c2.5,0,5-0.9,6.9-2.8l1.5-1.5c3.6-3.6,9.5-3.6,13.2,0l1.5,1.5c3.8,3.8,9.9,3.8,13.7,0l1.5-1.5
			c3.6-3.6,9.5-3.6,13.2,0l1.6,1.6c1.9,1.9,4.4,2.8,6.9,2.8"/>
		<path class="wave" d="M305.7,35.5c2.5,0,5-0.9,6.9-2.8l1.5-1.5c3.6-3.6,9.5-3.6,13.2,0l1.5,1.5c3.8,3.8,9.9,3.8,13.7,0l1.5-1.5
			c3.6-3.6,9.5-3.6,13.2,0l1.6,1.6c1.9,1.9,4.4,2.8,6.9,2.8"/>
	</g>
	<g>
		<path class="wave" d="M450.1,32"/>
		<path class="wave" d="M365.7,35.5c2.5,0,5-0.9,6.9-2.8l1.5-1.5c3.6-3.6,9.5-3.6,13.2,0l1.5,1.5c3.8,3.8,9.9,3.8,13.7,0l1.5-1.5
			c3.6-3.6,9.5-3.6,13.2,0l1.6,1.6c1.9,1.9,4.4,2.8,6.9,2.8"/>
		<path class="wave" d="M425.7,35.5c2.5,0,5-0.9,6.9-2.8l1.5-1.5c3.6-3.6,9.5-3.6,13.2,0l1.5,1.5c3.8,3.8,9.9,3.8,13.7,0l1.5-1.5
			c3.6-3.6,9.5-3.6,13.2,0l1.6,1.6c1.9,1.9,4.4,2.8,6.9,2.8"/>
	</g>
	<g>
		<path class="wave" d="M570.1,32"/>
		<path class="wave" d="M485.7,35.5c2.5,0,5-0.9,6.9-2.8l1.5-1.5c3.6-3.6,9.5-3.6,13.2,0l1.5,1.5c3.8,3.8,9.9,3.8,13.7,0l1.5-1.5
			c3.6-3.6,9.5-3.6,13.2,0l1.6,1.6c1.9,1.9,4.4,2.8,6.9,2.8"/>
		<path class="wave" d="M545.7,35.5c2.5,0,5-0.9,6.9-2.8l1.5-1.5c3.6-3.6,9.5-3.6,13.2,0l1.5,1.5c3.8,3.8,9.9,3.8,13.7,0l1.5-1.5
			c3.6-3.6,9.5-3.6,13.2,0l1.6,1.6c1.9,1.9,4.4,2.8,6.9,2.8"/>
	</g>
	<g>
		<path class="wave" d="M690.1,32"/>
		<path class="wave" d="M605.7,35.5c2.5,0,5-0.9,6.9-2.8l1.5-1.5c3.6-3.6,9.5-3.6,13.2,0l1.5,1.5c3.8,3.8,9.9,3.8,13.7,0l1.5-1.5
			c3.6-3.6,9.5-3.6,13.2,0l1.6,1.6c1.9,1.9,4.4,2.8,6.9,2.8"/>
		<path class="wave" d="M665.7,35.5c2.5,0,5-0.9,6.9-2.8l1.5-1.5c3.6-3.6,9.5-3.6,13.2,0l1.5,1.5c3.8,3.8,9.9,3.8,13.7,0l1.5-1.5
			c3.6-3.6,9.5-3.6,13.2,0l1.6,1.6c1.9,1.9,4.4,2.8,6.9,2.8"/>
	</g>
	<g>
		<path class="wave" d="M810.1,32"/>
		<path class="wave" d="M725.7,35.5c2.5,0,5-0.9,6.9-2.8l1.5-1.5c3.6-3.6,9.5-3.6,13.2,0l1.5,1.5c3.8,3.8,9.9,3.8,13.7,0l1.5-1.5
			c3.6-3.6,9.5-3.6,13.2,0l1.6,1.6c1.9,1.9,4.4,2.8,6.9,2.8"/>
		<path class="wave" d="M785.7,35.5c2.5,0,5-0.9,6.9-2.8l1.5-1.5c3.6-3.6,9.5-3.6,13.2,0l1.5,1.5c3.8,3.8,9.9,3.8,13.7,0l1.5-1.5
			c3.6-3.6,9.5-3.6,13.2,0l1.6,1.6c1.9,1.9,4.4,2.8,6.9,2.8"/>
	</g>
	<g>
		<path class="wave" d="M930.1,32"/>
		<path class="wave" d="M845.7,35.5c2.5,0,5-0.9,6.9-2.8l1.5-1.5c3.6-3.6,9.5-3.6,13.2,0l1.5,1.5c3.8,3.8,9.9,3.8,13.7,0l1.5-1.5
			c3.6-3.6,9.5-3.6,13.2,0l1.6,1.6c1.9,1.9,4.4,2.8,6.9,2.8"/>
		<path class="wave" d="M905.7,35.5c2.5,0,5-0.9,6.9-2.8l1.5-1.5c3.6-3.6,9.5-3.6,13.2,0l1.5,1.5c3.8,3.8,9.9,3.8,13.7,0l1.5-1.5
			c3.6-3.6,9.5-3.6,13.2,0l1.6,1.6c1.9,1.9,4.4,2.8,6.9,2.8"/>
	</g>
	<g>
		<path class="wave" d="M1050.1,32"/>
		<path class="wave" d="M965.7,35.5c2.5,0,5-0.9,6.9-2.8l1.5-1.5c3.6-3.6,9.5-3.6,13.2,0l1.5,1.5c3.8,3.8,9.9,3.8,13.7,0l1.5-1.5
			c3.6-3.6,9.5-3.6,13.2,0l1.6,1.6c1.9,1.9,4.4,2.8,6.9,2.8"/>
		<path class="wave" d="M1025.7,35.5c2.5,0,5-0.9,6.9-2.8l1.5-1.5c3.6-3.6,9.5-3.6,13.2,0l1.5,1.5c3.8,3.8,9.9,3.8,13.7,0l1.5-1.5
			c3.6-3.6,9.5-3.6,13.2,0l1.6,1.6c1.9,1.9,4.4,2.8,6.9,2.8"/>
	</g>
	<g>
		<path class="wave" d="M1170.1,32"/>
		<path class="wave" d="M1085.7,35.5c2.5,0,5-0.9,6.9-2.8l1.5-1.5c3.6-3.6,9.5-3.6,13.2,0l1.5,1.5c3.8,3.8,9.9,3.8,13.7,0l1.5-1.5
			c3.6-3.6,9.5-3.6,13.2,0l1.6,1.6c1.9,1.9,4.4,2.8,6.9,2.8"/>
		<path class="wave" d="M1145.7,35.5c2.5,0,5-0.9,6.9-2.8l1.5-1.5c3.6-3.6,9.5-3.6,13.2,0l1.5,1.5c3.8,3.8,9.9,3.8,13.7,0l1.5-1.5
			c3.6-3.6,9.5-3.6,13.2,0l1.6,1.6c1.9,1.9,4.4,2.8,6.9,2.8"/>
	</g>
</g>
<g>
	<g>
		<path class="wave" d="M90.1,53.1"/>
		<path class="wave" d="M5.7,56.6c2.5,0,5-0.9,6.9-2.8l1.5-1.5c3.6-3.6,9.5-3.6,13.2,0l1.5,1.5c3.8,3.8,9.9,3.8,13.7,0l1.5-1.5
			c3.6-3.6,9.5-3.6,13.2,0l1.6,1.6c1.9,1.9,4.4,2.8,6.9,2.8"/>
		<path class="wave" d="M65.7,56.6c2.5,0,5-0.9,6.9-2.8l1.5-1.5c3.6-3.6,9.5-3.6,13.2,0l1.5,1.5c3.8,3.8,9.9,3.8,13.7,0l1.5-1.5
			c3.6-3.6,9.5-3.6,13.2,0l1.6,1.6c1.9,1.9,4.4,2.8,6.9,2.8"/>
	</g>
	<g>
		<path class="wave" d="M210.1,53.1"/>
		<path class="wave" d="M125.7,56.6c2.5,0,5-0.9,6.9-2.8l1.5-1.5c3.6-3.6,9.5-3.6,13.2,0l1.5,1.5c3.8,3.8,9.9,3.8,13.7,0l1.5-1.5
			c3.6-3.6,9.5-3.6,13.2,0l1.6,1.6c1.9,1.9,4.4,2.8,6.9,2.8"/>
		<path class="wave" d="M185.7,56.6c2.5,0,5-0.9,6.9-2.8l1.5-1.5c3.6-3.6,9.5-3.6,13.2,0l1.5,1.5c3.8,3.8,9.9,3.8,13.7,0l1.5-1.5
			c3.6-3.6,9.5-3.6,13.2,0l1.6,1.6c1.9,1.9,4.4,2.8,6.9,2.8"/>
	</g>
	<g>
		<path class="wave" d="M330.1,53.1"/>
		<path class="wave" d="M245.7,56.6c2.5,0,5-0.9,6.9-2.8l1.5-1.5c3.6-3.6,9.5-3.6,13.2,0l1.5,1.5c3.8,3.8,9.9,3.8,13.7,0l1.5-1.5
			c3.6-3.6,9.5-3.6,13.2,0l1.6,1.6c1.9,1.9,4.4,2.8,6.9,2.8"/>
		<path class="wave" d="M305.7,56.6c2.5,0,5-0.9,6.9-2.8l1.5-1.5c3.6-3.6,9.5-3.6,13.2,0l1.5,1.5c3.8,3.8,9.9,3.8,13.7,0l1.5-1.5
			c3.6-3.6,9.5-3.6,13.2,0l1.6,1.6c1.9,1.9,4.4,2.8,6.9,2.8"/>
	</g>
	<g>
		<path class="wave" d="M450.1,53.1"/>
		<path class="wave" d="M365.7,56.6c2.5,0,5-0.9,6.9-2.8l1.5-1.5c3.6-3.6,9.5-3.6,13.2,0l1.5,1.5c3.8,3.8,9.9,3.8,13.7,0l1.5-1.5
			c3.6-3.6,9.5-3.6,13.2,0l1.6,1.6c1.9,1.9,4.4,2.8,6.9,2.8"/>
		<path class="wave" d="M425.7,56.6c2.5,0,5-0.9,6.9-2.8l1.5-1.5c3.6-3.6,9.5-3.6,13.2,0l1.5,1.5c3.8,3.8,9.9,3.8,13.7,0l1.5-1.5
			c3.6-3.6,9.5-3.6,13.2,0l1.6,1.6c1.9,1.9,4.4,2.8,6.9,2.8"/>
	</g>
	<g>
		<path class="wave" d="M570.1,53.1"/>
		<path class="wave" d="M485.7,56.6c2.5,0,5-0.9,6.9-2.8l1.5-1.5c3.6-3.6,9.5-3.6,13.2,0l1.5,1.5c3.8,3.8,9.9,3.8,13.7,0l1.5-1.5
			c3.6-3.6,9.5-3.6,13.2,0l1.6,1.6c1.9,1.9,4.4,2.8,6.9,2.8"/>
		<path class="wave" d="M545.7,56.6c2.5,0,5-0.9,6.9-2.8l1.5-1.5c3.6-3.6,9.5-3.6,13.2,0l1.5,1.5c3.8,3.8,9.9,3.8,13.7,0l1.5-1.5
			c3.6-3.6,9.5-3.6,13.2,0l1.6,1.6c1.9,1.9,4.4,2.8,6.9,2.8"/>
	</g>
	<g>
		<path class="wave" d="M690.1,53.1"/>
		<path class="wave" d="M605.7,56.6c2.5,0,5-0.9,6.9-2.8l1.5-1.5c3.6-3.6,9.5-3.6,13.2,0l1.5,1.5c3.8,3.8,9.9,3.8,13.7,0l1.5-1.5
			c3.6-3.6,9.5-3.6,13.2,0l1.6,1.6c1.9,1.9,4.4,2.8,6.9,2.8"/>
		<path class="wave" d="M665.7,56.6c2.5,0,5-0.9,6.9-2.8l1.5-1.5c3.6-3.6,9.5-3.6,13.2,0l1.5,1.5c3.8,3.8,9.9,3.8,13.7,0l1.5-1.5
			c3.6-3.6,9.5-3.6,13.2,0l1.6,1.6c1.9,1.9,4.4,2.8,6.9,2.8"/>
	</g>
	<g>
		<path class="wave" d="M810.1,53.1"/>
		<path class="wave" d="M725.7,56.6c2.5,0,5-0.9,6.9-2.8l1.5-1.5c3.6-3.6,9.5-3.6,13.2,0l1.5,1.5c3.8,3.8,9.9,3.8,13.7,0l1.5-1.5
			c3.6-3.6,9.5-3.6,13.2,0l1.6,1.6c1.9,1.9,4.4,2.8,6.9,2.8"/>
		<path class="wave" d="M785.7,56.6c2.5,0,5-0.9,6.9-2.8l1.5-1.5c3.6-3.6,9.5-3.6,13.2,0l1.5,1.5c3.8,3.8,9.9,3.8,13.7,0l1.5-1.5
			c3.6-3.6,9.5-3.6,13.2,0l1.6,1.6c1.9,1.9,4.4,2.8,6.9,2.8"/>
	</g>
	<g>
		<path class="wave" d="M930.1,53.1"/>
		<path class="wave" d="M845.7,56.6c2.5,0,5-0.9,6.9-2.8l1.5-1.5c3.6-3.6,9.5-3.6,13.2,0l1.5,1.5c3.8,3.8,9.9,3.8,13.7,0l1.5-1.5
			c3.6-3.6,9.5-3.6,13.2,0l1.6,1.6c1.9,1.9,4.4,2.8,6.9,2.8"/>
		<path class="wave" d="M905.7,56.6c2.5,0,5-0.9,6.9-2.8l1.5-1.5c3.6-3.6,9.5-3.6,13.2,0l1.5,1.5c3.8,3.8,9.9,3.8,13.7,0l1.5-1.5
			c3.6-3.6,9.5-3.6,13.2,0l1.6,1.6c1.9,1.9,4.4,2.8,6.9,2.8"/>
	</g>
	<g>
		<path class="wave" d="M1050.1,53.1"/>
		<path class="wave" d="M965.7,56.6c2.5,0,5-0.9,6.9-2.8l1.5-1.5c3.6-3.6,9.5-3.6,13.2,0l1.5,1.5c3.8,3.8,9.9,3.8,13.7,0l1.5-1.5
			c3.6-3.6,9.5-3.6,13.2,0l1.6,1.6c1.9,1.9,4.4,2.8,6.9,2.8"/>
		<path class="wave" d="M1025.7,56.6c2.5,0,5-0.9,6.9-2.8l1.5-1.5c3.6-3.6,9.5-3.6,13.2,0l1.5,1.5c3.8,3.8,9.9,3.8,13.7,0l1.5-1.5
			c3.6-3.6,9.5-3.6,13.2,0l1.6,1.6c1.9,1.9,4.4,2.8,6.9,2.8"/>
	</g>
	<g>
		<path class="wave" d="M1170.1,53.1"/>
		<path class="wave" d="M1085.7,56.6c2.5,0,5-0.9,6.9-2.8l1.5-1.5c3.6-3.6,9.5-3.6,13.2,0l1.5,1.5c3.8,3.8,9.9,3.8,13.7,0l1.5-1.5
			c3.6-3.6,9.5-3.6,13.2,0l1.6,1.6c1.9,1.9,4.4,2.8,6.9,2.8"/>
		<path class="wave" d="M1145.7,56.6c2.5,0,5-0.9,6.9-2.8l1.5-1.5c3.6-3.6,9.5-3.6,13.2,0l1.5,1.5c3.8,3.8,9.9,3.8,13.7,0l1.5-1.5
			c3.6-3.6,9.5-3.6,13.2,0l1.6,1.6c1.9,1.9,4.4,2.8,6.9,2.8"/>
	</g>
</g>
</svg>
