<?xml version="1.0" encoding="UTF-8"?>
<svg width="401px" height="212px" viewBox="0 0 401 212" version="1.1" xmlns="http://www.w3.org/2000/svg" xmlns:xlink="http://www.w3.org/1999/xlink">
    <!-- Generator: Sketch 43 (38999) - http://www.bohemiancoding.com/sketch -->
    <title>pelo</title>
    <desc>Created with Sketch.</desc>
    <defs></defs>
    <g id="Page-1" stroke="none" stroke-width="1" fill="none" fill-rule="evenodd">
        <g id="pelo" transform="translate(1.000000, 1.000000)" stroke-width="2">
            <g id="casas_vermelhas" transform="translate(230.388693, 1.413428)" stroke="#DE4B39">
                <g id="Group" transform="translate(88.956979, 39.141071)">
                    <g transform="translate(53.374188, 9.488744)" id="Shape">
                        <path d="M9.13291655,0.118609306 L9.13291655,9.72596308"></path>
                        <g>
                            <path d="M0,0.118609306 L0,9.72596308"></path>
                            <path d="M18.3844424,0.118609306 L18.3844424,9.72596308"></path>
                        </g>
                    </g>
                    <path d="M8.53987002,28.2290148 L8.53987002,37.7177593" id="Shape"></path>
                    <g transform="translate(37.954978, 46.257629)" id="Shape">
                        <path d="M9.60735378,0.711655835 L9.60735378,10.3190096"></path>
                        <path d="M0.474437224,0.711655835 L0.474437224,10.3190096"></path>
                    </g>
                    <polyline id="Shape" points="80.4171094 0.355827918 40.4457733 0.355827918 40.4457733 37.7177593"></polyline>
                    <path d="M60.490746,78.5193605 L60.490746,37.7177593 L21.2310658,37.7177593 L21.2310658,19.2147076 L0,19.2147076" id="Shape"></path>
                </g>
                <g id="Group">
                    <g transform="translate(8.302651, 28.466233)" id="Shape">
                        <path d="M0.474437224,0.237218612 L0.474437224,9.84457239"></path>
                        <path d="M9.72596308,0.237218612 L9.72596308,9.84457239"></path>
                    </g>
                    <g transform="translate(8.302651, 48.629815)" id="Shape">
                        <path d="M0.474437224,0.237218612 L0.474437224,9.84457239"></path>
                        <path d="M9.72596308,0.237218612 L9.72596308,9.84457239"></path>
                    </g>
                    <g transform="translate(66.421211, 10.674838)" id="Shape">
                        <path d="M0,0 L0,9.60735378"></path>
                        <path d="M9.13291655,0 L9.13291655,9.60735378"></path>
                    </g>
                    <g transform="translate(66.421211, 30.838420)" id="Shape">
                        <path d="M0,0 L0,9.60735378"></path>
                        <path d="M9.13291655,0 L9.13291655,9.60735378"></path>
                    </g>
                    <path d="M41.869085,48.867034 L41.869085,58.4743878" id="Shape"></path>
                    <path d="M41.869085,69.030616 L41.869085,78.6379698" id="Shape"></path>
                    <polyline id="Shape" points="83.382342 0.118609306 53.136969 0.118609306 53.136969 78.6379698"></polyline>
                    <polyline id="Shape" points="0.355827918 19.2147076 30.6012009 19.2147076 30.6012009 78.6379698"></polyline>
                    <path d="M30.6012009,39.3782896 L53.136969,39.3782896" id="Shape"></path>
                </g>
            </g>
            <g id="casa_verde" transform="translate(117.314488, 98.939929)" stroke="#02A05B">
                <g id="Group" transform="translate(15.547703, 0.000000)">
                    <polyline id="Shape" points="56.254417 110.388693 56.254417 30.6713781 28.409894 13.8515901 0.424028269 30.6713781 0.424028269 110.388693"></polyline>
                    <polyline id="Shape" points="56.254417 110.388693 56.254417 71.5194346 84.2402827 54.5583039 112.226148 71.5194346 112.226148 110.388693"></polyline>
                    <g transform="translate(14.134276, 40.989399)" id="Shape">
                        <path d="M14.2756184,0.141342756 L14.2756184,13.5689046"></path>
                        <g>
                            <path d="M1.27208481,0.141342756 L1.27208481,13.5689046"></path>
                            <path d="M27.1378092,0.141342756 L27.1378092,13.5689046"></path>
                        </g>
                    </g>
                    <g transform="translate(70.671378, 96.113074)" id="Shape">
                        <path d="M13.5689046,0.848056537 L13.5689046,14.2756184"></path>
                        <path d="M0.706713781,0.848056537 L0.706713781,14.2756184"></path>
                    </g>
                    <g transform="translate(84.805654, 26.855124)" id="Shape">
                        <path d="M13.2862191,0.848056537 L13.2862191,14.2756184"></path>
                        <path d="M0.282685512,0.848056537 L0.282685512,14.2756184"></path>
                    </g>
                    <polyline id="Shape" points="114.628975 0.282685512 71.3780919 0.282685512 71.3780919 62.4734982"></polyline>
                </g>
                <path d="M0.848056537,110.388693 L172.720848,110.388693" id="Shape"></path>
                <g id="Group" transform="translate(120.141343, 26.855124)">
                    <path d="M25.8657244,32.6501767 L25.8657244,84.2402827" id="Shape"></path>
                    <circle id="Oval" cx="24.8763251" cy="25.7243816" r="24.8763251"></circle>
                </g>
            </g>
            <g id="casas_amarelas" stroke="#FDC20F">
                <g id="Group" transform="translate(52.188095, 74.267673)">
                    <g transform="translate(43.155540, 20.072344)" id="Shape">
                        <path d="M8.12929935,0.501808602 L8.12929935,8.43038451"></path>
                        <g>
                            <path d="M15.8571518,0.501808602 L15.8571518,8.43038451"></path>
                            <path d="M0.401446881,0.501808602 L0.401446881,8.43038451"></path>
                        </g>
                    </g>
                    <path d="M7.82821419,26.4954942 L7.82821419,34.4240701" id="Shape"></path>
                    <g transform="translate(14.050641, 8.028938)" id="Shape">
                        <path d="M8.22966107,0 L8.22966107,8.02893763"></path>
                        <path d="M0.602170322,0 L0.602170322,8.02893763"></path>
                    </g>
                    <polyline id="Shape" points="33.1193677 12.7459385 69.7513957 12.7459385 69.7513957 44.0587952"></polyline>
                    <path d="M33.1193677,34.4240701 L33.1193677,0.200723441 L0.301085161,0.200723441 L0.301085161,50.6826688" id="Shape"></path>
                </g>
                <g id="Group">
                    <g transform="translate(105.379806, 12.043406)" id="Shape">
                        <path d="M0.200723441,0.501808602 L0.200723441,8.53074623"></path>
                        <path d="M10.5379806,0.501808602 L10.5379806,8.53074623"></path>
                    </g>
                    <g transform="translate(115.415978, 53.191712)" id="Shape">
                        <path d="M0.501808602,0.602170322 L0.501808602,8.63110795"></path>
                        <path d="M10.7387041,0.602170322 L10.7387041,8.63110795"></path>
                    </g>
                    <path d="M158.471156,33.2197294 L158.471156,41.2486671" id="Shape"></path>
                    <path d="M95.2432726,12.4448533 L95.2432726,20.473791" id="Shape"></path>
                    <polyline id="Shape" points="125.652874 41.3490288 125.652874 0.602170322 83.7016748 0.602170322 53.492797 30.7106864 0.200723441 84.0027599"></polyline>
                    <polyline id="Shape" points="10.2368955 73.9665879 10.2368955 0.602170322 52.8906266 0.602170322 52.8906266 30.7106864"></polyline>
                    <polyline id="Shape" points="168.908775 20.7748761 146.628473 20.7748761 146.628473 42.2522843 104.476551 42.2522843 104.476551 84.0027599"></polyline>
                    <path d="M10.2368955,32.316474 L53.492797,32.316474" id="Shape"></path>
                    <path d="M10.2368955,42.2522843 L41.9511991,42.2522843" id="Shape"></path>
                    <path d="M10.2368955,52.388818 L31.8146654,52.388818" id="Shape"></path>
                    <path d="M41.9511991,0.602170322 L41.9511991,32.316474" id="Shape"></path>
                </g>
            </g>
        </g>
    </g>
</svg>