<?xml version="1.0" encoding="utf-8"?>
<!-- Generator: Adobe Illustrator 19.0.0, SVG Export Plug-In . SVG Version: 6.00 Build 0)  -->
<svg version="1.1" id="Layer_1" xmlns="http://www.w3.org/2000/svg" xmlns:xlink="http://www.w3.org/1999/xlink" x="0px" y="0px"
	 viewBox="0 0 80.3 85.2" style="enable-background:new 0 0 80.3 85.2;" xml:space="preserve">
<style type="text/css">
	.st0{fill:none;stroke:#FDC20F;stroke-width:2;stroke-miterlimit:10;}
</style>
<g>
	<circle class="st0" cx="40.5" cy="43" r="21.3"/>
	<path class="st0" d="M43.9,75.1c-1.1,0.1-2.2,0.2-3.4,0.2c-2.6,0-5.2-0.3-7.6-0.9"/>
	<path class="st0" d="M70.9,32.2c1.2,3.4,1.8,7,1.8,10.8c0,15.3-10.7,28.2-25,31.5"/>
	<path class="st0" d="M23.2,15.8c5-3.2,10.9-5,17.3-5c12.9,0,24,7.6,29.2,18.5"/>
	<path class="st0" d="M17.4,20.4c0.8-0.9,1.7-1.7,2.7-2.4"/>
	<path class="st0" d="M27.7,72.6C16.2,67.7,8.2,56.3,8.2,43c0-7.4,2.5-14.2,6.7-19.7"/>
	<path class="st0" d="M13.5,43c0-14.9,12.1-27,27-27c4.1,0,8,0.9,11.5,2.6"/>
	<path class="st0" d="M15.4,52.9c-0.6-1.4-1-2.9-1.3-4.5"/>
	<path class="st0" d="M56.1,21c6.9,4.9,11.4,12.9,11.4,22c0,14.9-12.1,27-27,27c-9.3,0-17.6-4.7-22.4-12"/>
</g>
</svg>
