<svg xmlns="http://www.w3.org/2000/svg" viewBox="0 0 373.11 313.2"><title>logo</title><path d="M372.66 161.1a48.26 48.26 0 0 0-4.35-14.26L308.85 21.62a46.56 46.56 0 0 0-8.3-12.13 32.18 32.18 0 0 0-10.73-7 37 37 0 0 0-26.53 0c-.42.17-1.35.6-1.44.65L22 116.9a48.26 48.26 0 0 0-12.41 8.26 32.17 32.17 0 0 0-7 10.71A34.85 34.85 0 0 0 0 149.9a30 30 0 0 0 2.52 12.47c.15.32.39 1.13.39 1.13l60.7 127.74a48.27 48.27 0 0 0 8.27 12.4 32.16 32.16 0 0 0 10.71 7 34.86 34.86 0 0 0 14 2.51 30 30 0 0 0 12.47-2.53l245-116.12v-.07l.35-.15a30 30 0 0 0 9.86-8 34.84 34.84 0 0 0 7-12.44 32.17 32.17 0 0 0 1.39-12.74z" fill="#e31837"/><g fill="#fff"><path d="M37.33 180.3a34.38 34.38 0 0 0 2.3 5.78 37.82 37.82 0 0 0 3.42 5.43 34.07 34.07 0 0 0 12.13 9.66 37.48 37.48 0 0 0 13.38 3.33s16.27-20.76 16.27-20.78.81 1.82 1 2.12c5.63 11.22 15.77 18.1 27.81 18.88h1.39a30.74 30.74 0 0 0 12.66-3.11 35.73 35.73 0 0 0 11.91-8.45 33 33 0 0 0 6.86-11.2 49.4 49.4 0 0 0 2.24-15.11v-58.78h-20.37v58.36c0 4.91-.52 8.34-1.58 10.47a12.13 12.13 0 0 1-11.41 7 11.94 11.94 0 0 1-10.63-5.9 12.29 12.29 0 0 1-2-5.25 40.84 40.84 0 0 1-.46-6.89v-57.79H81.93v57.7c0 4.79-.47 8.24-1.44 10.53a12.72 12.72 0 0 1-4.86 5.56 12.12 12.12 0 0 1-6.84 2c-4.64 0-12.47-2-12.85-15.24 0 0-.07-4.07-.07-5.07v-55.5H40.54l-5.06 2.38V166a53.65 53.65 0 0 0 .47 7.77 37.69 37.69 0 0 0 1.38 6.53zm200.32-12.59a18.92 18.92 0 0 0-9.81 5.25 30.45 30.45 0 0 1-5.1 5.45l-.21.26v-.12a29.94 29.94 0 0 1-39.8-1.55l-16.11 7.28 10.69-13.87a34.2 34.2 0 0 1-3.93-15.1c.06-16.63 14.39-30.52 30.11-29.87 5.74.23 9.14.84 13.72 3.3l-31.76 40.56 64.44-30.52c-6.19-19.21-25.51-33-46.41-33a49.49 49.49 0 1 0 0 99c23.17-.14 41.76-16.26 47.18-34.31-.99-.62-4.87-4.2-13.01-2.76z"/><path d="M236.51 204.78h26.07l25.83-33.03 25.83 33.03h18.33l5.65-2.67-36.78-47.03 36.96-47.29h-26.06l-23.93 30.61-23.93-30.61h-26.07l36.97 47.29-38.87 49.7z"/></g><path d="M365.43 96.38a7.57 7.57 0 1 1 0 15.14 7.57 7.57 0 1 1 0-15.14zm-.09 1.52a6 6 0 0 0 .09 12.05 5.78 5.78 0 0 0 5.75-6 5.87 5.87 0 0 0-5.8-6.07zm-1.15 9.94h-1.75v-7.54a20.47 20.47 0 0 1 2.9-.23 4 4 0 0 1 2.58.6 1.9 1.9 0 0 1 .78 1.61 2 2 0 0 1-1.56 1.79v.09c.74.23 1.1.83 1.33 1.84a6.7 6.7 0 0 0 .55 1.84h-1.84a6 6 0 0 1-.6-1.84c-.14-.78-.6-1.15-1.56-1.15h-.83zm0-4.23h.83c1 0 1.75-.32 1.75-1.1s-.51-1.15-1.61-1.15a4.17 4.17 0 0 0-1 .09z" fill="#e31837"/></svg>